solid battery-camera-holder
facet normal 0.0 1.0 0.0
  outer loop
    vertex 31.379571456962992 44.5431735097666 23.000000000000004
    vertex 35.129571456963 44.5431735097666 0.0
    vertex 31.379571456962992 44.5431735097666 0.0
  endloop
endfacet
facet normal 0.0 1.0 0.0
  outer loop
    vertex 35.129571456963 44.5431735097666 0.0
    vertex 31.379571456962992 44.5431735097666 23.000000000000004
    vertex 35.129571456963 44.5431735097666 23.000000000000004
  endloop
endfacet
facet normal 1.0 0.0 0.0
  outer loop
    vertex 60.37957145696299 44.5431735097666 0.0
    vertex 60.37957145696299 0.04317350976661737 8.5
    vertex 60.37957145696299 0.04317350976661716 0.0
  endloop
endfacet
facet normal 1.0 0.0 0.0
  outer loop
    vertex 60.37957145696299 0.04317350976661737 8.5
    vertex 60.37957145696299 44.5431735097666 0.0
    vertex 60.37957145696299 25.043173509766618 3.9999999999999996
  endloop
endfacet
facet normal 1.0 0.0 0.0
  outer loop
    vertex 60.37957145696299 25.043173509766618 3.9999999999999996
    vertex 60.37957145696299 44.5431735097666 0.0
    vertex 60.37957145696299 34.54317350976661 3.9999999999999996
  endloop
endfacet
facet normal 1.0 0.0 0.0
  outer loop
    vertex 60.37957145696299 34.54317350976661 3.9999999999999996
    vertex 60.37957145696299 44.5431735097666 0.0
    vertex 60.37957145696299 34.54317350976661 23.000000000000004
  endloop
endfacet
facet normal 1.0 0.0 0.0
  outer loop
    vertex 60.37957145696299 34.54317350976661 23.000000000000004
    vertex 60.37957145696299 44.5431735097666 0.0
    vertex 60.37957145696299 37.10000101419015 18.410768789819226
  endloop
endfacet
facet normal 1.0 0.0 0.0
  outer loop
    vertex 60.37957145696299 34.54317350976661 23.000000000000004
    vertex 60.37957145696299 37.10000101419015 18.410768789819226
    vertex 60.37957145696299 37.01481557991283 19.057816402575536
  endloop
endfacet
facet normal 1.0 0.0 0.0
  outer loop
    vertex 60.37957145696299 37.10000101419015 18.410768789819226
    vertex 60.37957145696299 44.5431735097666 0.0
    vertex 60.37957145696299 37.34975207045173 17.80781640257553
  endloop
endfacet
facet normal 1.0 0.0 0.0
  outer loop
    vertex 60.37957145696299 37.34975207045173 17.80781640257553
    vertex 60.37957145696299 44.5431735097666 0.0
    vertex 60.37957145696299 37.747048626946466 17.290049449609157
  endloop
endfacet
facet normal 1.0 0.0 0.0
  outer loop
    vertex 60.37957145696299 37.747048626946466 17.290049449609157
    vertex 60.37957145696299 44.5431735097666 0.0
    vertex 60.37957145696299 38.26481557991283 16.89275289311443
  endloop
endfacet
facet normal 1.0 0.0 0.0
  outer loop
    vertex 60.37957145696299 38.26481557991283 16.89275289311443
    vertex 60.37957145696299 44.5431735097666 0.0
    vertex 60.37957145696299 38.867767967156524 16.64300183685286
  endloop
endfacet
facet normal 1.0 0.0 0.0
  outer loop
    vertex 60.37957145696299 38.867767967156524 16.64300183685286
    vertex 60.37957145696299 44.5431735097666 0.0
    vertex 60.37957145696299 39.51481557991283 16.557816402575533
  endloop
endfacet
facet normal 1.0 0.0 0.0
  outer loop
    vertex 60.37957145696299 39.51481557991283 16.557816402575533
    vertex 60.37957145696299 44.5431735097666 0.0
    vertex 60.37957145696299 40.161863192669124 16.64300183685286
  endloop
endfacet
facet normal 1.0 0.0 0.0
  outer loop
    vertex 60.37957145696299 40.161863192669124 16.64300183685286
    vertex 60.37957145696299 44.5431735097666 0.0
    vertex 60.37957145696299 40.76481557991282 16.892752893114437
  endloop
endfacet
facet normal 1.0 0.0 0.0
  outer loop
    vertex 60.37957145696299 40.76481557991282 16.892752893114437
    vertex 60.37957145696299 44.5431735097666 0.0
    vertex 60.37957145696299 41.28258253287919 17.290049449609164
  endloop
endfacet
facet normal 1.0 0.0 0.0
  outer loop
    vertex 60.37957145696299 41.28258253287919 17.290049449609164
    vertex 60.37957145696299 44.5431735097666 0.0
    vertex 60.37957145696299 41.67987908937392 17.80781640257553
  endloop
endfacet
facet normal 1.0 0.0 0.0
  outer loop
    vertex 60.37957145696299 41.67987908937392 17.80781640257553
    vertex 60.37957145696299 44.5431735097666 0.0
    vertex 60.37957145696299 41.929630145635485 18.410768789819226
  endloop
endfacet
facet normal 1.0 0.0 0.0
  outer loop
    vertex 60.37957145696299 41.929630145635485 18.410768789819226
    vertex 60.37957145696299 44.5431735097666 0.0
    vertex 60.37957145696299 42.014815579912806 19.057816402575533
  endloop
endfacet
facet normal 1.0 0.0 0.0
  outer loop
    vertex 60.37957145696299 34.54317350976661 23.000000000000004
    vertex 60.37957145696299 38.867767967156524 21.472630968298194
    vertex 60.37957145696299 44.5431735097666 23.000000000000004
  endloop
endfacet
facet normal 1.0 0.0 0.0
  outer loop
    vertex 60.37957145696299 38.867767967156524 21.472630968298194
    vertex 60.37957145696299 34.54317350976661 23.000000000000004
    vertex 60.37957145696299 38.26481557991283 21.222879912036625
  endloop
endfacet
facet normal 1.0 0.0 0.0
  outer loop
    vertex 60.37957145696299 38.26481557991283 21.222879912036625
    vertex 60.37957145696299 34.54317350976661 23.000000000000004
    vertex 60.37957145696299 37.747048626946466 20.82558335554189
  endloop
endfacet
facet normal 1.0 0.0 0.0
  outer loop
    vertex 60.37957145696299 37.747048626946466 20.82558335554189
    vertex 60.37957145696299 34.54317350976661 23.000000000000004
    vertex 60.37957145696299 37.34975207045173 20.307816402575522
  endloop
endfacet
facet normal 1.0 0.0 0.0
  outer loop
    vertex 60.37957145696299 37.34975207045173 20.307816402575522
    vertex 60.37957145696299 34.54317350976661 23.000000000000004
    vertex 60.37957145696299 37.10000101419016 19.704864015331836
  endloop
endfacet
facet normal 1.0 0.0 0.0
  outer loop
    vertex 60.37957145696299 37.10000101419016 19.704864015331836
    vertex 60.37957145696299 34.54317350976661 23.000000000000004
    vertex 60.37957145696299 37.01481557991283 19.057816402575536
  endloop
endfacet
facet normal 1.0 0.0 0.0
  outer loop
    vertex 60.37957145696299 44.5431735097666 23.000000000000004
    vertex 60.37957145696299 38.867767967156524 21.472630968298194
    vertex 60.37957145696299 39.51481557991283 21.557816402575526
  endloop
endfacet
facet normal 1.0 0.0 0.0
  outer loop
    vertex 60.37957145696299 44.5431735097666 23.000000000000004
    vertex 60.37957145696299 39.51481557991283 21.557816402575526
    vertex 60.37957145696299 40.161863192669124 21.47263096829819
  endloop
endfacet
facet normal 1.0 0.0 0.0
  outer loop
    vertex 60.37957145696299 44.5431735097666 23.000000000000004
    vertex 60.37957145696299 40.161863192669124 21.47263096829819
    vertex 60.37957145696299 40.764815579912835 21.22287991203661
  endloop
endfacet
facet normal 1.0 0.0 0.0
  outer loop
    vertex 60.37957145696299 44.5431735097666 23.000000000000004
    vertex 60.37957145696299 40.764815579912835 21.22287991203661
    vertex 60.37957145696299 41.28258253287919 20.825583355541895
  endloop
endfacet
facet normal 1.0 0.0 0.0
  outer loop
    vertex 60.37957145696299 44.5431735097666 23.000000000000004
    vertex 60.37957145696299 41.28258253287919 20.825583355541895
    vertex 60.37957145696299 41.67987908937392 20.30781640257553
  endloop
endfacet
facet normal 1.0 0.0 0.0
  outer loop
    vertex 60.37957145696299 44.5431735097666 23.000000000000004
    vertex 60.37957145696299 41.67987908937392 20.30781640257553
    vertex 60.37957145696299 41.929630145635485 19.70486401533183
  endloop
endfacet
facet normal 1.0 0.0 0.0
  outer loop
    vertex 60.37957145696299 44.5431735097666 23.000000000000004
    vertex 60.37957145696299 41.929630145635485 19.70486401533183
    vertex 60.37957145696299 42.014815579912806 19.057816402575533
  endloop
endfacet
facet normal 1.0 0.0 0.0
  outer loop
    vertex 60.37957145696299 44.5431735097666 23.000000000000004
    vertex 60.37957145696299 42.014815579912806 19.057816402575533
    vertex 60.37957145696299 44.5431735097666 0.0
  endloop
endfacet
facet normal 1.0 0.0 0.0
  outer loop
    vertex 60.37957145696299 25.043173509766618 8.499999999999998
    vertex 60.37957145696299 0.04317350976661737 8.5
    vertex 60.37957145696299 25.043173509766618 3.9999999999999996
  endloop
endfacet
facet normal 0.0 1.0 0.0
  outer loop
    vertex 40.129571456963 5.043173509766616 1.00126921125374
    vertex 51.629571456963 5.043173509766616 0.0
    vertex 40.129571456963 5.043173509766616 0.0
  endloop
endfacet
facet normal 0.0 1.0 0.0
  outer loop
    vertex 51.629571456963 5.043173509766616 0.0
    vertex 40.129571456963 5.043173509766616 1.00126921125374
    vertex 51.629571456963 5.043173509766616 1.0025384225074807
  endloop
endfacet
facet normal 1.0 0.0 0.0
  outer loop
    vertex 35.129571456963 1.0431735097666168 0.9999999999999999
    vertex 35.129571456963 0.04317350976661737 8.5
    vertex 35.129571456963 0.04317350976661716 0.9999999999999999
  endloop
endfacet
facet normal 1.0 0.0 0.0
  outer loop
    vertex 35.129571456963 0.04317350976661737 8.5
    vertex 35.129571456963 1.0431735097666168 0.9999999999999999
    vertex 35.129571456963 1.0431735097666168 8.0
  endloop
endfacet
facet normal 1.0 0.0 0.0
  outer loop
    vertex 35.129571456963 0.04317350976661737 8.5
    vertex 35.129571456963 1.0431735097666168 8.0
    vertex 35.129571456963 1.5431735097666168 8.5
  endloop
endfacet
facet normal 1.0 0.0 0.0
  outer loop
    vertex 35.129571456963 1.5431735097666168 8.5
    vertex 35.129571456963 1.0431735097666168 8.0
    vertex 35.129571456963 1.5431735097666168 8.0
  endloop
endfacet
facet normal 0.0 -1.0 0.0
  outer loop
    vertex 51.629571456963 14.587012640587496 1.0050768450149623
    vertex 40.129571456963 14.587012640587496 0.0
    vertex 51.629571456963 14.587012640587496 0.0
  endloop
endfacet
facet normal 0.0 -1.0 0.0
  outer loop
    vertex 40.129571456963 14.587012640587496 0.0
    vertex 51.629571456963 14.587012640587496 1.0050768450149623
    vertex 40.129571456963 14.587012640587496 1.0101536900299277
  endloop
endfacet
facet normal 1.0 0.0 0.0
  outer loop
    vertex 40.129571456963 14.587012640587496 0.0
    vertex 40.129571456963 5.043173509766616 1.00126921125374
    vertex 40.129571456963 5.043173509766616 0.0
  endloop
endfacet
facet normal 1.0 0.0 0.0
  outer loop
    vertex 40.129571456963 5.043173509766616 1.00126921125374
    vertex 40.129571456963 14.587012640587496 0.0
    vertex 40.129571456963 14.587012640587496 1.0101536900299277
  endloop
endfacet
facet normal -1.0 0.0 0.0
  outer loop
    vertex 51.629571456963 14.587012640587496 1.0050768450149623
    vertex 51.629571456963 5.043173509766616 0.0
    vertex 51.629571456963 5.043173509766616 1.0025384225074807
  endloop
endfacet
facet normal -1.0 0.0 0.0
  outer loop
    vertex 51.629571456963 5.043173509766616 0.0
    vertex 51.629571456963 14.587012640587496 1.0050768450149623
    vertex 51.629571456963 14.587012640587496 0.0
  endloop
endfacet
facet normal 7.754396922377954e-18 5.756759823560314e-17 1.0
  outer loop
    vertex 60.37957145696299 0.04317350976661737 8.5
    vertex 56.629571456963 1.5431735097666168 8.5
    vertex 56.629571456963 0.04317350976661737 8.5
  endloop
endfacet
facet normal 7.754396922377954e-18 5.756759823560314e-17 1.0
  outer loop
    vertex 56.629571456963 1.5431735097666168 8.5
    vertex 60.37957145696299 0.04317350976661737 8.5
    vertex 58.629571456963 1.5431735097666168 8.5
  endloop
endfacet
facet normal 7.754396922377954e-18 5.756759823560314e-17 1.0
  outer loop
    vertex 58.629571456963 1.5431735097666168 8.5
    vertex 60.37957145696299 0.04317350976661737 8.5
    vertex 58.629571456963 25.043173509766618 8.499999999999998
  endloop
endfacet
facet normal 7.754396922377954e-18 5.756759823560314e-17 1.0
  outer loop
    vertex 58.629571456963 25.043173509766618 8.499999999999998
    vertex 60.37957145696299 0.04317350976661737 8.5
    vertex 60.37957145696299 25.043173509766618 8.499999999999998
  endloop
endfacet
facet normal 0.0 0.0 -1.0
  outer loop
    vertex 56.629571456963 34.54317350976661 0.0
    vertex 40.129571456963 14.587012640587496 0.0
    vertex 35.129571456963 34.54317350976661 0.0
  endloop
endfacet
facet normal 0.0 0.0 -1.0
  outer loop
    vertex 40.129571456963 14.587012640587496 0.0
    vertex 56.629571456963 34.54317350976661 0.0
    vertex 51.629571456963 14.587012640587496 0.0
  endloop
endfacet
facet normal 0.0 0.0 -1.0
  outer loop
    vertex 51.629571456963 14.587012640587496 0.0
    vertex 56.629571456963 34.54317350976661 0.0
    vertex 51.629571456963 5.043173509766616 0.0
  endloop
endfacet
facet normal 0.0 0.0 -1.0
  outer loop
    vertex 60.37957145696299 44.5431735097666 0.0
    vertex 56.629571456963 34.54317350976661 0.0
    vertex 56.629571456963 44.5431735097666 0.0
  endloop
endfacet
facet normal 0.0 0.0 -1.0
  outer loop
    vertex 35.129571456963 44.5431735097666 0.0
    vertex 31.379571456962992 0.04317350976661716 0.0
    vertex 31.379571456962992 44.5431735097666 0.0
  endloop
endfacet
facet normal 0.0 0.0 -1.0
  outer loop
    vertex 31.379571456962992 0.04317350976661716 0.0
    vertex 35.129571456963 44.5431735097666 0.0
    vertex 35.129571456963 34.54317350976661 0.0
  endloop
endfacet
facet normal 0.0 0.0 -1.0
  outer loop
    vertex 31.379571456962992 0.04317350976661716 0.0
    vertex 35.129571456963 34.54317350976661 0.0
    vertex 40.129571456963 5.043173509766616 0.0
  endloop
endfacet
facet normal 0.0 0.0 -1.0
  outer loop
    vertex 31.379571456962992 0.04317350976661716 0.0
    vertex 40.129571456963 5.043173509766616 0.0
    vertex 60.37957145696299 0.04317350976661716 0.0
  endloop
endfacet
facet normal 0.0 0.0 -1.0
  outer loop
    vertex 40.129571456963 5.043173509766616 0.0
    vertex 35.129571456963 34.54317350976661 0.0
    vertex 40.129571456963 14.587012640587496 0.0
  endloop
endfacet
facet normal 0.0 0.0 -1.0
  outer loop
    vertex 60.37957145696299 0.04317350976661716 0.0
    vertex 40.129571456963 5.043173509766616 0.0
    vertex 51.629571456963 5.043173509766616 0.0
  endloop
endfacet
facet normal 0.0 0.0 -1.0
  outer loop
    vertex 60.37957145696299 0.04317350976661716 0.0
    vertex 51.629571456963 5.043173509766616 0.0
    vertex 56.629571456963 34.54317350976661 0.0
  endloop
endfacet
facet normal 0.0 0.0 -1.0
  outer loop
    vertex 60.37957145696299 0.04317350976661716 0.0
    vertex 56.629571456963 34.54317350976661 0.0
    vertex 60.37957145696299 44.5431735097666 0.0
  endloop
endfacet
facet normal 0.0 1.0 0.0
  outer loop
    vertex 56.629571456963 44.5431735097666 23.000000000000004
    vertex 60.37957145696299 44.5431735097666 0.0
    vertex 56.629571456963 44.5431735097666 0.0
  endloop
endfacet
facet normal 0.0 1.0 0.0
  outer loop
    vertex 60.37957145696299 44.5431735097666 0.0
    vertex 56.629571456963 44.5431735097666 23.000000000000004
    vertex 60.37957145696299 44.5431735097666 23.000000000000004
  endloop
endfacet
facet normal -7.754396922377823e-18 5.756759823560316e-17 1.0
  outer loop
    vertex 31.379571456962992 0.04317350976661737 8.5
    vertex 33.12957145696299 1.5431735097666168 8.5
    vertex 31.379571456962992 25.043173509766618 8.499999999999998
  endloop
endfacet
facet normal -7.754396922377823e-18 5.756759823560316e-17 1.0
  outer loop
    vertex 33.12957145696299 1.5431735097666168 8.5
    vertex 31.379571456962992 0.04317350976661737 8.5
    vertex 35.129571456963 0.04317350976661737 8.5
  endloop
endfacet
facet normal -7.754396922377823e-18 5.756759823560316e-17 1.0
  outer loop
    vertex 33.12957145696299 1.5431735097666168 8.5
    vertex 35.129571456963 0.04317350976661737 8.5
    vertex 35.129571456963 1.5431735097666168 8.5
  endloop
endfacet
facet normal -7.754396922377823e-18 5.756759823560316e-17 1.0
  outer loop
    vertex 33.12957145696299 25.043173509766618 8.499999999999998
    vertex 31.379571456962992 25.043173509766618 8.499999999999998
    vertex 33.12957145696299 1.5431735097666168 8.5
  endloop
endfacet
facet normal 3.5249581031848684e-16 1.0 -2.860428976163527e-17
  outer loop
    vertex 33.12957145696299 1.0431735097666177 8.0
    vertex 35.129571456963 1.0431735097666168 0.9999999999999999
    vertex 33.12957145696299 1.0431735097666175 0.9999999999999999
  endloop
endfacet
facet normal 3.5249581031848684e-16 1.0 -2.860428976163527e-17
  outer loop
    vertex 35.129571456963 1.0431735097666168 0.9999999999999999
    vertex 33.12957145696299 1.0431735097666177 8.0
    vertex 35.129571456963 1.0431735097666168 8.0
  endloop
endfacet
facet normal -2.1407327659219953e-10 -0.9999999999999998 -2.1544741932290303e-08
  outer loop
    vertex 35.129571456963 32.543173509766596 3.9999999999999996
    vertex 33.83110901558942 32.54317376864374 1.0005087996367603
    vertex 35.129571456963 32.543173509766596 0.9999999999999999
  endloop
endfacet
facet normal -2.1407327659219953e-10 -0.9999999999999998 -2.1544741932290303e-08
  outer loop
    vertex 33.83110901558942 32.54317376864374 1.0005087996367603
    vertex 33.12957145696299 32.543173509766596 0.9999999999999999
    vertex 33.24897444203762 32.543173509766596 0.9999999999999999
  endloop
endfacet
facet normal -2.1407327659219953e-10 -0.9999999999999998 -2.1544741932290303e-08
  outer loop
    vertex 33.12957145696299 32.543173509766596 0.9999999999999999
    vertex 33.83110901558942 32.54317376864374 1.0005087996367603
    vertex 33.12957145696299 32.543173509766596 3.9999999999999996
  endloop
endfacet
facet normal -2.1407327659219953e-10 -0.9999999999999998 -2.1544741932290303e-08
  outer loop
    vertex 33.12957145696299 32.543173509766596 3.9999999999999996
    vertex 33.83110901558942 32.54317376864374 1.0005087996367603
    vertex 35.129571456963 32.543173509766596 3.9999999999999996
  endloop
endfacet
facet normal 1.0 0.0 0.0
  outer loop
    vertex 35.129571456963 44.5431735097666 0.0
    vertex 35.129571456963 34.54317350976661 0.9999999999999999
    vertex 35.129571456963 34.54317350976661 0.0
  endloop
endfacet
facet normal 1.0 0.0 0.0
  outer loop
    vertex 35.129571456963 34.54317350976661 0.9999999999999999
    vertex 35.129571456963 44.5431735097666 0.0
    vertex 35.129571456963 34.54317350976661 3.9999999999999996
  endloop
endfacet
facet normal 1.0 0.0 0.0
  outer loop
    vertex 35.129571456963 34.54317350976661 3.9999999999999996
    vertex 35.129571456963 44.5431735097666 0.0
    vertex 35.129571456963 34.54317350976661 23.000000000000004
  endloop
endfacet
facet normal 1.0 0.0 0.0
  outer loop
    vertex 35.129571456963 34.54317350976661 23.000000000000004
    vertex 35.129571456963 44.5431735097666 0.0
    vertex 35.129571456963 37.10000101419015 18.410768789819226
  endloop
endfacet
facet normal 1.0 0.0 0.0
  outer loop
    vertex 35.129571456963 34.54317350976661 23.000000000000004
    vertex 35.129571456963 37.10000101419015 18.410768789819226
    vertex 35.129571456963 37.01481557991283 19.057816402575536
  endloop
endfacet
facet normal 1.0 0.0 0.0
  outer loop
    vertex 35.129571456963 37.10000101419015 18.410768789819226
    vertex 35.129571456963 44.5431735097666 0.0
    vertex 35.129571456963 37.34975207045173 17.80781640257553
  endloop
endfacet
facet normal 1.0 0.0 0.0
  outer loop
    vertex 35.129571456963 37.34975207045173 17.80781640257553
    vertex 35.129571456963 44.5431735097666 0.0
    vertex 35.129571456963 37.747048626946466 17.290049449609164
  endloop
endfacet
facet normal 1.0 0.0 0.0
  outer loop
    vertex 35.129571456963 37.747048626946466 17.290049449609164
    vertex 35.129571456963 44.5431735097666 0.0
    vertex 35.129571456963 38.26481557991283 16.89275289311443
  endloop
endfacet
facet normal 1.0 0.0 0.0
  outer loop
    vertex 35.129571456963 38.26481557991283 16.89275289311443
    vertex 35.129571456963 44.5431735097666 0.0
    vertex 35.129571456963 38.867767967156524 16.64300183685286
  endloop
endfacet
facet normal 1.0 0.0 0.0
  outer loop
    vertex 35.129571456963 38.867767967156524 16.64300183685286
    vertex 35.129571456963 44.5431735097666 0.0
    vertex 35.129571456963 39.51481557991283 16.557816402575533
  endloop
endfacet
facet normal 1.0 0.0 0.0
  outer loop
    vertex 35.129571456963 39.51481557991283 16.557816402575533
    vertex 35.129571456963 44.5431735097666 0.0
    vertex 35.129571456963 40.161863192669124 16.64300183685286
  endloop
endfacet
facet normal 1.0 0.0 0.0
  outer loop
    vertex 35.129571456963 40.161863192669124 16.64300183685286
    vertex 35.129571456963 44.5431735097666 0.0
    vertex 35.129571456963 40.76481557991282 16.892752893114437
  endloop
endfacet
facet normal 1.0 0.0 0.0
  outer loop
    vertex 35.129571456963 40.76481557991282 16.892752893114437
    vertex 35.129571456963 44.5431735097666 0.0
    vertex 35.129571456963 41.28258253287919 17.29004944960917
  endloop
endfacet
facet normal 1.0 0.0 0.0
  outer loop
    vertex 35.129571456963 41.28258253287919 17.29004944960917
    vertex 35.129571456963 44.5431735097666 0.0
    vertex 35.129571456963 41.67987908937392 17.80781640257553
  endloop
endfacet
facet normal 1.0 0.0 0.0
  outer loop
    vertex 35.129571456963 41.67987908937392 17.80781640257553
    vertex 35.129571456963 44.5431735097666 0.0
    vertex 35.129571456963 41.929630145635485 18.410768789819226
  endloop
endfacet
facet normal 1.0 0.0 0.0
  outer loop
    vertex 35.129571456963 41.929630145635485 18.410768789819226
    vertex 35.129571456963 44.5431735097666 0.0
    vertex 35.129571456963 42.01481557991282 19.057816402575536
  endloop
endfacet
facet normal 1.0 0.0 0.0
  outer loop
    vertex 35.129571456963 34.54317350976661 23.000000000000004
    vertex 35.129571456963 38.867767967156524 21.472630968298194
    vertex 35.129571456963 44.5431735097666 23.000000000000004
  endloop
endfacet
facet normal 1.0 0.0 0.0
  outer loop
    vertex 35.129571456963 38.867767967156524 21.472630968298194
    vertex 35.129571456963 34.54317350976661 23.000000000000004
    vertex 35.129571456963 38.26481557991283 21.222879912036625
  endloop
endfacet
facet normal 1.0 0.0 0.0
  outer loop
    vertex 35.129571456963 38.26481557991283 21.222879912036625
    vertex 35.129571456963 34.54317350976661 23.000000000000004
    vertex 35.129571456963 37.747048626946466 20.82558335554189
  endloop
endfacet
facet normal 1.0 0.0 0.0
  outer loop
    vertex 35.129571456963 37.747048626946466 20.82558335554189
    vertex 35.129571456963 34.54317350976661 23.000000000000004
    vertex 35.129571456963 37.34975207045173 20.307816402575526
  endloop
endfacet
facet normal 1.0 0.0 0.0
  outer loop
    vertex 35.129571456963 37.34975207045173 20.307816402575526
    vertex 35.129571456963 34.54317350976661 23.000000000000004
    vertex 35.129571456963 37.10000101419016 19.704864015331825
  endloop
endfacet
facet normal 1.0 0.0 0.0
  outer loop
    vertex 35.129571456963 37.10000101419016 19.704864015331825
    vertex 35.129571456963 34.54317350976661 23.000000000000004
    vertex 35.129571456963 37.01481557991283 19.057816402575536
  endloop
endfacet
facet normal 1.0 0.0 0.0
  outer loop
    vertex 35.129571456963 44.5431735097666 23.000000000000004
    vertex 35.129571456963 38.867767967156524 21.472630968298194
    vertex 35.129571456963 39.51481557991283 21.557816402575526
  endloop
endfacet
facet normal 1.0 0.0 0.0
  outer loop
    vertex 35.129571456963 44.5431735097666 23.000000000000004
    vertex 35.129571456963 39.51481557991283 21.557816402575526
    vertex 35.129571456963 40.161863192669124 21.47263096829819
  endloop
endfacet
facet normal 1.0 0.0 0.0
  outer loop
    vertex 35.129571456963 44.5431735097666 23.000000000000004
    vertex 35.129571456963 40.161863192669124 21.47263096829819
    vertex 35.129571456963 40.764815579912835 21.22287991203661
  endloop
endfacet
facet normal 1.0 0.0 0.0
  outer loop
    vertex 35.129571456963 44.5431735097666 23.000000000000004
    vertex 35.129571456963 40.764815579912835 21.22287991203661
    vertex 35.129571456963 41.28258253287919 20.825583355541887
  endloop
endfacet
facet normal 1.0 0.0 0.0
  outer loop
    vertex 35.129571456963 44.5431735097666 23.000000000000004
    vertex 35.129571456963 41.28258253287919 20.825583355541887
    vertex 35.129571456963 41.67987908937392 20.30781640257553
  endloop
endfacet
facet normal 1.0 0.0 0.0
  outer loop
    vertex 35.129571456963 44.5431735097666 23.000000000000004
    vertex 35.129571456963 41.67987908937392 20.30781640257553
    vertex 35.129571456963 41.929630145635485 19.704864015331836
  endloop
endfacet
facet normal 1.0 0.0 0.0
  outer loop
    vertex 35.129571456963 44.5431735097666 23.000000000000004
    vertex 35.129571456963 41.929630145635485 19.704864015331836
    vertex 35.129571456963 42.01481557991282 19.057816402575536
  endloop
endfacet
facet normal 1.0 0.0 0.0
  outer loop
    vertex 35.129571456963 44.5431735097666 23.000000000000004
    vertex 35.129571456963 42.01481557991282 19.057816402575536
    vertex 35.129571456963 44.5431735097666 0.0
  endloop
endfacet
facet normal 1.0 0.0 0.0
  outer loop
    vertex 35.129571456963 34.54317350976661 0.9999999999999999
    vertex 35.129571456963 32.543173509766596 3.9999999999999996
    vertex 35.129571456963 32.543173509766596 0.9999999999999999
  endloop
endfacet
facet normal 1.0 0.0 0.0
  outer loop
    vertex 35.129571456963 32.543173509766596 3.9999999999999996
    vertex 35.129571456963 34.54317350976661 0.9999999999999999
    vertex 35.129571456963 34.54317350976661 3.9999999999999996
  endloop
endfacet
facet normal 0.0 1.0 0.0
  outer loop
    vertex 35.129571456963 34.54317350976661 0.9999999999999999
    vertex 56.629571456963 34.54317350976661 0.0
    vertex 35.129571456963 34.54317350976661 0.0
  endloop
endfacet
facet normal 0.0 1.0 0.0
  outer loop
    vertex 56.629571456963 34.54317350976661 0.0
    vertex 35.129571456963 34.54317350976661 0.9999999999999999
    vertex 56.629571456963 34.54317350976661 0.9999999999999999
  endloop
endfacet
facet normal -1.0 0.0 0.0
  outer loop
    vertex 31.379571456962992 34.54317350976661 23.000000000000004
    vertex 31.379571456962992 37.10000101419016 19.704864015331825
    vertex 31.379571456962992 34.54317350976661 3.9999999999999996
  endloop
endfacet
facet normal -1.0 0.0 0.0
  outer loop
    vertex 31.379571456962992 37.10000101419016 19.704864015331825
    vertex 31.379571456962992 34.54317350976661 23.000000000000004
    vertex 31.379571456962992 37.34975207045173 20.307816402575522
  endloop
endfacet
facet normal -1.0 0.0 0.0
  outer loop
    vertex 31.379571456962992 37.34975207045173 20.307816402575522
    vertex 31.379571456962992 34.54317350976661 23.000000000000004
    vertex 31.379571456962992 37.747048626946466 20.82558335554189
  endloop
endfacet
facet normal -1.0 0.0 0.0
  outer loop
    vertex 31.379571456962992 37.747048626946466 20.82558335554189
    vertex 31.379571456962992 34.54317350976661 23.000000000000004
    vertex 31.379571456962992 38.26481557991283 21.222879912036625
  endloop
endfacet
facet normal -1.0 0.0 0.0
  outer loop
    vertex 31.379571456962992 38.26481557991283 21.222879912036625
    vertex 31.379571456962992 34.54317350976661 23.000000000000004
    vertex 31.379571456962992 38.867767967156524 21.472630968298194
  endloop
endfacet
facet normal -1.0 0.0 0.0
  outer loop
    vertex 31.379571456962992 38.867767967156524 21.472630968298194
    vertex 31.379571456962992 34.54317350976661 23.000000000000004
    vertex 31.379571456962992 44.5431735097666 23.000000000000004
  endloop
endfacet
facet normal -1.0 0.0 0.0
  outer loop
    vertex 31.379571456962992 34.54317350976661 3.9999999999999996
    vertex 31.379571456962992 37.10000101419016 19.704864015331825
    vertex 31.379571456962992 37.01481557991283 19.057816402575536
  endloop
endfacet
facet normal -1.0 0.0 0.0
  outer loop
    vertex 31.379571456962992 38.867767967156524 21.472630968298194
    vertex 31.379571456962992 44.5431735097666 23.000000000000004
    vertex 31.379571456962992 39.51481557991283 21.557816402575526
  endloop
endfacet
facet normal -1.0 0.0 0.0
  outer loop
    vertex 31.379571456962992 39.51481557991283 21.557816402575526
    vertex 31.379571456962992 44.5431735097666 23.000000000000004
    vertex 31.379571456962992 40.161863192669124 21.47263096829819
  endloop
endfacet
facet normal -1.0 0.0 0.0
  outer loop
    vertex 31.379571456962992 40.161863192669124 21.47263096829819
    vertex 31.379571456962992 44.5431735097666 23.000000000000004
    vertex 31.379571456962992 40.764815579912835 21.22287991203661
  endloop
endfacet
facet normal -1.0 0.0 0.0
  outer loop
    vertex 31.379571456962992 40.764815579912835 21.22287991203661
    vertex 31.379571456962992 44.5431735097666 23.000000000000004
    vertex 31.379571456962992 41.28258253287919 20.825583355541895
  endloop
endfacet
facet normal -1.0 0.0 0.0
  outer loop
    vertex 31.379571456962992 41.28258253287919 20.825583355541895
    vertex 31.379571456962992 44.5431735097666 23.000000000000004
    vertex 31.379571456962992 41.67987908937392 20.30781640257553
  endloop
endfacet
facet normal -1.0 0.0 0.0
  outer loop
    vertex 31.379571456962992 41.67987908937392 20.30781640257553
    vertex 31.379571456962992 44.5431735097666 23.000000000000004
    vertex 31.379571456962992 41.929630145635485 19.704864015331836
  endloop
endfacet
facet normal -1.0 0.0 0.0
  outer loop
    vertex 31.379571456962992 41.929630145635485 19.704864015331836
    vertex 31.379571456962992 44.5431735097666 23.000000000000004
    vertex 31.379571456962992 42.01481557991282 19.057816402575536
  endloop
endfacet
facet normal -1.0 0.0 0.0
  outer loop
    vertex 31.379571456962992 0.04317350976661737 8.5
    vertex 31.379571456962992 44.5431735097666 0.0
    vertex 31.379571456962992 0.04317350976661716 0.0
  endloop
endfacet
facet normal -1.0 0.0 0.0
  outer loop
    vertex 31.379571456962992 44.5431735097666 0.0
    vertex 31.379571456962992 0.04317350976661737 8.5
    vertex 31.379571456962992 25.043173509766618 3.9999999999999996
  endloop
endfacet
facet normal -1.0 0.0 0.0
  outer loop
    vertex 31.379571456962992 25.043173509766618 3.9999999999999996
    vertex 31.379571456962992 0.04317350976661737 8.5
    vertex 31.379571456962992 25.043173509766618 8.499999999999998
  endloop
endfacet
facet normal -1.0 0.0 0.0
  outer loop
    vertex 31.379571456962992 44.5431735097666 0.0
    vertex 31.379571456962992 25.043173509766618 3.9999999999999996
    vertex 31.379571456962992 34.54317350976661 3.9999999999999996
  endloop
endfacet
facet normal -1.0 0.0 0.0
  outer loop
    vertex 31.379571456962992 44.5431735097666 0.0
    vertex 31.379571456962992 34.54317350976661 3.9999999999999996
    vertex 31.379571456962992 37.10000101419015 18.410768789819226
  endloop
endfacet
facet normal -1.0 0.0 0.0
  outer loop
    vertex 31.379571456962992 37.10000101419015 18.410768789819226
    vertex 31.379571456962992 34.54317350976661 3.9999999999999996
    vertex 31.379571456962992 37.01481557991283 19.057816402575536
  endloop
endfacet
facet normal -1.0 0.0 0.0
  outer loop
    vertex 31.379571456962992 44.5431735097666 0.0
    vertex 31.379571456962992 37.10000101419015 18.410768789819226
    vertex 31.379571456962992 37.34975207045173 17.80781640257553
  endloop
endfacet
facet normal -1.0 0.0 0.0
  outer loop
    vertex 31.379571456962992 44.5431735097666 0.0
    vertex 31.379571456962992 37.34975207045173 17.80781640257553
    vertex 31.379571456962992 37.747048626946466 17.290049449609157
  endloop
endfacet
facet normal -1.0 0.0 0.0
  outer loop
    vertex 31.379571456962992 44.5431735097666 0.0
    vertex 31.379571456962992 37.747048626946466 17.290049449609157
    vertex 31.379571456962992 38.26481557991283 16.89275289311443
  endloop
endfacet
facet normal -1.0 0.0 0.0
  outer loop
    vertex 31.379571456962992 44.5431735097666 0.0
    vertex 31.379571456962992 38.26481557991283 16.89275289311443
    vertex 31.379571456962992 38.867767967156524 16.64300183685286
  endloop
endfacet
facet normal -1.0 0.0 0.0
  outer loop
    vertex 31.379571456962992 44.5431735097666 0.0
    vertex 31.379571456962992 38.867767967156524 16.64300183685286
    vertex 31.379571456962992 39.51481557991283 16.557816402575533
  endloop
endfacet
facet normal -1.0 0.0 0.0
  outer loop
    vertex 31.379571456962992 44.5431735097666 0.0
    vertex 31.379571456962992 39.51481557991283 16.557816402575533
    vertex 31.379571456962992 40.161863192669124 16.643001836852864
  endloop
endfacet
facet normal -1.0 0.0 0.0
  outer loop
    vertex 31.379571456962992 44.5431735097666 0.0
    vertex 31.379571456962992 40.161863192669124 16.643001836852864
    vertex 31.379571456962992 40.76481557991282 16.892752893114437
  endloop
endfacet
facet normal -1.0 0.0 0.0
  outer loop
    vertex 31.379571456962992 44.5431735097666 0.0
    vertex 31.379571456962992 40.76481557991282 16.892752893114437
    vertex 31.379571456962992 41.28258253287919 17.290049449609164
  endloop
endfacet
facet normal -1.0 0.0 0.0
  outer loop
    vertex 31.379571456962992 44.5431735097666 0.0
    vertex 31.379571456962992 41.28258253287919 17.290049449609164
    vertex 31.379571456962992 41.67987908937392 17.80781640257553
  endloop
endfacet
facet normal -1.0 0.0 0.0
  outer loop
    vertex 31.379571456962992 44.5431735097666 0.0
    vertex 31.379571456962992 41.67987908937392 17.80781640257553
    vertex 31.379571456962992 41.929630145635485 18.410768789819226
  endloop
endfacet
facet normal -1.0 0.0 0.0
  outer loop
    vertex 31.379571456962992 44.5431735097666 0.0
    vertex 31.379571456962992 41.929630145635485 18.410768789819226
    vertex 31.379571456962992 42.01481557991282 19.057816402575536
  endloop
endfacet
facet normal -1.0 0.0 0.0
  outer loop
    vertex 31.379571456962992 44.5431735097666 0.0
    vertex 31.379571456962992 42.01481557991282 19.057816402575536
    vertex 31.379571456962992 44.5431735097666 23.000000000000004
  endloop
endfacet
facet normal -0.0 -1.0 -0.0
  outer loop
    vertex 60.37957145696299 0.04317350976661716 0.0
    vertex 56.629571456963 0.04317350976661716 0.9999999999999999
    vertex 31.379571456962992 0.04317350976661716 0.0
  endloop
endfacet
facet normal -0.0 -1.0 -0.0
  outer loop
    vertex 56.629571456963 0.04317350976661716 0.9999999999999999
    vertex 60.37957145696299 0.04317350976661716 0.0
    vertex 60.37957145696299 0.04317350976661737 8.5
  endloop
endfacet
facet normal -0.0 -1.0 -0.0
  outer loop
    vertex 56.629571456963 0.04317350976661716 0.9999999999999999
    vertex 60.37957145696299 0.04317350976661737 8.5
    vertex 56.629571456963 0.04317350976661737 8.5
  endloop
endfacet
facet normal -0.0 -1.0 -0.0
  outer loop
    vertex 31.379571456962992 0.04317350976661716 0.0
    vertex 35.129571456963 0.04317350976661716 0.9999999999999999
    vertex 31.379571456962992 0.04317350976661737 8.5
  endloop
endfacet
facet normal -0.0 -1.0 -0.0
  outer loop
    vertex 35.129571456963 0.04317350976661716 0.9999999999999999
    vertex 31.379571456962992 0.04317350976661716 0.0
    vertex 56.629571456963 0.04317350976661716 0.9999999999999999
  endloop
endfacet
facet normal -0.0 -1.0 -0.0
  outer loop
    vertex 31.379571456962992 0.04317350976661737 8.5
    vertex 35.129571456963 0.04317350976661716 0.9999999999999999
    vertex 35.129571456963 0.04317350976661737 8.5
  endloop
endfacet
facet normal 0.0 0.0 1.0
  outer loop
    vertex 35.129571456963 34.54317350976661 23.000000000000004
    vertex 31.379571456962992 44.5431735097666 23.000000000000004
    vertex 31.379571456962992 34.54317350976661 23.000000000000004
  endloop
endfacet
facet normal 0.0 0.0 1.0
  outer loop
    vertex 31.379571456962992 44.5431735097666 23.000000000000004
    vertex 35.129571456963 34.54317350976661 23.000000000000004
    vertex 35.129571456963 44.5431735097666 23.000000000000004
  endloop
endfacet
facet normal 0.0 -1.0 0.0
  outer loop
    vertex 35.129571456963 34.54317350976661 23.000000000000004
    vertex 31.379571456962992 34.54317350976661 3.9999999999999996
    vertex 35.129571456963 34.54317350976661 3.9999999999999996
  endloop
endfacet
facet normal 0.0 -1.0 0.0
  outer loop
    vertex 31.379571456962992 34.54317350976661 3.9999999999999996
    vertex 35.129571456963 34.54317350976661 23.000000000000004
    vertex 31.379571456962992 34.54317350976661 23.000000000000004
  endloop
endfacet
facet normal 1.0 0.0 0.0
  outer loop
    vertex 33.12957145696299 32.543173509766596 0.9999999999999999
    vertex 33.12957145696299 1.0431735097666177 8.0
    vertex 33.12957145696299 1.0431735097666175 0.9999999999999999
  endloop
endfacet
facet normal 1.0 0.0 0.0
  outer loop
    vertex 33.12957145696299 1.0431735097666177 8.0
    vertex 33.12957145696299 32.543173509766596 0.9999999999999999
    vertex 33.12957145696299 1.5431735097666168 8.0
  endloop
endfacet
facet normal 1.0 0.0 0.0
  outer loop
    vertex 33.12957145696299 1.5431735097666168 8.0
    vertex 33.12957145696299 32.543173509766596 0.9999999999999999
    vertex 33.12957145696299 1.5431735097666168 8.5
  endloop
endfacet
facet normal 1.0 0.0 0.0
  outer loop
    vertex 33.12957145696299 1.5431735097666168 8.5
    vertex 33.12957145696299 32.543173509766596 0.9999999999999999
    vertex 33.12957145696299 25.043173509766618 3.9999999999999996
  endloop
endfacet
facet normal 1.0 0.0 0.0
  outer loop
    vertex 33.12957145696299 25.043173509766618 3.9999999999999996
    vertex 33.12957145696299 32.543173509766596 0.9999999999999999
    vertex 33.12957145696299 32.543173509766596 3.9999999999999996
  endloop
endfacet
facet normal 1.0 0.0 0.0
  outer loop
    vertex 33.12957145696299 25.043173509766618 8.499999999999998
    vertex 33.12957145696299 1.5431735097666168 8.5
    vertex 33.12957145696299 25.043173509766618 3.9999999999999996
  endloop
endfacet
facet normal 0.0 0.0 1.0
  outer loop
    vertex 60.37957145696299 25.043173509766618 3.9999999999999996
    vertex 58.629571456963 32.543173509766596 3.9999999999999996
    vertex 58.629571456963 25.043173509766618 3.9999999999999996
  endloop
endfacet
facet normal 0.0 0.0 1.0
  outer loop
    vertex 58.629571456963 32.543173509766596 3.9999999999999996
    vertex 56.629571456963 34.54317350976661 3.9999999999999996
    vertex 56.629571456963 32.543173509766596 3.9999999999999996
  endloop
endfacet
facet normal 0.0 0.0 1.0
  outer loop
    vertex 56.629571456963 34.54317350976661 3.9999999999999996
    vertex 58.629571456963 32.543173509766596 3.9999999999999996
    vertex 60.37957145696299 34.54317350976661 3.9999999999999996
  endloop
endfacet
facet normal 0.0 0.0 1.0
  outer loop
    vertex 60.37957145696299 34.54317350976661 3.9999999999999996
    vertex 58.629571456963 32.543173509766596 3.9999999999999996
    vertex 60.37957145696299 25.043173509766618 3.9999999999999996
  endloop
endfacet
facet normal 0.0 -1.0 0.0
  outer loop
    vertex 60.37957145696299 34.54317350976661 23.000000000000004
    vertex 56.629571456963 34.54317350976661 3.9999999999999996
    vertex 60.37957145696299 34.54317350976661 3.9999999999999996
  endloop
endfacet
facet normal 0.0 -1.0 0.0
  outer loop
    vertex 56.629571456963 34.54317350976661 3.9999999999999996
    vertex 60.37957145696299 34.54317350976661 23.000000000000004
    vertex 56.629571456963 34.54317350976661 23.000000000000004
  endloop
endfacet
facet normal 0.0 -1.0 0.0
  outer loop
    vertex 58.629571456963 32.543173509766596 3.9999999999999996
    vertex 56.629571456963 32.543173509766596 0.9999999999999999
    vertex 58.629571456963 32.543173509766596 0.9999999999999999
  endloop
endfacet
facet normal 0.0 -1.0 0.0
  outer loop
    vertex 56.629571456963 32.543173509766596 0.9999999999999999
    vertex 58.629571456963 32.543173509766596 3.9999999999999996
    vertex 56.629571456963 32.543173509766596 3.9999999999999996
  endloop
endfacet
facet normal 0.0 0.0 1.0
  outer loop
    vertex 33.12957145696299 25.043173509766618 3.9999999999999996
    vertex 31.379571456962992 34.54317350976661 3.9999999999999996
    vertex 31.379571456962992 25.043173509766618 3.9999999999999996
  endloop
endfacet
facet normal 0.0 0.0 1.0
  outer loop
    vertex 31.379571456962992 34.54317350976661 3.9999999999999996
    vertex 33.12957145696299 25.043173509766618 3.9999999999999996
    vertex 33.12957145696299 32.543173509766596 3.9999999999999996
  endloop
endfacet
facet normal 0.0 0.0 1.0
  outer loop
    vertex 31.379571456962992 34.54317350976661 3.9999999999999996
    vertex 33.12957145696299 32.543173509766596 3.9999999999999996
    vertex 35.129571456963 34.54317350976661 3.9999999999999996
  endloop
endfacet
facet normal 0.0 0.0 1.0
  outer loop
    vertex 35.129571456963 34.54317350976661 3.9999999999999996
    vertex 33.12957145696299 32.543173509766596 3.9999999999999996
    vertex 35.129571456963 32.543173509766596 3.9999999999999996
  endloop
endfacet
facet normal -1.0 0.0 0.0
  outer loop
    vertex 56.629571456963 0.04317350976661737 8.5
    vertex 56.629571456963 1.0431735097666168 0.9999999999999999
    vertex 56.629571456963 0.04317350976661716 0.9999999999999999
  endloop
endfacet
facet normal -1.0 0.0 0.0
  outer loop
    vertex 56.629571456963 1.0431735097666168 0.9999999999999999
    vertex 56.629571456963 0.04317350976661737 8.5
    vertex 56.629571456963 1.0431735097666168 8.0
  endloop
endfacet
facet normal -1.0 0.0 0.0
  outer loop
    vertex 56.629571456963 1.0431735097666168 8.0
    vertex 56.629571456963 0.04317350976661737 8.5
    vertex 56.629571456963 1.5431735097666168 8.5
  endloop
endfacet
facet normal -1.0 0.0 0.0
  outer loop
    vertex 56.629571456963 1.0431735097666168 8.0
    vertex 56.629571456963 1.5431735097666168 8.5
    vertex 56.629571456963 1.5431735097666168 8.0
  endloop
endfacet
facet normal -1.0 0.0 0.0
  outer loop
    vertex 58.629571456963 25.043173509766618 8.499999999999998
    vertex 58.629571456963 1.5431735097666168 8.0
    vertex 58.629571456963 1.5431735097666168 8.5
  endloop
endfacet
facet normal -1.0 0.0 0.0
  outer loop
    vertex 58.629571456963 1.0431735097666177 8.0
    vertex 58.629571456963 32.543173509766596 0.9999999999999999
    vertex 58.629571456963 1.0431735097666175 0.9999999999999999
  endloop
endfacet
facet normal -1.0 0.0 0.0
  outer loop
    vertex 58.629571456963 32.543173509766596 0.9999999999999999
    vertex 58.629571456963 1.0431735097666177 8.0
    vertex 58.629571456963 1.5431735097666168 8.0
  endloop
endfacet
facet normal -1.0 0.0 0.0
  outer loop
    vertex 58.629571456963 32.543173509766596 0.9999999999999999
    vertex 58.629571456963 1.5431735097666168 8.0
    vertex 58.629571456963 25.043173509766618 3.9999999999999996
  endloop
endfacet
facet normal -1.0 0.0 0.0
  outer loop
    vertex 58.629571456963 25.043173509766618 3.9999999999999996
    vertex 58.629571456963 1.5431735097666168 8.0
    vertex 58.629571456963 25.043173509766618 8.499999999999998
  endloop
endfacet
facet normal -1.0 0.0 0.0
  outer loop
    vertex 58.629571456963 32.543173509766596 0.9999999999999999
    vertex 58.629571456963 25.043173509766618 3.9999999999999996
    vertex 58.629571456963 32.543173509766596 3.9999999999999996
  endloop
endfacet
facet normal -1.0 0.0 0.0
  outer loop
    vertex 56.629571456963 34.54317350976661 23.000000000000004
    vertex 56.629571456963 37.10000101419016 19.704864015331836
    vertex 56.629571456963 34.54317350976661 3.9999999999999996
  endloop
endfacet
facet normal -1.0 0.0 0.0
  outer loop
    vertex 56.629571456963 37.10000101419016 19.704864015331836
    vertex 56.629571456963 34.54317350976661 23.000000000000004
    vertex 56.629571456963 37.34975207045173 20.307816402575522
  endloop
endfacet
facet normal -1.0 0.0 0.0
  outer loop
    vertex 56.629571456963 37.34975207045173 20.307816402575522
    vertex 56.629571456963 34.54317350976661 23.000000000000004
    vertex 56.629571456963 37.747048626946466 20.82558335554189
  endloop
endfacet
facet normal -1.0 0.0 0.0
  outer loop
    vertex 56.629571456963 37.747048626946466 20.82558335554189
    vertex 56.629571456963 34.54317350976661 23.000000000000004
    vertex 56.629571456963 38.26481557991283 21.222879912036625
  endloop
endfacet
facet normal -1.0 0.0 0.0
  outer loop
    vertex 56.629571456963 38.26481557991283 21.222879912036625
    vertex 56.629571456963 34.54317350976661 23.000000000000004
    vertex 56.629571456963 38.867767967156524 21.472630968298194
  endloop
endfacet
facet normal -1.0 0.0 0.0
  outer loop
    vertex 56.629571456963 38.867767967156524 21.472630968298194
    vertex 56.629571456963 34.54317350976661 23.000000000000004
    vertex 56.629571456963 44.5431735097666 23.000000000000004
  endloop
endfacet
facet normal -1.0 0.0 0.0
  outer loop
    vertex 56.629571456963 34.54317350976661 3.9999999999999996
    vertex 56.629571456963 37.10000101419016 19.704864015331836
    vertex 56.629571456963 34.54317350976661 0.9999999999999999
  endloop
endfacet
facet normal -1.0 0.0 0.0
  outer loop
    vertex 56.629571456963 34.54317350976661 0.9999999999999999
    vertex 56.629571456963 37.10000101419016 19.704864015331836
    vertex 56.629571456963 37.01481557991283 19.057816402575536
  endloop
endfacet
facet normal -1.0 0.0 0.0
  outer loop
    vertex 56.629571456963 34.54317350976661 0.9999999999999999
    vertex 56.629571456963 37.01481557991283 19.057816402575536
    vertex 56.629571456963 34.54317350976661 0.0
  endloop
endfacet
facet normal -1.0 0.0 0.0
  outer loop
    vertex 56.629571456963 38.867767967156524 21.472630968298194
    vertex 56.629571456963 44.5431735097666 23.000000000000004
    vertex 56.629571456963 39.51481557991283 21.557816402575526
  endloop
endfacet
facet normal -1.0 0.0 0.0
  outer loop
    vertex 56.629571456963 39.51481557991283 21.557816402575526
    vertex 56.629571456963 44.5431735097666 23.000000000000004
    vertex 56.629571456963 40.161863192669124 21.472630968298194
  endloop
endfacet
facet normal -1.0 0.0 0.0
  outer loop
    vertex 56.629571456963 40.161863192669124 21.472630968298194
    vertex 56.629571456963 44.5431735097666 23.000000000000004
    vertex 56.629571456963 40.764815579912835 21.22287991203661
  endloop
endfacet
facet normal -1.0 0.0 0.0
  outer loop
    vertex 56.629571456963 40.764815579912835 21.22287991203661
    vertex 56.629571456963 44.5431735097666 23.000000000000004
    vertex 56.629571456963 41.28258253287919 20.825583355541887
  endloop
endfacet
facet normal -1.0 0.0 0.0
  outer loop
    vertex 56.629571456963 41.28258253287919 20.825583355541887
    vertex 56.629571456963 44.5431735097666 23.000000000000004
    vertex 56.629571456963 41.67987908937392 20.30781640257553
  endloop
endfacet
facet normal -1.0 0.0 0.0
  outer loop
    vertex 56.629571456963 41.67987908937392 20.30781640257553
    vertex 56.629571456963 44.5431735097666 23.000000000000004
    vertex 56.629571456963 41.929630145635485 19.704864015331836
  endloop
endfacet
facet normal -1.0 0.0 0.0
  outer loop
    vertex 56.629571456963 41.929630145635485 19.704864015331836
    vertex 56.629571456963 44.5431735097666 23.000000000000004
    vertex 56.629571456963 42.01481557991282 19.057816402575536
  endloop
endfacet
facet normal -1.0 0.0 0.0
  outer loop
    vertex 56.629571456963 34.54317350976661 0.0
    vertex 56.629571456963 37.10000101419015 18.410768789819226
    vertex 56.629571456963 44.5431735097666 0.0
  endloop
endfacet
facet normal -1.0 0.0 0.0
  outer loop
    vertex 56.629571456963 37.10000101419015 18.410768789819226
    vertex 56.629571456963 34.54317350976661 0.0
    vertex 56.629571456963 37.01481557991283 19.057816402575536
  endloop
endfacet
facet normal -1.0 0.0 0.0
  outer loop
    vertex 56.629571456963 44.5431735097666 0.0
    vertex 56.629571456963 37.10000101419015 18.410768789819226
    vertex 56.629571456963 37.34975207045173 17.807816402575533
  endloop
endfacet
facet normal -1.0 0.0 0.0
  outer loop
    vertex 56.629571456963 44.5431735097666 0.0
    vertex 56.629571456963 37.34975207045173 17.807816402575533
    vertex 56.629571456963 37.747048626946466 17.290049449609164
  endloop
endfacet
facet normal -1.0 0.0 0.0
  outer loop
    vertex 56.629571456963 44.5431735097666 0.0
    vertex 56.629571456963 37.747048626946466 17.290049449609164
    vertex 56.629571456963 38.26481557991283 16.89275289311443
  endloop
endfacet
facet normal -1.0 0.0 0.0
  outer loop
    vertex 56.629571456963 44.5431735097666 0.0
    vertex 56.629571456963 38.26481557991283 16.89275289311443
    vertex 56.629571456963 38.867767967156524 16.64300183685286
  endloop
endfacet
facet normal -1.0 0.0 0.0
  outer loop
    vertex 56.629571456963 44.5431735097666 0.0
    vertex 56.629571456963 38.867767967156524 16.64300183685286
    vertex 56.629571456963 39.51481557991283 16.557816402575533
  endloop
endfacet
facet normal -1.0 0.0 0.0
  outer loop
    vertex 56.629571456963 44.5431735097666 0.0
    vertex 56.629571456963 39.51481557991283 16.557816402575533
    vertex 56.629571456963 40.161863192669124 16.643001836852864
  endloop
endfacet
facet normal -1.0 0.0 0.0
  outer loop
    vertex 56.629571456963 44.5431735097666 0.0
    vertex 56.629571456963 40.161863192669124 16.643001836852864
    vertex 56.629571456963 40.764815579912835 16.89275289311445
  endloop
endfacet
facet normal -1.0 0.0 0.0
  outer loop
    vertex 56.629571456963 44.5431735097666 0.0
    vertex 56.629571456963 40.764815579912835 16.89275289311445
    vertex 56.629571456963 41.28258253287919 17.29004944960917
  endloop
endfacet
facet normal -1.0 0.0 0.0
  outer loop
    vertex 56.629571456963 44.5431735097666 0.0
    vertex 56.629571456963 41.28258253287919 17.29004944960917
    vertex 56.629571456963 41.67987908937392 17.80781640257553
  endloop
endfacet
facet normal -1.0 0.0 0.0
  outer loop
    vertex 56.629571456963 44.5431735097666 0.0
    vertex 56.629571456963 41.67987908937392 17.80781640257553
    vertex 56.629571456963 41.929630145635485 18.410768789819226
  endloop
endfacet
facet normal -1.0 0.0 0.0
  outer loop
    vertex 56.629571456963 44.5431735097666 0.0
    vertex 56.629571456963 41.929630145635485 18.410768789819226
    vertex 56.629571456963 42.01481557991282 19.057816402575536
  endloop
endfacet
facet normal -1.0 0.0 0.0
  outer loop
    vertex 56.629571456963 44.5431735097666 0.0
    vertex 56.629571456963 42.01481557991282 19.057816402575536
    vertex 56.629571456963 44.5431735097666 23.000000000000004
  endloop
endfacet
facet normal -1.0 0.0 0.0
  outer loop
    vertex 56.629571456963 34.54317350976661 3.9999999999999996
    vertex 56.629571456963 32.543173509766596 0.9999999999999999
    vertex 56.629571456963 32.543173509766596 3.9999999999999996
  endloop
endfacet
facet normal -1.0 0.0 0.0
  outer loop
    vertex 56.629571456963 32.543173509766596 0.9999999999999999
    vertex 56.629571456963 34.54317350976661 3.9999999999999996
    vertex 56.629571456963 34.54317350976661 0.9999999999999999
  endloop
endfacet
facet normal 0.0 0.0 1.0
  outer loop
    vertex 60.37957145696299 34.54317350976661 23.000000000000004
    vertex 56.629571456963 44.5431735097666 23.000000000000004
    vertex 56.629571456963 34.54317350976661 23.000000000000004
  endloop
endfacet
facet normal 0.0 0.0 1.0
  outer loop
    vertex 56.629571456963 44.5431735097666 23.000000000000004
    vertex 60.37957145696299 34.54317350976661 23.000000000000004
    vertex 60.37957145696299 44.5431735097666 23.000000000000004
  endloop
endfacet
facet normal -0.002030733818721447 0.0 0.999997938057953
  outer loop
    vertex 40.129571456963 14.587012640587496 1.0101536900299277
    vertex 35.129571456963 34.54317350976661 0.9999999999999999
    vertex 35.129571456963 32.543173509766596 0.9999999999999999
  endloop
endfacet
facet normal 0.0003918478042588969 0.000674583283679976 0.9999996956962995
  outer loop
    vertex 40.129571456963 14.587012640587496 1.0101536900299277
    vertex 35.129571456963 32.543173509766596 0.9999999999999999
    vertex 33.83110901558942 32.54317376864374 1.0005087996367603
  endloop
endfacet
facet normal -3.5249581031848787e-16 1.0 -2.5178272165606226e-17
  outer loop
    vertex 56.629571456963 1.0431735097666168 8.0
    vertex 58.629571456963 1.0431735097666175 0.9999999999999999
    vertex 56.629571456963 1.0431735097666168 0.9999999999999999
  endloop
endfacet
facet normal -3.5249581031848787e-16 1.0 -2.5178272165606226e-17
  outer loop
    vertex 58.629571456963 1.0431735097666175 0.9999999999999999
    vertex 56.629571456963 1.0431735097666168 8.0
    vertex 58.629571456963 1.0431735097666177 8.0
  endloop
endfacet
facet normal -0.0017527419537034794 -9.931552123706335e-05 0.9999984590148482
  outer loop
    vertex 35.129571456963 1.0431735097666168 0.9999999999999999
    vertex 33.83110901558942 32.54317376864374 1.0005087996367603
    vertex 33.24897444203762 32.543173509766596 0.9999999999999999
  endloop
endfacet
facet normal -0.0017527419537034794 -9.931552123706335e-05 0.9999984590148482
  outer loop
    vertex 33.83110901558942 32.54317376864374 1.0005087996367603
    vertex 35.129571456963 1.0431735097666168 0.9999999999999999
    vertex 40.129571456963 14.587012640587496 1.0101536900299277
  endloop
endfacet
facet normal 1.6114094185988014e-15 1.0 0.0
  outer loop
    vertex 58.629571456963 25.043173509766618 8.499999999999998
    vertex 60.37957145696299 25.043173509766618 3.9999999999999996
    vertex 58.629571456963 25.043173509766618 3.9999999999999996
  endloop
endfacet
facet normal 1.6114094185988014e-15 1.0 0.0
  outer loop
    vertex 60.37957145696299 25.043173509766618 3.9999999999999996
    vertex 58.629571456963 25.043173509766618 8.499999999999998
    vertex 60.37957145696299 25.043173509766618 8.499999999999998
  endloop
endfacet
facet normal 0.0 1.0 0.0
  outer loop
    vertex 33.12957145696299 1.5431735097666168 8.5
    vertex 35.129571456963 1.5431735097666168 8.0
    vertex 33.12957145696299 1.5431735097666168 8.0
  endloop
endfacet
facet normal 0.0 1.0 0.0
  outer loop
    vertex 35.129571456963 1.5431735097666168 8.0
    vertex 33.12957145696299 1.5431735097666168 8.5
    vertex 35.129571456963 1.5431735097666168 8.5
  endloop
endfacet
facet normal 0.0 1.0 0.0
  outer loop
    vertex 31.379571456962992 25.043173509766618 8.499999999999998
    vertex 33.12957145696299 25.043173509766618 3.9999999999999996
    vertex 31.379571456962992 25.043173509766618 3.9999999999999996
  endloop
endfacet
facet normal 0.0 1.0 0.0
  outer loop
    vertex 33.12957145696299 25.043173509766618 3.9999999999999996
    vertex 31.379571456962992 25.043173509766618 8.499999999999998
    vertex 33.12957145696299 25.043173509766618 8.499999999999998
  endloop
endfacet
facet normal 0.0 0.0 1.0
  outer loop
    vertex 35.129571456963 1.0431735097666168 0.9999999999999999
    vertex 33.12957145696299 32.543173509766596 0.9999999999999999
    vertex 33.12957145696299 1.0431735097666175 0.9999999999999999
  endloop
endfacet
facet normal 0.0 0.0 1.0
  outer loop
    vertex 33.12957145696299 32.543173509766596 0.9999999999999999
    vertex 35.129571456963 1.0431735097666168 0.9999999999999999
    vertex 33.24897444203762 32.543173509766596 0.9999999999999999
  endloop
endfacet
facet normal 0.0 0.0 -1.0
  outer loop
    vertex 35.129571456963 1.5431735097666168 8.0
    vertex 33.12957145696299 1.0431735097666177 8.0
    vertex 33.12957145696299 1.5431735097666168 8.0
  endloop
endfacet
facet normal 0.0 0.0 -1.0
  outer loop
    vertex 33.12957145696299 1.0431735097666177 8.0
    vertex 35.129571456963 1.5431735097666168 8.0
    vertex 35.129571456963 1.0431735097666168 8.0
  endloop
endfacet
facet normal 0.0 1.0 0.0
  outer loop
    vertex 56.629571456963 1.5431735097666168 8.5
    vertex 58.629571456963 1.5431735097666168 8.0
    vertex 56.629571456963 1.5431735097666168 8.0
  endloop
endfacet
facet normal 0.0 1.0 0.0
  outer loop
    vertex 58.629571456963 1.5431735097666168 8.0
    vertex 56.629571456963 1.5431735097666168 8.5
    vertex 58.629571456963 1.5431735097666168 8.5
  endloop
endfacet
facet normal 0.0 0.0 -1.0
  outer loop
    vertex 58.629571456963 1.5431735097666168 8.0
    vertex 56.629571456963 1.0431735097666168 8.0
    vertex 56.629571456963 1.5431735097666168 8.0
  endloop
endfacet
facet normal 0.0 0.0 -1.0
  outer loop
    vertex 56.629571456963 1.0431735097666168 8.0
    vertex 58.629571456963 1.5431735097666168 8.0
    vertex 58.629571456963 1.0431735097666177 8.0
  endloop
endfacet
facet normal 0.00011875662749722786 -9.16630764607303e-06 0.9999999929064212
  outer loop
    vertex 56.629571456963 0.04317350976661716 0.9999999999999999
    vertex 35.129571456963 1.0431735097666168 0.9999999999999999
    vertex 35.129571456963 0.04317350976661716 0.9999999999999999
  endloop
endfacet
facet normal 0.00011875662749722786 -9.16630764607303e-06 0.9999999929064212
  outer loop
    vertex 35.129571456963 1.0431735097666168 0.9999999999999999
    vertex 56.629571456963 0.04317350976661716 0.9999999999999999
    vertex 40.129571456963 5.043173509766616 1.00126921125374
  endloop
endfacet
facet normal 0.00011875662749722786 -9.16630764607303e-06 0.9999999929064212
  outer loop
    vertex 40.129571456963 5.043173509766616 1.00126921125374
    vertex 56.629571456963 0.04317350976661716 0.9999999999999999
    vertex 51.629571456963 5.043173509766616 1.0025384225074807
  endloop
endfacet
facet normal 0.00011875662749722786 -9.16630764607303e-06 0.9999999929064212
  outer loop
    vertex 51.629571456963 5.043173509766616 1.0025384225074807
    vertex 56.629571456963 0.04317350976661716 0.9999999999999999
    vertex 51.629571456963 14.587012640587496 1.0050768450149623
  endloop
endfacet
facet normal 0.00011875662749722786 -9.16630764607303e-06 0.9999999929064212
  outer loop
    vertex 58.629571456963 1.0431735097666175 0.9999999999999999
    vertex 56.629571456963 32.543173509766596 0.9999999999999999
    vertex 56.629571456963 1.0431735097666168 0.9999999999999999
  endloop
endfacet
facet normal 0.00011875662749722786 -9.16630764607303e-06 0.9999999929064212
  outer loop
    vertex 56.629571456963 32.543173509766596 0.9999999999999999
    vertex 58.629571456963 1.0431735097666175 0.9999999999999999
    vertex 58.629571456963 32.543173509766596 0.9999999999999999
  endloop
endfacet
facet normal 0.00011875662749722786 -9.16630764607303e-06 0.9999999929064212
  outer loop
    vertex 40.129571456963 14.587012640587496 1.0101536900299277
    vertex 56.629571456963 34.54317350976661 0.9999999999999999
    vertex 35.129571456963 34.54317350976661 0.9999999999999999
  endloop
endfacet
facet normal 0.00011875662749722786 -9.16630764607303e-06 0.9999999929064212
  outer loop
    vertex 56.629571456963 34.54317350976661 0.9999999999999999
    vertex 40.129571456963 14.587012640587496 1.0101536900299277
    vertex 51.629571456963 14.587012640587496 1.0050768450149623
  endloop
endfacet
facet normal 0.00011875662749722786 -9.16630764607303e-06 0.9999999929064212
  outer loop
    vertex 56.629571456963 34.54317350976661 0.9999999999999999
    vertex 51.629571456963 14.587012640587496 1.0050768450149623
    vertex 56.629571456963 0.04317350976661716 0.9999999999999999
  endloop
endfacet
facet normal 0.00011875662749722786 -9.16630764607303e-06 0.9999999929064212
  outer loop
    vertex 56.629571456963 34.54317350976661 0.9999999999999999
    vertex 56.629571456963 0.04317350976661716 0.9999999999999999
    vertex 56.629571456963 1.0431735097666168 0.9999999999999999
  endloop
endfacet
facet normal 0.00011875662749722786 -9.16630764607303e-06 0.9999999929064212
  outer loop
    vertex 56.629571456963 34.54317350976661 0.9999999999999999
    vertex 56.629571456963 1.0431735097666168 0.9999999999999999
    vertex 56.629571456963 32.543173509766596 0.9999999999999999
  endloop
endfacet
facet normal 0.00011875662749722786 -9.16630764607303e-06 0.9999999929064212
  outer loop
    vertex 40.129571456963 14.587012640587496 1.0101536900299277
    vertex 35.129571456963 1.0431735097666168 0.9999999999999999
    vertex 40.129571456963 5.043173509766616 1.00126921125374
  endloop
endfacet
facet normal 0.0 0.9914448613738096 -0.13052619222005837
  outer loop
    vertex 31.379571456962992 37.10000101419016 19.704864015331825
    vertex 35.129571456963 37.01481557991283 19.057816402575536
    vertex 31.379571456962992 37.01481557991283 19.057816402575536
  endloop
endfacet
facet normal 0.0 0.9914448613738096 -0.13052619222005837
  outer loop
    vertex 35.129571456963 37.01481557991283 19.057816402575536
    vertex 31.379571456962992 37.10000101419016 19.704864015331825
    vertex 35.129571456963 37.10000101419016 19.704864015331825
  endloop
endfacet
facet normal 0.0 0.13052619222005613 -0.9914448613738098
  outer loop
    vertex 35.129571456963 39.51481557991283 21.557816402575526
    vertex 31.379571456962992 38.867767967156524 21.472630968298194
    vertex 31.379571456962992 39.51481557991283 21.557816402575526
  endloop
endfacet
facet normal 0.0 0.13052619222005613 -0.9914448613738098
  outer loop
    vertex 31.379571456962992 38.867767967156524 21.472630968298194
    vertex 35.129571456963 39.51481557991283 21.557816402575526
    vertex 35.129571456963 38.867767967156524 21.472630968298194
  endloop
endfacet
facet normal 0.0 0.9238795325112865 0.3826834323650902
  outer loop
    vertex 31.379571456962992 37.10000101419015 18.410768789819226
    vertex 35.129571456963 37.34975207045173 17.80781640257553
    vertex 31.379571456962992 37.34975207045173 17.80781640257553
  endloop
endfacet
facet normal 0.0 0.9238795325112865 0.3826834323650902
  outer loop
    vertex 35.129571456963 37.34975207045173 17.80781640257553
    vertex 31.379571456962992 37.10000101419015 18.410768789819226
    vertex 35.129571456963 37.10000101419015 18.410768789819226
  endloop
endfacet
facet normal 0.0 -0.38268343236509517 -0.9238795325112846
  outer loop
    vertex 35.129571456963 40.764815579912835 21.22287991203661
    vertex 31.379571456962992 40.161863192669124 21.47263096829819
    vertex 31.379571456962992 40.764815579912835 21.22287991203661
  endloop
endfacet
facet normal 0.0 -0.38268343236509517 -0.9238795325112846
  outer loop
    vertex 31.379571456962992 40.161863192669124 21.47263096829819
    vertex 35.129571456963 40.764815579912835 21.22287991203661
    vertex 35.129571456963 40.161863192669124 21.47263096829819
  endloop
endfacet
facet normal 0.0 -0.9914448613738089 0.13052619222006295
  outer loop
    vertex 35.129571456963 42.01481557991282 19.057816402575536
    vertex 31.379571456962992 41.929630145635485 18.410768789819226
    vertex 35.129571456963 41.929630145635485 18.410768789819226
  endloop
endfacet
facet normal 0.0 -0.9914448613738089 0.13052619222006295
  outer loop
    vertex 31.379571456962992 41.929630145635485 18.410768789819226
    vertex 35.129571456963 42.01481557991282 19.057816402575536
    vertex 31.379571456962992 42.01481557991282 19.057816402575536
  endloop
endfacet
facet normal 0.0 0.6087614290087251 -0.7933533402912317
  outer loop
    vertex 35.129571456963 38.26481557991283 21.222879912036625
    vertex 31.379571456962992 37.747048626946466 20.82558335554189
    vertex 31.379571456962992 38.26481557991283 21.222879912036625
  endloop
endfacet
facet normal 0.0 0.6087614290087251 -0.7933533402912317
  outer loop
    vertex 31.379571456962992 37.747048626946466 20.82558335554189
    vertex 35.129571456963 38.26481557991283 21.222879912036625
    vertex 35.129571456963 37.747048626946466 20.82558335554189
  endloop
endfacet
facet normal 3.492561876959972e-16 0.3826834323650878 0.9238795325112876
  outer loop
    vertex 35.129571456963 38.26481557991283 16.89275289311443
    vertex 31.379571456962992 38.867767967156524 16.64300183685286
    vertex 31.379571456962992 38.26481557991283 16.89275289311443
  endloop
endfacet
facet normal 3.492561876959972e-16 0.3826834323650878 0.9238795325112876
  outer loop
    vertex 31.379571456962992 38.867767967156524 16.64300183685286
    vertex 35.129571456963 38.26481557991283 16.89275289311443
    vertex 35.129571456963 38.867767967156524 16.64300183685286
  endloop
endfacet
facet normal 2.297738076943541e-18 0.3826834323650897 -0.9238795325112868
  outer loop
    vertex 60.37957145696299 38.867767967156524 21.472630968298194
    vertex 56.629571456963 38.26481557991283 21.222879912036625
    vertex 56.629571456963 38.867767967156524 21.472630968298194
  endloop
endfacet
facet normal 2.297738076943541e-18 0.3826834323650897 -0.9238795325112868
  outer loop
    vertex 56.629571456963 38.26481557991283 21.222879912036625
    vertex 60.37957145696299 38.867767967156524 21.472630968298194
    vertex 60.37957145696299 38.26481557991283 21.222879912036625
  endloop
endfacet
facet normal 1.1809812669906275e-30 0.13052619222005613 -0.9914448613738098
  outer loop
    vertex 60.37957145696299 39.51481557991283 21.557816402575526
    vertex 56.629571456963 38.867767967156524 21.472630968298194
    vertex 56.629571456963 39.51481557991283 21.557816402575526
  endloop
endfacet
facet normal 1.1809812669906275e-30 0.13052619222005613 -0.9914448613738098
  outer loop
    vertex 56.629571456963 38.867767967156524 21.472630968298194
    vertex 60.37957145696299 39.51481557991283 21.557816402575526
    vertex 60.37957145696299 38.867767967156524 21.472630968298194
  endloop
endfacet
facet normal 1.053114717720721e-15 -0.7933533402912291 -0.6087614290087285
  outer loop
    vertex 60.37957145696299 41.28258253287919 20.825583355541895
    vertex 56.629571456963 41.67987908937392 20.30781640257553
    vertex 60.37957145696299 41.67987908937392 20.30781640257553
  endloop
endfacet
facet normal 1.053114717720721e-15 -0.7933533402912291 -0.6087614290087285
  outer loop
    vertex 56.629571456963 41.67987908937392 20.30781640257553
    vertex 60.37957145696299 41.28258253287919 20.825583355541895
    vertex 56.629571456963 41.28258253287919 20.825583355541887
  endloop
endfacet
facet normal 1.731230939645069e-30 0.382683432365086 0.9238795325112884
  outer loop
    vertex 60.37957145696299 38.26481557991283 16.89275289311443
    vertex 56.629571456963 38.867767967156524 16.64300183685286
    vertex 56.629571456963 38.26481557991283 16.89275289311443
  endloop
endfacet
facet normal 1.731230939645069e-30 0.382683432365086 0.9238795325112884
  outer loop
    vertex 56.629571456963 38.867767967156524 16.64300183685286
    vertex 60.37957145696299 38.26481557991283 16.89275289311443
    vertex 60.37957145696299 38.867767967156524 16.64300183685286
  endloop
endfacet
facet normal 1.3864518283397356e-16 0.6087614290087244 0.7933533402912323
  outer loop
    vertex 60.37957145696299 37.747048626946466 17.290049449609157
    vertex 56.629571456963 38.26481557991283 16.89275289311443
    vertex 56.629571456963 37.747048626946466 17.290049449609164
  endloop
endfacet
facet normal 1.3864518283397356e-16 0.6087614290087244 0.7933533402912323
  outer loop
    vertex 56.629571456963 38.26481557991283 16.89275289311443
    vertex 60.37957145696299 37.747048626946466 17.290049449609157
    vertex 60.37957145696299 38.26481557991283 16.89275289311443
  endloop
endfacet
facet normal 2.742953301730824e-16 -0.13052619222005346 0.9914448613738103
  outer loop
    vertex 60.37957145696299 39.51481557991283 16.557816402575533
    vertex 56.629571456963 40.161863192669124 16.643001836852864
    vertex 56.629571456963 39.51481557991283 16.557816402575533
  endloop
endfacet
facet normal 2.742953301730824e-16 -0.13052619222005346 0.9914448613738103
  outer loop
    vertex 56.629571456963 40.161863192669124 16.643001836852864
    vertex 60.37957145696299 39.51481557991283 16.557816402575533
    vertex 60.37957145696299 40.161863192669124 16.64300183685286
  endloop
endfacet
facet normal -1.903508548504465e-18 0.9238795325112878 -0.38268343236508745
  outer loop
    vertex 56.629571456963 37.34975207045173 20.307816402575522
    vertex 60.37957145696299 37.10000101419016 19.704864015331836
    vertex 56.629571456963 37.10000101419016 19.704864015331836
  endloop
endfacet
facet normal -1.903508548504465e-18 0.9238795325112878 -0.38268343236508745
  outer loop
    vertex 60.37957145696299 37.10000101419016 19.704864015331836
    vertex 56.629571456963 37.34975207045173 20.307816402575522
    vertex 60.37957145696299 37.34975207045173 20.307816402575522
  endloop
endfacet
facet normal 1.2328883415050196e-18 0.13052619222005185 0.9914448613738105
  outer loop
    vertex 60.37957145696299 38.867767967156524 16.64300183685286
    vertex 56.629571456963 39.51481557991283 16.557816402575533
    vertex 56.629571456963 38.867767967156524 16.64300183685286
  endloop
endfacet
facet normal 1.2328883415050196e-18 0.13052619222005185 0.9914448613738105
  outer loop
    vertex 56.629571456963 39.51481557991283 16.557816402575533
    vertex 60.37957145696299 38.867767967156524 16.64300183685286
    vertex 60.37957145696299 39.51481557991283 16.557816402575533
  endloop
endfacet
facet normal -5.95879950277343e-16 -0.6087614290087239 -0.7933533402912326
  outer loop
    vertex 35.129571456963 41.28258253287919 20.825583355541887
    vertex 31.379571456962992 40.764815579912835 21.22287991203661
    vertex 31.379571456962992 41.28258253287919 20.825583355541895
  endloop
endfacet
facet normal -5.95879950277343e-16 -0.6087614290087239 -0.7933533402912326
  outer loop
    vertex 31.379571456962992 40.764815579912835 21.22287991203661
    vertex 35.129571456963 41.28258253287919 20.825583355541887
    vertex 35.129571456963 40.764815579912835 21.22287991203661
  endloop
endfacet
facet normal 3.7233227913383656e-16 0.13052619222004977 0.9914448613738107
  outer loop
    vertex 35.129571456963 38.867767967156524 16.64300183685286
    vertex 31.379571456962992 39.51481557991283 16.557816402575533
    vertex 31.379571456962992 38.867767967156524 16.64300183685286
  endloop
endfacet
facet normal 3.7233227913383656e-16 0.13052619222004977 0.9914448613738107
  outer loop
    vertex 31.379571456962992 39.51481557991283 16.557816402575533
    vertex 35.129571456963 38.867767967156524 16.64300183685286
    vertex 35.129571456963 39.51481557991283 16.557816402575533
  endloop
endfacet
facet normal 0.0 -0.9914448613738098 -0.1305261922200567
  outer loop
    vertex 35.129571456963 41.929630145635485 19.704864015331836
    vertex 31.379571456962992 42.01481557991282 19.057816402575536
    vertex 35.129571456963 42.01481557991282 19.057816402575536
  endloop
endfacet
facet normal 0.0 -0.9914448613738098 -0.1305261922200567
  outer loop
    vertex 31.379571456962992 42.01481557991282 19.057816402575536
    vertex 35.129571456963 41.929630145635485 19.704864015331836
    vertex 31.379571456962992 41.929630145635485 19.704864015331836
  endloop
endfacet
facet normal 0.0 -0.9238795325112897 0.3826834323650829
  outer loop
    vertex 35.129571456963 41.929630145635485 18.410768789819226
    vertex 31.379571456962992 41.67987908937392 17.80781640257553
    vertex 35.129571456963 41.67987908937392 17.80781640257553
  endloop
endfacet
facet normal 0.0 -0.9238795325112897 0.3826834323650829
  outer loop
    vertex 31.379571456962992 41.67987908937392 17.80781640257553
    vertex 35.129571456963 41.929630145635485 18.410768789819226
    vertex 31.379571456962992 41.929630145635485 18.410768789819226
  endloop
endfacet
facet normal -1.3864518283397223e-16 0.6087614290087244 0.7933533402912323
  outer loop
    vertex 35.129571456963 37.747048626946466 17.290049449609164
    vertex 31.379571456962992 38.26481557991283 16.89275289311443
    vertex 31.379571456962992 37.747048626946466 17.290049449609157
  endloop
endfacet
facet normal -1.3864518283397223e-16 0.6087614290087244 0.7933533402912323
  outer loop
    vertex 31.379571456962992 38.26481557991283 16.89275289311443
    vertex 35.129571456963 37.747048626946466 17.290049449609164
    vertex 35.129571456963 38.26481557991283 16.89275289311443
  endloop
endfacet
facet normal 1.3864518283396771e-16 0.7933533402912298 0.6087614290087279
  outer loop
    vertex 31.379571456962992 37.34975207045173 17.80781640257553
    vertex 35.129571456963 37.747048626946466 17.290049449609164
    vertex 31.379571456962992 37.747048626946466 17.290049449609157
  endloop
endfacet
facet normal 1.3864518283396771e-16 0.7933533402912298 0.6087614290087279
  outer loop
    vertex 35.129571456963 37.747048626946466 17.290049449609164
    vertex 31.379571456962992 37.34975207045173 17.80781640257553
    vertex 35.129571456963 37.34975207045173 17.80781640257553
  endloop
endfacet
facet normal -1.053114717720714e-15 -0.7933533402912291 -0.6087614290087286
  outer loop
    vertex 35.129571456963 41.28258253287919 20.825583355541887
    vertex 31.379571456962992 41.67987908937392 20.30781640257553
    vertex 35.129571456963 41.67987908937392 20.30781640257553
  endloop
endfacet
facet normal -1.053114717720714e-15 -0.7933533402912291 -0.6087614290087286
  outer loop
    vertex 31.379571456962992 41.67987908937392 20.30781640257553
    vertex 35.129571456963 41.28258253287919 20.825583355541887
    vertex 31.379571456962992 41.28258253287919 20.825583355541895
  endloop
endfacet
facet normal 0.0 -0.13052619222005923 -0.9914448613738094
  outer loop
    vertex 35.129571456963 40.161863192669124 21.47263096829819
    vertex 31.379571456962992 39.51481557991283 21.557816402575526
    vertex 31.379571456962992 40.161863192669124 21.47263096829819
  endloop
endfacet
facet normal 0.0 -0.13052619222005923 -0.9914448613738094
  outer loop
    vertex 31.379571456962992 39.51481557991283 21.557816402575526
    vertex 35.129571456963 40.161863192669124 21.47263096829819
    vertex 35.129571456963 39.51481557991283 21.557816402575526
  endloop
endfacet
facet normal -8.845817847896557e-17 -0.7933533402912301 0.6087614290087275
  outer loop
    vertex 35.129571456963 41.28258253287919 17.29004944960917
    vertex 31.379571456962992 41.67987908937392 17.80781640257553
    vertex 31.379571456962992 41.28258253287919 17.290049449609164
  endloop
endfacet
facet normal -8.845817847896557e-17 -0.7933533402912301 0.6087614290087275
  outer loop
    vertex 31.379571456962992 41.67987908937392 17.80781640257553
    vertex 35.129571456963 41.28258253287919 17.29004944960917
    vertex 35.129571456963 41.67987908937392 17.80781640257553
  endloop
endfacet
facet normal 5.952865879474093e-17 -0.3826834323650936 0.9238795325112852
  outer loop
    vertex 35.129571456963 40.161863192669124 16.64300183685286
    vertex 31.379571456962992 40.76481557991282 16.892752893114437
    vertex 31.379571456962992 40.161863192669124 16.643001836852864
  endloop
endfacet
facet normal 5.952865879474093e-17 -0.3826834323650936 0.9238795325112852
  outer loop
    vertex 31.379571456962992 40.76481557991282 16.892752893114437
    vertex 35.129571456963 40.161863192669124 16.64300183685286
    vertex 35.129571456963 40.76481557991282 16.892752893114437
  endloop
endfacet
facet normal 0.0 0.38268343236508967 -0.9238795325112868
  outer loop
    vertex 35.129571456963 38.867767967156524 21.472630968298194
    vertex 31.379571456962992 38.26481557991283 21.222879912036625
    vertex 31.379571456962992 38.867767967156524 21.472630968298194
  endloop
endfacet
facet normal 0.0 0.38268343236508967 -0.9238795325112868
  outer loop
    vertex 31.379571456962992 38.26481557991283 21.222879912036625
    vertex 35.129571456963 38.867767967156524 21.472630968298194
    vertex 35.129571456963 38.26481557991283 21.222879912036625
  endloop
endfacet
facet normal 4.045835998652966e-16 -0.9238795325112881 -0.3826834323650865
  outer loop
    vertex 60.37957145696299 41.67987908937392 20.30781640257553
    vertex 56.629571456963 41.929630145635485 19.704864015331836
    vertex 60.37957145696299 41.929630145635485 19.70486401533183
  endloop
endfacet
facet normal 4.045835998652966e-16 -0.9238795325112881 -0.3826834323650865
  outer loop
    vertex 56.629571456963 41.929630145635485 19.704864015331836
    vertex 60.37957145696299 41.67987908937392 20.30781640257553
    vertex 56.629571456963 41.67987908937392 20.30781640257553
  endloop
endfacet
facet normal -3.0280448175044205e-18 0.7933533402912302 -0.6087614290087272
  outer loop
    vertex 56.629571456963 37.747048626946466 20.82558335554189
    vertex 60.37957145696299 37.34975207045173 20.307816402575522
    vertex 56.629571456963 37.34975207045173 20.307816402575522
  endloop
endfacet
facet normal -3.0280448175044205e-18 0.7933533402912302 -0.6087614290087272
  outer loop
    vertex 60.37957145696299 37.34975207045173 20.307816402575522
    vertex 56.629571456963 37.747048626946466 20.82558335554189
    vertex 60.37957145696299 37.747048626946466 20.82558335554189
  endloop
endfacet
facet normal -2.755282185145811e-16 -0.13052619222005765 -0.9914448613738096
  outer loop
    vertex 60.37957145696299 40.161863192669124 21.47263096829819
    vertex 56.629571456963 39.51481557991283 21.557816402575526
    vertex 56.629571456963 40.161863192669124 21.472630968298194
  endloop
endfacet
facet normal -2.755282185145811e-16 -0.13052619222005765 -0.9914448613738096
  outer loop
    vertex 56.629571456963 39.51481557991283 21.557816402575526
    vertex 60.37957145696299 40.161863192669124 21.47263096829819
    vertex 60.37957145696299 39.51481557991283 21.557816402575526
  endloop
endfacet
facet normal 0.0 0.9914448613738112 0.13052619222004594
  outer loop
    vertex 31.379571456962992 37.01481557991283 19.057816402575536
    vertex 35.129571456963 37.10000101419015 18.410768789819226
    vertex 31.379571456962992 37.10000101419015 18.410768789819226
  endloop
endfacet
facet normal 0.0 0.9914448613738112 0.13052619222004594
  outer loop
    vertex 35.129571456963 37.10000101419015 18.410768789819226
    vertex 31.379571456962992 37.01481557991283 19.057816402575536
    vertex 35.129571456963 37.01481557991283 19.057816402575536
  endloop
endfacet
facet normal -6.939168992380995e-16 -0.9238795325112875 -0.38268343236508817
  outer loop
    vertex 35.129571456963 41.67987908937392 20.30781640257553
    vertex 31.379571456962992 41.929630145635485 19.704864015331836
    vertex 35.129571456963 41.929630145635485 19.704864015331836
  endloop
endfacet
facet normal -6.939168992380995e-16 -0.9238795325112875 -0.38268343236508817
  outer loop
    vertex 31.379571456962992 41.929630145635485 19.704864015331836
    vertex 35.129571456963 41.67987908937392 20.30781640257553
    vertex 31.379571456962992 41.67987908937392 20.30781640257553
  endloop
endfacet
facet normal 2.7539907182524864e-30 0.608761429008725 -0.7933533402912317
  outer loop
    vertex 60.37957145696299 38.26481557991283 21.222879912036625
    vertex 56.629571456963 37.747048626946466 20.82558335554189
    vertex 56.629571456963 38.26481557991283 21.222879912036625
  endloop
endfacet
facet normal 2.7539907182524864e-30 0.608761429008725 -0.7933533402912317
  outer loop
    vertex 56.629571456963 37.747048626946466 20.82558335554189
    vertex 60.37957145696299 38.26481557991283 21.222879912036625
    vertex 60.37957145696299 37.747048626946466 20.82558335554189
  endloop
endfacet
facet normal 9.451426811397664e-17 -0.7933533402912301 0.6087614290087275
  outer loop
    vertex 60.37957145696299 41.67987908937392 17.80781640257553
    vertex 56.629571456963 41.28258253287919 17.29004944960917
    vertex 60.37957145696299 41.28258253287919 17.290049449609164
  endloop
endfacet
facet normal 9.451426811397664e-17 -0.7933533402912301 0.6087614290087275
  outer loop
    vertex 56.629571456963 41.28258253287919 17.29004944960917
    vertex 60.37957145696299 41.67987908937392 17.80781640257553
    vertex 56.629571456963 41.67987908937392 17.80781640257553
  endloop
endfacet
facet normal -2.952453167476582e-31 0.9914448613738098 -0.1305261922200567
  outer loop
    vertex 56.629571456963 37.10000101419016 19.704864015331836
    vertex 60.37957145696299 37.01481557991283 19.057816402575536
    vertex 56.629571456963 37.01481557991283 19.057816402575536
  endloop
endfacet
facet normal -2.952453167476582e-31 0.9914448613738098 -0.1305261922200567
  outer loop
    vertex 60.37957145696299 37.01481557991283 19.057816402575536
    vertex 56.629571456963 37.10000101419016 19.704864015331836
    vertex 60.37957145696299 37.10000101419016 19.704864015331836
  endloop
endfacet
facet normal -4.3855827039078275e-16 -0.608761429008723 0.7933533402912334
  outer loop
    vertex 35.129571456963 40.76481557991282 16.892752893114437
    vertex 31.379571456962992 41.28258253287919 17.290049449609164
    vertex 31.379571456962992 40.76481557991282 16.892752893114437
  endloop
endfacet
facet normal -4.3855827039078275e-16 -0.608761429008723 0.7933533402912334
  outer loop
    vertex 31.379571456962992 41.28258253287919 17.290049449609164
    vertex 35.129571456963 40.76481557991282 16.892752893114437
    vertex 35.129571456963 41.28258253287919 17.29004944960917
  endloop
endfacet
facet normal 0.0 -0.9238795325112897 0.3826834323650829
  outer loop
    vertex 60.37957145696299 41.929630145635485 18.410768789819226
    vertex 56.629571456963 41.67987908937392 17.80781640257553
    vertex 60.37957145696299 41.67987908937392 17.80781640257553
  endloop
endfacet
facet normal 0.0 -0.9238795325112897 0.3826834323650829
  outer loop
    vertex 56.629571456963 41.67987908937392 17.80781640257553
    vertex 60.37957145696299 41.929630145635485 18.410768789819226
    vertex 56.629571456963 41.929630145635485 18.410768789819226
  endloop
endfacet
facet normal 2.5953204863412903e-16 -0.608761429008724 0.7933533402912326
  outer loop
    vertex 60.37957145696299 40.76481557991282 16.892752893114437
    vertex 56.629571456963 41.28258253287919 17.29004944960917
    vertex 56.629571456963 40.764815579912835 16.89275289311445
  endloop
endfacet
facet normal 2.5953204863412903e-16 -0.608761429008724 0.7933533402912326
  outer loop
    vertex 56.629571456963 41.28258253287919 17.29004944960917
    vertex 60.37957145696299 40.76481557991282 16.892752893114437
    vertex 60.37957145696299 41.28258253287919 17.290049449609164
  endloop
endfacet
facet normal 5.958799502773449e-16 -0.6087614290087239 -0.7933533402912326
  outer loop
    vertex 60.37957145696299 41.28258253287919 20.825583355541895
    vertex 56.629571456963 40.764815579912835 21.22287991203661
    vertex 56.629571456963 41.28258253287919 20.825583355541887
  endloop
endfacet
facet normal 5.958799502773449e-16 -0.6087614290087239 -0.7933533402912326
  outer loop
    vertex 56.629571456963 40.764815579912835 21.22287991203661
    vertex 60.37957145696299 41.28258253287919 20.825583355541895
    vertex 60.37957145696299 40.764815579912835 21.22287991203661
  endloop
endfacet
facet normal 6.87366173573814e-16 0.7933533402912326 0.608761429008724
  outer loop
    vertex 56.629571456963 37.747048626946466 17.290049449609164
    vertex 60.37957145696299 37.34975207045173 17.80781640257553
    vertex 60.37957145696299 37.747048626946466 17.290049449609157
  endloop
endfacet
facet normal 6.87366173573814e-16 0.7933533402912326 0.608761429008724
  outer loop
    vertex 60.37957145696299 37.34975207045173 17.80781640257553
    vertex 56.629571456963 37.747048626946466 17.290049449609164
    vertex 56.629571456963 37.34975207045173 17.807816402575533
  endloop
endfacet
facet normal 5.89668560951896e-16 -0.38268343236509644 0.9238795325112841
  outer loop
    vertex 60.37957145696299 40.161863192669124 16.64300183685286
    vertex 56.629571456963 40.764815579912835 16.89275289311445
    vertex 56.629571456963 40.161863192669124 16.643001836852864
  endloop
endfacet
facet normal 5.89668560951896e-16 -0.38268343236509644 0.9238795325112841
  outer loop
    vertex 56.629571456963 40.764815579912835 16.89275289311445
    vertex 60.37957145696299 40.161863192669124 16.64300183685286
    vertex 60.37957145696299 40.76481557991282 16.892752893114437
  endloop
endfacet
facet normal 2.742953301730809e-16 -0.13052619222005346 0.9914448613738103
  outer loop
    vertex 35.129571456963 39.51481557991283 16.557816402575533
    vertex 31.379571456962992 40.161863192669124 16.643001836852864
    vertex 31.379571456962992 39.51481557991283 16.557816402575533
  endloop
endfacet
facet normal 2.742953301730809e-16 -0.13052619222005346 0.9914448613738103
  outer loop
    vertex 31.379571456962992 40.161863192669124 16.643001836852864
    vertex 35.129571456963 39.51481557991283 16.557816402575533
    vertex 35.129571456963 40.161863192669124 16.64300183685286
  endloop
endfacet
facet normal -1.4412189047376678e-15 -0.99144486137381 0.1305261922200547
  outer loop
    vertex 60.37957145696299 42.014815579912806 19.057816402575533
    vertex 56.629571456963 41.929630145635485 18.410768789819226
    vertex 60.37957145696299 41.929630145635485 18.410768789819226
  endloop
endfacet
facet normal -1.4412189047376678e-15 -0.99144486137381 0.1305261922200547
  outer loop
    vertex 56.629571456963 41.929630145635485 18.410768789819226
    vertex 60.37957145696299 42.014815579912806 19.057816402575533
    vertex 56.629571456963 42.01481557991282 19.057816402575536
  endloop
endfacet
facet normal -6.182639687168929e-17 -0.3826834323650955 -0.9238795325112844
  outer loop
    vertex 60.37957145696299 40.764815579912835 21.22287991203661
    vertex 56.629571456963 40.161863192669124 21.472630968298194
    vertex 56.629571456963 40.764815579912835 21.22287991203661
  endloop
endfacet
facet normal -6.182639687168929e-17 -0.3826834323650955 -0.9238795325112844
  outer loop
    vertex 56.629571456963 40.161863192669124 21.472630968298194
    vertex 60.37957145696299 40.764815579912835 21.22287991203661
    vertex 60.37957145696299 40.161863192669124 21.47263096829819
  endloop
endfacet
facet normal 8.389777784529483e-16 0.9238795325112849 0.3826834323650947
  outer loop
    vertex 56.629571456963 37.34975207045173 17.807816402575533
    vertex 60.37957145696299 37.10000101419015 18.410768789819226
    vertex 60.37957145696299 37.34975207045173 17.80781640257553
  endloop
endfacet
facet normal 8.389777784529483e-16 0.9238795325112849 0.3826834323650947
  outer loop
    vertex 60.37957145696299 37.10000101419015 18.410768789819226
    vertex 56.629571456963 37.34975207045173 17.807816402575533
    vertex 56.629571456963 37.10000101419015 18.410768789819226
  endloop
endfacet
facet normal -1.6391749423183041e-15 -0.9914448613738109 -0.13052619222004846
  outer loop
    vertex 60.37957145696299 41.929630145635485 19.70486401533183
    vertex 56.629571456963 42.01481557991282 19.057816402575536
    vertex 60.37957145696299 42.014815579912806 19.057816402575533
  endloop
endfacet
facet normal -1.6391749423183041e-15 -0.9914448613738109 -0.13052619222004846
  outer loop
    vertex 56.629571456963 42.01481557991282 19.057816402575536
    vertex 60.37957145696299 41.929630145635485 19.70486401533183
    vertex 56.629571456963 41.929630145635485 19.704864015331836
  endloop
endfacet
facet normal -5.836370238861046e-19 0.9914448613738112 0.13052619222004597
  outer loop
    vertex 56.629571456963 37.01481557991283 19.057816402575536
    vertex 60.37957145696299 37.10000101419015 18.410768789819226
    vertex 56.629571456963 37.10000101419015 18.410768789819226
  endloop
endfacet
facet normal -5.836370238861046e-19 0.9914448613738112 0.13052619222004597
  outer loop
    vertex 60.37957145696299 37.10000101419015 18.410768789819226
    vertex 56.629571456963 37.01481557991283 19.057816402575536
    vertex 60.37957145696299 37.01481557991283 19.057816402575536
  endloop
endfacet
facet normal 1.4466664968640228e-16 0.92387953251129 -0.3826834323650822
  outer loop
    vertex 31.379571456962992 37.34975207045173 20.307816402575522
    vertex 35.129571456963 37.10000101419016 19.704864015331825
    vertex 31.379571456962992 37.10000101419016 19.704864015331825
  endloop
endfacet
facet normal 1.4466664968640228e-16 0.92387953251129 -0.3826834323650822
  outer loop
    vertex 35.129571456963 37.10000101419016 19.704864015331825
    vertex 31.379571456962992 37.34975207045173 20.307816402575522
    vertex 35.129571456963 37.34975207045173 20.307816402575526
  endloop
endfacet
facet normal 2.271033613129338e-16 0.7933533402912293 -0.6087614290087282
  outer loop
    vertex 31.379571456962992 37.747048626946466 20.82558335554189
    vertex 35.129571456963 37.34975207045173 20.307816402575526
    vertex 31.379571456962992 37.34975207045173 20.307816402575522
  endloop
endfacet
facet normal 2.271033613129338e-16 0.7933533402912293 -0.6087614290087282
  outer loop
    vertex 35.129571456963 37.34975207045173 20.307816402575526
    vertex 31.379571456962992 37.747048626946466 20.82558335554189
    vertex 35.129571456963 37.747048626946466 20.82558335554189
  endloop
endfacet
endsolid battery-camera-holder
