solid battery-camera-holder
facet normal 1.0 0.0 0.0
  outer loop
    vertex 25.000000000000004 24.862 -0.9999999999999999
    vertex 25.000000000000004 0.0 0.0
    vertex 25.000000000000004 0.0 -0.9999999999999999
  endloop
endfacet
facet normal 1.0 0.0 0.0
  outer loop
    vertex 25.000000000000004 0.0 0.0
    vertex 25.000000000000004 24.862 -0.9999999999999999
    vertex 25.000000000000004 24.862 0.0
  endloop
endfacet
facet normal -1.0 0.0 0.0
  outer loop
    vertex 0.0 24.862 0.0
    vertex 0.0 0.0 -0.9999999999999999
    vertex 0.0 0.0 0.0
  endloop
endfacet
facet normal -1.0 0.0 0.0
  outer loop
    vertex 0.0 0.0 -0.9999999999999999
    vertex 0.0 24.862 0.0
    vertex 0.0 24.862 -0.9999999999999999
  endloop
endfacet
facet normal 0.1305261922200518 0.9914448613738104 0.0
  outer loop
    vertex 1.9999999999999998 10.462 3.5000000000000004
    vertex 2.2588190451025203 10.427925826289068 0.0
    vertex 1.9999999999999998 10.462 0.0
  endloop
endfacet
facet normal 0.1305261922200518 0.9914448613738104 0.0
  outer loop
    vertex 2.2588190451025203 10.427925826289068 0.0
    vertex 1.9999999999999998 10.462 3.5000000000000004
    vertex 2.2588190451025203 10.427925826289068 3.5000000000000004
  endloop
endfacet
facet normal 0.0 1.0 0.0
  outer loop
    vertex 10.500000000000002 23.862 2.499999999999999
    vertex 14.500000000000002 23.862 0.0
    vertex 10.500000000000002 23.862 0.0
  endloop
endfacet
facet normal 0.0 1.0 0.0
  outer loop
    vertex 14.500000000000002 23.862 0.0
    vertex 10.500000000000002 23.862 2.499999999999999
    vertex 14.500000000000002 23.862 2.499999999999999
  endloop
endfacet
facet normal 0.0 0.0 -1.0
  outer loop
    vertex 25.000000000000004 24.862 -0.9999999999999999
    vertex 0.0 0.0 -0.9999999999999999
    vertex 0.0 24.862 -0.9999999999999999
  endloop
endfacet
facet normal 0.0 0.0 -1.0
  outer loop
    vertex 0.0 0.0 -0.9999999999999999
    vertex 25.000000000000004 24.862 -0.9999999999999999
    vertex 25.000000000000004 0.0 -0.9999999999999999
  endloop
endfacet
facet normal -0.7933533402912357 0.6087614290087201 0.0
  outer loop
    vertex 1.2928932188134523 10.169106781186546 3.5000000000000004
    vertex 1.1339745962155616 9.962 0.0
    vertex 1.1339745962155616 9.962 3.5000000000000004
  endloop
endfacet
facet normal -0.7933533402912357 0.6087614290087201 0.0
  outer loop
    vertex 1.1339745962155616 9.962 0.0
    vertex 1.2928932188134523 10.169106781186546 3.5000000000000004
    vertex 1.2928932188134523 10.169106781186546 0.0
  endloop
endfacet
facet normal 0.0 -1.0 0.0
  outer loop
    vertex 25.000000000000004 0.0 0.0
    vertex 0.0 0.0 -0.9999999999999999
    vertex 25.000000000000004 0.0 -0.9999999999999999
  endloop
endfacet
facet normal 0.0 -1.0 0.0
  outer loop
    vertex 0.0 0.0 -0.9999999999999999
    vertex 25.000000000000004 0.0 0.0
    vertex 0.0 0.0 0.0
  endloop
endfacet
facet normal 0.6087614290087179 -0.7933533402912372 0.0
  outer loop
    vertex 2.707106781186548 8.754893218813452 3.5000000000000004
    vertex 2.5000000000000004 8.595974596215562 0.0
    vertex 2.707106781186548 8.754893218813452 0.0
  endloop
endfacet
facet normal 0.6087614290087179 -0.7933533402912372 0.0
  outer loop
    vertex 2.5000000000000004 8.595974596215562 0.0
    vertex 2.707106781186548 8.754893218813452 3.5000000000000004
    vertex 2.5000000000000004 8.595974596215562 3.5000000000000004
  endloop
endfacet
facet normal -0.9914448613738105 -0.13052619222005143 -0.0
  outer loop
    vertex 1.0000000000000004 9.462 3.5000000000000004
    vertex 1.0340741737109322 9.203180954897478 0.0
    vertex 1.0340741737109322 9.203180954897478 3.5000000000000004
  endloop
endfacet
facet normal -0.9914448613738105 -0.13052619222005143 -0.0
  outer loop
    vertex 1.0340741737109322 9.203180954897478 0.0
    vertex 1.0000000000000004 9.462 3.5000000000000004
    vertex 1.0000000000000004 9.462 0.0
  endloop
endfacet
facet normal 0.9914448613738104 0.1305261922200528 0.0
  outer loop
    vertex 2.965925826289068 9.720819045102521 0.0
    vertex 3.0 9.462 3.5000000000000004
    vertex 3.0 9.462 0.0
  endloop
endfacet
facet normal 0.9914448613738104 0.1305261922200528 0.0
  outer loop
    vertex 3.0 9.462 3.5000000000000004
    vertex 2.965925826289068 9.720819045102521 0.0
    vertex 2.965925826289068 9.720819045102521 3.5000000000000004
  endloop
endfacet
facet normal -0.38268343236509156 0.9238795325112861 0.0
  outer loop
    vertex 1.5 10.328025403784437 3.5000000000000004
    vertex 1.7411809548974788 10.427925826289068 0.0
    vertex 1.5 10.328025403784437 0.0
  endloop
endfacet
facet normal -0.38268343236509156 0.9238795325112861 0.0
  outer loop
    vertex 1.7411809548974788 10.427925826289068 0.0
    vertex 1.5 10.328025403784437 3.5000000000000004
    vertex 1.7411809548974788 10.427925826289068 3.5000000000000004
  endloop
endfacet
facet normal -0.13052619222005163 0.9914448613738104 0.0
  outer loop
    vertex 1.7411809548974788 10.427925826289068 3.5000000000000004
    vertex 1.9999999999999998 10.462 0.0
    vertex 1.7411809548974788 10.427925826289068 0.0
  endloop
endfacet
facet normal -0.13052619222005163 0.9914448613738104 0.0
  outer loop
    vertex 1.9999999999999998 10.462 0.0
    vertex 1.7411809548974788 10.427925826289068 3.5000000000000004
    vertex 1.9999999999999998 10.462 3.5000000000000004
  endloop
endfacet
facet normal 0.9238795325112867 0.3826834323650902 0.0
  outer loop
    vertex 2.8660254037844384 9.962000000000002 0.0
    vertex 2.965925826289068 9.720819045102521 3.5000000000000004
    vertex 2.965925826289068 9.720819045102521 0.0
  endloop
endfacet
facet normal 0.9238795325112867 0.3826834323650902 0.0
  outer loop
    vertex 2.965925826289068 9.720819045102521 3.5000000000000004
    vertex 2.8660254037844384 9.962000000000002 0.0
    vertex 2.8660254037844384 9.962000000000002 3.5000000000000004
  endloop
endfacet
facet normal 0.9914448613738105 -0.13052619222005143 0.0
  outer loop
    vertex 3.0 9.462 0.0
    vertex 2.965925826289068 9.203180954897478 3.5000000000000004
    vertex 2.965925826289068 9.203180954897478 0.0
  endloop
endfacet
facet normal 0.9914448613738105 -0.13052619222005143 0.0
  outer loop
    vertex 2.965925826289068 9.203180954897478 3.5000000000000004
    vertex 3.0 9.462 0.0
    vertex 3.0 9.462 3.5000000000000004
  endloop
endfacet
facet normal -0.608761429008721 0.7933533402912349 0.0
  outer loop
    vertex 1.2928932188134523 10.169106781186546 3.5000000000000004
    vertex 1.5 10.328025403784437 0.0
    vertex 1.2928932188134523 10.169106781186546 0.0
  endloop
endfacet
facet normal -0.608761429008721 0.7933533402912349 0.0
  outer loop
    vertex 1.5 10.328025403784437 0.0
    vertex 1.2928932188134523 10.169106781186546 3.5000000000000004
    vertex 1.5 10.328025403784437 3.5000000000000004
  endloop
endfacet
facet normal -0.9914448613738106 0.13052619222005152 0.0
  outer loop
    vertex 1.034074173710932 9.72081904510252 3.5000000000000004
    vertex 1.0000000000000004 9.462 0.0
    vertex 1.0000000000000004 9.462 3.5000000000000004
  endloop
endfacet
facet normal -0.9914448613738106 0.13052619222005152 0.0
  outer loop
    vertex 1.0000000000000004 9.462 0.0
    vertex 1.034074173710932 9.72081904510252 3.5000000000000004
    vertex 1.034074173710932 9.72081904510252 0.0
  endloop
endfacet
facet normal 0.38268343236508723 0.923879532511288 0.0
  outer loop
    vertex 2.2588190451025203 10.427925826289068 3.5000000000000004
    vertex 2.499999999999999 10.328025403784439 0.0
    vertex 2.2588190451025203 10.427925826289068 0.0
  endloop
endfacet
facet normal 0.38268343236508723 0.923879532511288 0.0
  outer loop
    vertex 2.499999999999999 10.328025403784439 0.0
    vertex 2.2588190451025203 10.427925826289068 3.5000000000000004
    vertex 2.499999999999999 10.328025403784439 3.5000000000000004
  endloop
endfacet
facet normal 0.7933533402912354 0.6087614290087205 0.0
  outer loop
    vertex 2.7071067811865475 10.169106781186548 0.0
    vertex 2.8660254037844384 9.962000000000002 3.5000000000000004
    vertex 2.8660254037844384 9.962000000000002 0.0
  endloop
endfacet
facet normal 0.7933533402912354 0.6087614290087205 0.0
  outer loop
    vertex 2.8660254037844384 9.962000000000002 3.5000000000000004
    vertex 2.7071067811865475 10.169106781186548 0.0
    vertex 2.7071067811865475 10.169106781186548 3.5000000000000004
  endloop
endfacet
facet normal 0.0 0.0 1.0
  outer loop
    vertex 1.0340741737109322 9.203180954897478 3.5000000000000004
    vertex 1.034074173710932 9.72081904510252 3.5000000000000004
    vertex 1.0000000000000004 9.462 3.5000000000000004
  endloop
endfacet
facet normal 0.0 0.0 1.0
  outer loop
    vertex 1.034074173710932 9.72081904510252 3.5000000000000004
    vertex 1.0340741737109322 9.203180954897478 3.5000000000000004
    vertex 1.1339745962155616 9.962 3.5000000000000004
  endloop
endfacet
facet normal 0.0 0.0 1.0
  outer loop
    vertex 1.1339745962155616 9.962 3.5000000000000004
    vertex 1.0340741737109322 9.203180954897478 3.5000000000000004
    vertex 1.1339745962155618 8.962 3.5000000000000004
  endloop
endfacet
facet normal 0.0 0.0 1.0
  outer loop
    vertex 1.1339745962155616 9.962 3.5000000000000004
    vertex 1.1339745962155618 8.962 3.5000000000000004
    vertex 1.2928932188134523 10.169106781186546 3.5000000000000004
  endloop
endfacet
facet normal 0.0 0.0 1.0
  outer loop
    vertex 1.2928932188134523 10.169106781186546 3.5000000000000004
    vertex 1.1339745962155618 8.962 3.5000000000000004
    vertex 1.2928932188134528 8.754893218813452 3.5000000000000004
  endloop
endfacet
facet normal 0.0 0.0 1.0
  outer loop
    vertex 1.2928932188134523 10.169106781186546 3.5000000000000004
    vertex 1.2928932188134528 8.754893218813452 3.5000000000000004
    vertex 1.5 10.328025403784437 3.5000000000000004
  endloop
endfacet
facet normal 0.0 0.0 1.0
  outer loop
    vertex 1.5 10.328025403784437 3.5000000000000004
    vertex 1.2928932188134528 8.754893218813452 3.5000000000000004
    vertex 1.5000000000000007 8.59597459621556 3.5000000000000004
  endloop
endfacet
facet normal 0.0 0.0 1.0
  outer loop
    vertex 1.5 10.328025403784437 3.5000000000000004
    vertex 1.5000000000000007 8.59597459621556 3.5000000000000004
    vertex 1.7411809548974788 10.427925826289068 3.5000000000000004
  endloop
endfacet
facet normal 0.0 0.0 1.0
  outer loop
    vertex 1.7411809548974788 10.427925826289068 3.5000000000000004
    vertex 1.5000000000000007 8.59597459621556 3.5000000000000004
    vertex 1.7411809548974795 8.496074173710932 3.5000000000000004
  endloop
endfacet
facet normal 0.0 0.0 1.0
  outer loop
    vertex 1.7411809548974788 10.427925826289068 3.5000000000000004
    vertex 1.7411809548974795 8.496074173710932 3.5000000000000004
    vertex 1.9999999999999998 10.462 3.5000000000000004
  endloop
endfacet
facet normal 0.0 0.0 1.0
  outer loop
    vertex 1.9999999999999998 10.462 3.5000000000000004
    vertex 1.7411809548974795 8.496074173710932 3.5000000000000004
    vertex 2.0 8.462 3.5000000000000004
  endloop
endfacet
facet normal 0.0 0.0 1.0
  outer loop
    vertex 1.9999999999999998 10.462 3.5000000000000004
    vertex 2.0 8.462 3.5000000000000004
    vertex 2.2588190451025203 10.427925826289068 3.5000000000000004
  endloop
endfacet
facet normal 0.0 0.0 1.0
  outer loop
    vertex 2.2588190451025203 10.427925826289068 3.5000000000000004
    vertex 2.0 8.462 3.5000000000000004
    vertex 2.258819045102521 8.496074173710932 3.5000000000000004
  endloop
endfacet
facet normal 0.0 0.0 1.0
  outer loop
    vertex 2.2588190451025203 10.427925826289068 3.5000000000000004
    vertex 2.258819045102521 8.496074173710932 3.5000000000000004
    vertex 2.499999999999999 10.328025403784439 3.5000000000000004
  endloop
endfacet
facet normal 0.0 0.0 1.0
  outer loop
    vertex 2.499999999999999 10.328025403784439 3.5000000000000004
    vertex 2.258819045102521 8.496074173710932 3.5000000000000004
    vertex 2.5000000000000004 8.595974596215562 3.5000000000000004
  endloop
endfacet
facet normal 0.0 0.0 1.0
  outer loop
    vertex 2.499999999999999 10.328025403784439 3.5000000000000004
    vertex 2.5000000000000004 8.595974596215562 3.5000000000000004
    vertex 2.7071067811865475 10.169106781186548 3.5000000000000004
  endloop
endfacet
facet normal 0.0 0.0 1.0
  outer loop
    vertex 2.7071067811865475 10.169106781186548 3.5000000000000004
    vertex 2.5000000000000004 8.595974596215562 3.5000000000000004
    vertex 2.707106781186548 8.754893218813452 3.5000000000000004
  endloop
endfacet
facet normal 0.0 0.0 1.0
  outer loop
    vertex 2.7071067811865475 10.169106781186548 3.5000000000000004
    vertex 2.707106781186548 8.754893218813452 3.5000000000000004
    vertex 2.8660254037844384 9.962000000000002 3.5000000000000004
  endloop
endfacet
facet normal 0.0 0.0 1.0
  outer loop
    vertex 2.8660254037844384 9.962000000000002 3.5000000000000004
    vertex 2.707106781186548 8.754893218813452 3.5000000000000004
    vertex 2.866025403784439 8.962 3.5000000000000004
  endloop
endfacet
facet normal 0.0 0.0 1.0
  outer loop
    vertex 2.8660254037844384 9.962000000000002 3.5000000000000004
    vertex 2.866025403784439 8.962 3.5000000000000004
    vertex 2.965925826289068 9.720819045102521 3.5000000000000004
  endloop
endfacet
facet normal 0.0 0.0 1.0
  outer loop
    vertex 2.965925826289068 9.720819045102521 3.5000000000000004
    vertex 2.866025403784439 8.962 3.5000000000000004
    vertex 2.965925826289068 9.203180954897478 3.5000000000000004
  endloop
endfacet
facet normal 0.0 0.0 1.0
  outer loop
    vertex 2.965925826289068 9.720819045102521 3.5000000000000004
    vertex 2.965925826289068 9.203180954897478 3.5000000000000004
    vertex 3.0 9.462 3.5000000000000004
  endloop
endfacet
facet normal 0.6087614290087201 0.7933533402912358 0.0
  outer loop
    vertex 2.499999999999999 10.328025403784439 3.5000000000000004
    vertex 2.7071067811865475 10.169106781186548 0.0
    vertex 2.499999999999999 10.328025403784439 0.0
  endloop
endfacet
facet normal 0.6087614290087201 0.7933533402912358 0.0
  outer loop
    vertex 2.7071067811865475 10.169106781186548 0.0
    vertex 2.499999999999999 10.328025403784439 3.5000000000000004
    vertex 2.7071067811865475 10.169106781186548 3.5000000000000004
  endloop
endfacet
facet normal 0.7933533402912354 -0.6087614290087205 0.0
  outer loop
    vertex 2.866025403784439 8.962 0.0
    vertex 2.707106781186548 8.754893218813452 3.5000000000000004
    vertex 2.707106781186548 8.754893218813452 0.0
  endloop
endfacet
facet normal 0.7933533402912354 -0.6087614290087205 0.0
  outer loop
    vertex 2.707106781186548 8.754893218813452 3.5000000000000004
    vertex 2.866025403784439 8.962 0.0
    vertex 2.866025403784439 8.962 3.5000000000000004
  endloop
endfacet
facet normal -0.9238795325112868 0.38268343236508956 0.0
  outer loop
    vertex 1.1339745962155616 9.962 3.5000000000000004
    vertex 1.034074173710932 9.72081904510252 0.0
    vertex 1.034074173710932 9.72081904510252 3.5000000000000004
  endloop
endfacet
facet normal -0.9238795325112868 0.38268343236508956 0.0
  outer loop
    vertex 1.034074173710932 9.72081904510252 0.0
    vertex 1.1339745962155616 9.962 3.5000000000000004
    vertex 1.1339745962155616 9.962 0.0
  endloop
endfacet
facet normal 0.9238795325112867 -0.3826834323650902 0.0
  outer loop
    vertex 2.965925826289068 9.203180954897478 0.0
    vertex 2.866025403784439 8.962 3.5000000000000004
    vertex 2.866025403784439 8.962 0.0
  endloop
endfacet
facet normal 0.9238795325112867 -0.3826834323650902 0.0
  outer loop
    vertex 2.866025403784439 8.962 3.5000000000000004
    vertex 2.965925826289068 9.203180954897478 0.0
    vertex 2.965925826289068 9.203180954897478 3.5000000000000004
  endloop
endfacet
facet normal 0.0 0.0 1.0
  outer loop
    vertex 1.0340741737109316 21.60318095489748 3.5000000000000004
    vertex 1.0340741737109314 22.120819045102518 3.5000000000000004
    vertex 0.9999999999999998 21.862 3.5000000000000004
  endloop
endfacet
facet normal 0.0 0.0 1.0
  outer loop
    vertex 1.0340741737109314 22.120819045102518 3.5000000000000004
    vertex 1.0340741737109316 21.60318095489748 3.5000000000000004
    vertex 1.133974596215561 22.362 3.5000000000000004
  endloop
endfacet
facet normal 0.0 0.0 1.0
  outer loop
    vertex 1.133974596215561 22.362 3.5000000000000004
    vertex 1.0340741737109316 21.60318095489748 3.5000000000000004
    vertex 1.1339745962155612 21.362 3.5000000000000004
  endloop
endfacet
facet normal 0.0 0.0 1.0
  outer loop
    vertex 1.133974596215561 22.362 3.5000000000000004
    vertex 1.1339745962155612 21.362 3.5000000000000004
    vertex 1.2928932188134517 22.569106781186544 3.5000000000000004
  endloop
endfacet
facet normal 0.0 0.0 1.0
  outer loop
    vertex 1.2928932188134517 22.569106781186544 3.5000000000000004
    vertex 1.1339745962155612 21.362 3.5000000000000004
    vertex 1.292893218813452 21.154893218813452 3.5000000000000004
  endloop
endfacet
facet normal 0.0 0.0 1.0
  outer loop
    vertex 1.2928932188134517 22.569106781186544 3.5000000000000004
    vertex 1.292893218813452 21.154893218813452 3.5000000000000004
    vertex 1.4999999999999991 22.72802540378444 3.5000000000000004
  endloop
endfacet
facet normal 0.0 0.0 1.0
  outer loop
    vertex 1.4999999999999991 22.72802540378444 3.5000000000000004
    vertex 1.292893218813452 21.154893218813452 3.5000000000000004
    vertex 1.5 20.99597459621556 3.5000000000000004
  endloop
endfacet
facet normal 0.0 0.0 1.0
  outer loop
    vertex 1.4999999999999991 22.72802540378444 3.5000000000000004
    vertex 1.5 20.99597459621556 3.5000000000000004
    vertex 1.7411809548974782 22.827925826289068 3.5000000000000004
  endloop
endfacet
facet normal 0.0 0.0 1.0
  outer loop
    vertex 1.7411809548974782 22.827925826289068 3.5000000000000004
    vertex 1.5 20.99597459621556 3.5000000000000004
    vertex 1.7411809548974788 20.89607417371093 3.5000000000000004
  endloop
endfacet
facet normal 0.0 0.0 1.0
  outer loop
    vertex 1.7411809548974782 22.827925826289068 3.5000000000000004
    vertex 1.7411809548974788 20.89607417371093 3.5000000000000004
    vertex 1.9999999999999991 22.862 3.5000000000000004
  endloop
endfacet
facet normal 0.0 0.0 1.0
  outer loop
    vertex 1.9999999999999991 22.862 3.5000000000000004
    vertex 1.7411809548974788 20.89607417371093 3.5000000000000004
    vertex 1.9999999999999996 20.862 3.5000000000000004
  endloop
endfacet
facet normal 0.0 0.0 1.0
  outer loop
    vertex 1.9999999999999991 22.862 3.5000000000000004
    vertex 1.9999999999999996 20.862 3.5000000000000004
    vertex 2.25881904510252 22.827925826289068 3.5000000000000004
  endloop
endfacet
facet normal 0.0 0.0 1.0
  outer loop
    vertex 2.25881904510252 22.827925826289068 3.5000000000000004
    vertex 1.9999999999999996 20.862 3.5000000000000004
    vertex 2.2588190451025203 20.89607417371093 3.5000000000000004
  endloop
endfacet
facet normal 0.0 0.0 1.0
  outer loop
    vertex 2.25881904510252 22.827925826289068 3.5000000000000004
    vertex 2.2588190451025203 20.89607417371093 3.5000000000000004
    vertex 2.4999999999999987 22.72802540378444 3.5000000000000004
  endloop
endfacet
facet normal 0.0 0.0 1.0
  outer loop
    vertex 2.4999999999999987 22.72802540378444 3.5000000000000004
    vertex 2.2588190451025203 20.89607417371093 3.5000000000000004
    vertex 2.4999999999999996 20.99597459621556 3.5000000000000004
  endloop
endfacet
facet normal 0.0 0.0 1.0
  outer loop
    vertex 2.4999999999999987 22.72802540378444 3.5000000000000004
    vertex 2.4999999999999996 20.99597459621556 3.5000000000000004
    vertex 2.7071067811865466 22.569106781186544 3.5000000000000004
  endloop
endfacet
facet normal 0.0 0.0 1.0
  outer loop
    vertex 2.7071067811865466 22.569106781186544 3.5000000000000004
    vertex 2.4999999999999996 20.99597459621556 3.5000000000000004
    vertex 2.707106781186547 21.154893218813452 3.5000000000000004
  endloop
endfacet
facet normal 0.0 0.0 1.0
  outer loop
    vertex 2.7071067811865466 22.569106781186544 3.5000000000000004
    vertex 2.707106781186547 21.154893218813452 3.5000000000000004
    vertex 2.8660254037844375 22.362 3.5000000000000004
  endloop
endfacet
facet normal 0.0 0.0 1.0
  outer loop
    vertex 2.8660254037844375 22.362 3.5000000000000004
    vertex 2.707106781186547 21.154893218813452 3.5000000000000004
    vertex 2.866025403784438 21.362 3.5000000000000004
  endloop
endfacet
facet normal 0.0 0.0 1.0
  outer loop
    vertex 2.8660254037844375 22.362 3.5000000000000004
    vertex 2.866025403784438 21.362 3.5000000000000004
    vertex 2.9659258262890673 22.12081904510252 3.5000000000000004
  endloop
endfacet
facet normal 0.0 0.0 1.0
  outer loop
    vertex 2.9659258262890673 22.12081904510252 3.5000000000000004
    vertex 2.866025403784438 21.362 3.5000000000000004
    vertex 2.9659258262890678 21.60318095489748 3.5000000000000004
  endloop
endfacet
facet normal 0.0 0.0 1.0
  outer loop
    vertex 2.9659258262890673 22.12081904510252 3.5000000000000004
    vertex 2.9659258262890678 21.60318095489748 3.5000000000000004
    vertex 2.9999999999999996 21.862 3.5000000000000004
  endloop
endfacet
facet normal -0.6087614290087241 -0.7933533402912326 -0.0
  outer loop
    vertex 1.5 20.99597459621556 3.5000000000000004
    vertex 1.292893218813452 21.154893218813452 0.0
    vertex 1.5 20.99597459621556 0.0
  endloop
endfacet
facet normal -0.6087614290087241 -0.7933533402912326 -0.0
  outer loop
    vertex 1.292893218813452 21.154893218813452 0.0
    vertex 1.5 20.99597459621556 3.5000000000000004
    vertex 1.292893218813452 21.154893218813452 3.5000000000000004
  endloop
endfacet
facet normal -0.38268343236509156 -0.9238795325112861 -0.0
  outer loop
    vertex 1.7411809548974788 20.89607417371093 3.5000000000000004
    vertex 1.5 20.99597459621556 0.0
    vertex 1.7411809548974788 20.89607417371093 0.0
  endloop
endfacet
facet normal -0.38268343236509156 -0.9238795325112861 -0.0
  outer loop
    vertex 1.5 20.99597459621556 0.0
    vertex 1.7411809548974788 20.89607417371093 3.5000000000000004
    vertex 1.5 20.99597459621556 3.5000000000000004
  endloop
endfacet
facet normal -0.7933533402912354 -0.6087614290087205 -0.0
  outer loop
    vertex 1.1339745962155612 21.362 3.5000000000000004
    vertex 1.292893218813452 21.154893218813452 0.0
    vertex 1.292893218813452 21.154893218813452 3.5000000000000004
  endloop
endfacet
facet normal -0.7933533402912354 -0.6087614290087205 -0.0
  outer loop
    vertex 1.292893218813452 21.154893218813452 0.0
    vertex 1.1339745962155612 21.362 3.5000000000000004
    vertex 1.1339745962155612 21.362 0.0
  endloop
endfacet
facet normal -0.6087614290087207 -0.793353340291235 -0.0
  outer loop
    vertex 1.5000000000000007 8.59597459621556 3.5000000000000004
    vertex 1.2928932188134528 8.754893218813452 0.0
    vertex 1.5000000000000007 8.59597459621556 0.0
  endloop
endfacet
facet normal -0.6087614290087207 -0.793353340291235 -0.0
  outer loop
    vertex 1.2928932188134528 8.754893218813452 0.0
    vertex 1.5000000000000007 8.59597459621556 3.5000000000000004
    vertex 1.2928932188134528 8.754893218813452 3.5000000000000004
  endloop
endfacet
facet normal -0.7933533402912354 -0.6087614290087205 -0.0
  outer loop
    vertex 1.1339745962155618 8.962 3.5000000000000004
    vertex 1.2928932188134528 8.754893218813452 0.0
    vertex 1.2928932188134528 8.754893218813452 3.5000000000000004
  endloop
endfacet
facet normal -0.7933533402912354 -0.6087614290087205 -0.0
  outer loop
    vertex 1.2928932188134528 8.754893218813452 0.0
    vertex 1.1339745962155618 8.962 3.5000000000000004
    vertex 1.1339745962155618 8.962 0.0
  endloop
endfacet
facet normal -0.38268343236508695 -0.923879532511288 -0.0
  outer loop
    vertex 1.7411809548974795 8.496074173710932 3.5000000000000004
    vertex 1.5000000000000007 8.59597459621556 0.0
    vertex 1.7411809548974795 8.496074173710932 0.0
  endloop
endfacet
facet normal -0.38268343236508695 -0.923879532511288 -0.0
  outer loop
    vertex 1.5000000000000007 8.59597459621556 0.0
    vertex 1.7411809548974795 8.496074173710932 3.5000000000000004
    vertex 1.5000000000000007 8.59597459621556 3.5000000000000004
  endloop
endfacet
facet normal -0.1305261922200518 -0.9914448613738104 -0.0
  outer loop
    vertex 2.0 8.462 3.5000000000000004
    vertex 1.7411809548974795 8.496074173710932 0.0
    vertex 2.0 8.462 0.0
  endloop
endfacet
facet normal -0.1305261922200518 -0.9914448613738104 -0.0
  outer loop
    vertex 1.7411809548974795 8.496074173710932 0.0
    vertex 2.0 8.462 3.5000000000000004
    vertex 1.7411809548974795 8.496074173710932 3.5000000000000004
  endloop
endfacet
facet normal 0.13052619222005163 -0.9914448613738104 0.0
  outer loop
    vertex 2.258819045102521 8.496074173710932 3.5000000000000004
    vertex 2.0 8.462 0.0
    vertex 2.258819045102521 8.496074173710932 0.0
  endloop
endfacet
facet normal 0.13052619222005163 -0.9914448613738104 0.0
  outer loop
    vertex 2.0 8.462 0.0
    vertex 2.258819045102521 8.496074173710932 3.5000000000000004
    vertex 2.0 8.462 3.5000000000000004
  endloop
endfacet
facet normal -0.9238795325112867 -0.3826834323650902 -0.0
  outer loop
    vertex 1.0340741737109322 9.203180954897478 3.5000000000000004
    vertex 1.1339745962155618 8.962 0.0
    vertex 1.1339745962155618 8.962 3.5000000000000004
  endloop
endfacet
facet normal -0.9238795325112867 -0.3826834323650902 -0.0
  outer loop
    vertex 1.1339745962155618 8.962 0.0
    vertex 1.0340741737109322 9.203180954897478 3.5000000000000004
    vertex 1.0340741737109322 9.203180954897478 0.0
  endloop
endfacet
facet normal 0.3826834323650914 -0.9238795325112863 0.0
  outer loop
    vertex 2.5000000000000004 8.595974596215562 3.5000000000000004
    vertex 2.258819045102521 8.496074173710932 0.0
    vertex 2.5000000000000004 8.595974596215562 0.0
  endloop
endfacet
facet normal 0.3826834323650914 -0.9238795325112863 0.0
  outer loop
    vertex 2.258819045102521 8.496074173710932 0.0
    vertex 2.5000000000000004 8.595974596215562 3.5000000000000004
    vertex 2.258819045102521 8.496074173710932 3.5000000000000004
  endloop
endfacet
facet normal -0.9238795325112863 0.3826834323650914 0.0
  outer loop
    vertex 22.133974596215563 22.362 3.5000000000000004
    vertex 22.03407417371093 22.120819045102518 0.0
    vertex 22.03407417371093 22.120819045102518 3.5000000000000004
  endloop
endfacet
facet normal -0.9238795325112863 0.3826834323650914 0.0
  outer loop
    vertex 22.03407417371093 22.120819045102518 0.0
    vertex 22.133974596215563 22.362 3.5000000000000004
    vertex 22.133974596215563 22.362 0.0
  endloop
endfacet
facet normal -0.6087614290087248 0.7933533402912322 0.0
  outer loop
    vertex 22.29289321881345 22.569106781186544 3.5000000000000004
    vertex 22.5 22.72802540378444 0.0
    vertex 22.29289321881345 22.569106781186544 0.0
  endloop
endfacet
facet normal -0.6087614290087248 0.7933533402912322 0.0
  outer loop
    vertex 22.5 22.72802540378444 0.0
    vertex 22.29289321881345 22.569106781186544 3.5000000000000004
    vertex 22.5 22.72802540378444 3.5000000000000004
  endloop
endfacet
facet normal -0.9914448613738104 0.13052619222005216 0.0
  outer loop
    vertex 22.03407417371093 22.120819045102518 3.5000000000000004
    vertex 22.0 21.862 0.0
    vertex 22.0 21.862 3.5000000000000004
  endloop
endfacet
facet normal -0.9914448613738104 0.13052619222005216 0.0
  outer loop
    vertex 22.0 21.862 0.0
    vertex 22.03407417371093 22.120819045102518 3.5000000000000004
    vertex 22.03407417371093 22.120819045102518 0.0
  endloop
endfacet
facet normal -0.13052619222005077 0.9914448613738106 0.0
  outer loop
    vertex 22.741180954897477 22.827925826289068 3.5000000000000004
    vertex 23.0 22.862 0.0
    vertex 22.741180954897477 22.827925826289068 0.0
  endloop
endfacet
facet normal -0.13052619222005077 0.9914448613738106 0.0
  outer loop
    vertex 23.0 22.862 0.0
    vertex 22.741180954897477 22.827925826289068 3.5000000000000004
    vertex 23.0 22.862 3.5000000000000004
  endloop
endfacet
facet normal -0.7933533402912372 0.6087614290087179 0.0
  outer loop
    vertex 22.29289321881345 22.569106781186544 3.5000000000000004
    vertex 22.133974596215563 22.362 0.0
    vertex 22.133974596215563 22.362 3.5000000000000004
  endloop
endfacet
facet normal -0.7933533402912372 0.6087614290087179 0.0
  outer loop
    vertex 22.133974596215563 22.362 0.0
    vertex 22.29289321881345 22.569106781186544 3.5000000000000004
    vertex 22.29289321881345 22.569106781186544 0.0
  endloop
endfacet
facet normal 0.3826834323650914 0.9238795325112863 0.0
  outer loop
    vertex 23.25881904510252 22.827925826289068 3.5000000000000004
    vertex 23.5 22.72802540378444 0.0
    vertex 23.25881904510252 22.827925826289068 0.0
  endloop
endfacet
facet normal 0.3826834323650914 0.9238795325112863 0.0
  outer loop
    vertex 23.5 22.72802540378444 0.0
    vertex 23.25881904510252 22.827925826289068 3.5000000000000004
    vertex 23.5 22.72802540378444 3.5000000000000004
  endloop
endfacet
facet normal -0.3826834323650914 0.9238795325112863 0.0
  outer loop
    vertex 22.5 22.72802540378444 3.5000000000000004
    vertex 22.741180954897477 22.827925826289068 0.0
    vertex 22.5 22.72802540378444 0.0
  endloop
endfacet
facet normal -0.3826834323650914 0.9238795325112863 0.0
  outer loop
    vertex 22.741180954897477 22.827925826289068 0.0
    vertex 22.5 22.72802540378444 3.5000000000000004
    vertex 22.741180954897477 22.827925826289068 3.5000000000000004
  endloop
endfacet
facet normal 0.6087614290087128 0.7933533402912413 0.0
  outer loop
    vertex 23.5 22.72802540378444 3.5000000000000004
    vertex 23.70710678118655 22.569106781186548 0.0
    vertex 23.5 22.72802540378444 0.0
  endloop
endfacet
facet normal 0.6087614290087128 0.7933533402912413 0.0
  outer loop
    vertex 23.70710678118655 22.569106781186548 0.0
    vertex 23.5 22.72802540378444 3.5000000000000004
    vertex 23.70710678118655 22.569106781186548 3.5000000000000004
  endloop
endfacet
facet normal 0.13052619222005216 0.9914448613738104 0.0
  outer loop
    vertex 23.0 22.862 3.5000000000000004
    vertex 23.25881904510252 22.827925826289068 0.0
    vertex 23.0 22.862 0.0
  endloop
endfacet
facet normal 0.13052619222005216 0.9914448613738104 0.0
  outer loop
    vertex 23.25881904510252 22.827925826289068 0.0
    vertex 23.0 22.862 3.5000000000000004
    vertex 23.25881904510252 22.827925826289068 3.5000000000000004
  endloop
endfacet
facet normal 0.9238795325112863 0.3826834323650914 0.0
  outer loop
    vertex 23.86602540378444 22.362000000000002 0.0
    vertex 23.96592582628907 22.12081904510252 3.5000000000000004
    vertex 23.96592582628907 22.12081904510252 0.0
  endloop
endfacet
facet normal 0.9238795325112863 0.3826834323650914 0.0
  outer loop
    vertex 23.96592582628907 22.12081904510252 3.5000000000000004
    vertex 23.86602540378444 22.362000000000002 0.0
    vertex 23.86602540378444 22.362000000000002 3.5000000000000004
  endloop
endfacet
facet normal 0.7933533402912372 0.6087614290087179 0.0
  outer loop
    vertex 23.70710678118655 22.569106781186548 0.0
    vertex 23.86602540378444 22.362000000000002 3.5000000000000004
    vertex 23.86602540378444 22.362000000000002 0.0
  endloop
endfacet
facet normal 0.7933533402912372 0.6087614290087179 0.0
  outer loop
    vertex 23.86602540378444 22.362000000000002 3.5000000000000004
    vertex 23.70710678118655 22.569106781186548 0.0
    vertex 23.70710678118655 22.569106781186548 3.5000000000000004
  endloop
endfacet
facet normal 0.6087614290087234 0.7933533402912331 0.0
  outer loop
    vertex 2.4999999999999987 22.72802540378444 3.5000000000000004
    vertex 2.7071067811865466 22.569106781186544 0.0
    vertex 2.4999999999999987 22.72802540378444 0.0
  endloop
endfacet
facet normal 0.6087614290087234 0.7933533402912331 0.0
  outer loop
    vertex 2.7071067811865466 22.569106781186544 0.0
    vertex 2.4999999999999987 22.72802540378444 3.5000000000000004
    vertex 2.7071067811865466 22.569106781186544 3.5000000000000004
  endloop
endfacet
facet normal 0.9238795325112852 0.38268343236509406 0.0
  outer loop
    vertex 2.8660254037844375 22.362 0.0
    vertex 2.9659258262890673 22.12081904510252 3.5000000000000004
    vertex 2.9659258262890673 22.12081904510252 0.0
  endloop
endfacet
facet normal 0.9238795325112852 0.38268343236509406 0.0
  outer loop
    vertex 2.9659258262890673 22.12081904510252 3.5000000000000004
    vertex 2.8660254037844375 22.362 0.0
    vertex 2.8660254037844375 22.362 3.5000000000000004
  endloop
endfacet
facet normal 0.1305261922200518 0.9914448613738104 0.0
  outer loop
    vertex 1.9999999999999991 22.862 3.5000000000000004
    vertex 2.25881904510252 22.827925826289068 0.0
    vertex 1.9999999999999991 22.862 0.0
  endloop
endfacet
facet normal 0.1305261922200518 0.9914448613738104 0.0
  outer loop
    vertex 2.25881904510252 22.827925826289068 0.0
    vertex 1.9999999999999991 22.862 3.5000000000000004
    vertex 2.25881904510252 22.827925826289068 3.5000000000000004
  endloop
endfacet
facet normal 0.9914448613738104 -0.13052619222005216 0.0
  outer loop
    vertex 2.9999999999999996 21.862 0.0
    vertex 2.9659258262890678 21.60318095489748 3.5000000000000004
    vertex 2.9659258262890678 21.60318095489748 0.0
  endloop
endfacet
facet normal 0.9914448613738104 -0.13052619222005216 0.0
  outer loop
    vertex 2.9659258262890678 21.60318095489748 3.5000000000000004
    vertex 2.9999999999999996 21.862 0.0
    vertex 2.9999999999999996 21.862 3.5000000000000004
  endloop
endfacet
facet normal -0.38268343236509156 0.9238795325112861 0.0
  outer loop
    vertex 1.4999999999999991 22.72802540378444 3.5000000000000004
    vertex 1.7411809548974782 22.827925826289068 0.0
    vertex 1.4999999999999991 22.72802540378444 0.0
  endloop
endfacet
facet normal -0.38268343236509156 0.9238795325112861 0.0
  outer loop
    vertex 1.7411809548974782 22.827925826289068 0.0
    vertex 1.4999999999999991 22.72802540378444 3.5000000000000004
    vertex 1.7411809548974782 22.827925826289068 3.5000000000000004
  endloop
endfacet
facet normal 0.7933533402912354 -0.6087614290087205 0.0
  outer loop
    vertex 2.866025403784438 21.362 0.0
    vertex 2.707106781186547 21.154893218813452 3.5000000000000004
    vertex 2.707106781186547 21.154893218813452 0.0
  endloop
endfacet
facet normal 0.7933533402912354 -0.6087614290087205 0.0
  outer loop
    vertex 2.707106781186547 21.154893218813452 3.5000000000000004
    vertex 2.866025403784438 21.362 0.0
    vertex 2.866025403784438 21.362 3.5000000000000004
  endloop
endfacet
facet normal -0.7933533402912357 0.6087614290087201 0.0
  outer loop
    vertex 1.2928932188134517 22.569106781186544 3.5000000000000004
    vertex 1.133974596215561 22.362 0.0
    vertex 1.133974596215561 22.362 3.5000000000000004
  endloop
endfacet
facet normal -0.7933533402912357 0.6087614290087201 0.0
  outer loop
    vertex 1.133974596215561 22.362 0.0
    vertex 1.2928932188134517 22.569106781186544 3.5000000000000004
    vertex 1.2928932188134517 22.569106781186544 0.0
  endloop
endfacet
facet normal 0.3826834323650914 -0.9238795325112863 0.0
  outer loop
    vertex 2.4999999999999996 20.99597459621556 3.5000000000000004
    vertex 2.2588190451025203 20.89607417371093 0.0
    vertex 2.4999999999999996 20.99597459621556 0.0
  endloop
endfacet
facet normal 0.3826834323650914 -0.9238795325112863 0.0
  outer loop
    vertex 2.2588190451025203 20.89607417371093 0.0
    vertex 2.4999999999999996 20.99597459621556 3.5000000000000004
    vertex 2.2588190451025203 20.89607417371093 3.5000000000000004
  endloop
endfacet
facet normal -0.6087614290087243 0.7933533402912323 0.0
  outer loop
    vertex 1.2928932188134517 22.569106781186544 3.5000000000000004
    vertex 1.4999999999999991 22.72802540378444 0.0
    vertex 1.2928932188134517 22.569106781186544 0.0
  endloop
endfacet
facet normal -0.6087614290087243 0.7933533402912323 0.0
  outer loop
    vertex 1.4999999999999991 22.72802540378444 0.0
    vertex 1.2928932188134517 22.569106781186544 3.5000000000000004
    vertex 1.4999999999999991 22.72802540378444 3.5000000000000004
  endloop
endfacet
facet normal -0.1305261922200518 -0.9914448613738104 -0.0
  outer loop
    vertex 1.9999999999999996 20.862 3.5000000000000004
    vertex 1.7411809548974788 20.89607417371093 0.0
    vertex 1.9999999999999996 20.862 0.0
  endloop
endfacet
facet normal -0.1305261922200518 -0.9914448613738104 -0.0
  outer loop
    vertex 1.7411809548974788 20.89607417371093 0.0
    vertex 1.9999999999999996 20.862 3.5000000000000004
    vertex 1.7411809548974788 20.89607417371093 3.5000000000000004
  endloop
endfacet
facet normal -0.13052619222005163 0.9914448613738104 0.0
  outer loop
    vertex 1.7411809548974782 22.827925826289068 3.5000000000000004
    vertex 1.9999999999999991 22.862 0.0
    vertex 1.7411809548974782 22.827925826289068 0.0
  endloop
endfacet
facet normal -0.13052619222005163 0.9914448613738104 0.0
  outer loop
    vertex 1.9999999999999991 22.862 0.0
    vertex 1.7411809548974782 22.827925826289068 3.5000000000000004
    vertex 1.9999999999999991 22.862 3.5000000000000004
  endloop
endfacet
facet normal 0.13052619222005163 -0.9914448613738104 0.0
  outer loop
    vertex 2.2588190451025203 20.89607417371093 3.5000000000000004
    vertex 1.9999999999999996 20.862 0.0
    vertex 2.2588190451025203 20.89607417371093 0.0
  endloop
endfacet
facet normal 0.13052619222005163 -0.9914448613738104 0.0
  outer loop
    vertex 1.9999999999999996 20.862 0.0
    vertex 2.2588190451025203 20.89607417371093 3.5000000000000004
    vertex 1.9999999999999996 20.862 3.5000000000000004
  endloop
endfacet
facet normal 0.3826834323650917 0.9238795325112859 0.0
  outer loop
    vertex 2.25881904510252 22.827925826289068 3.5000000000000004
    vertex 2.4999999999999987 22.72802540378444 0.0
    vertex 2.25881904510252 22.827925826289068 0.0
  endloop
endfacet
facet normal 0.3826834323650917 0.9238795325112859 0.0
  outer loop
    vertex 2.4999999999999987 22.72802540378444 0.0
    vertex 2.25881904510252 22.827925826289068 3.5000000000000004
    vertex 2.4999999999999987 22.72802540378444 3.5000000000000004
  endloop
endfacet
facet normal 0.6087614290087248 -0.7933533402912322 0.0
  outer loop
    vertex 2.707106781186547 21.154893218813452 3.5000000000000004
    vertex 2.4999999999999996 20.99597459621556 0.0
    vertex 2.707106781186547 21.154893218813452 0.0
  endloop
endfacet
facet normal 0.6087614290087248 -0.7933533402912322 0.0
  outer loop
    vertex 2.4999999999999996 20.99597459621556 0.0
    vertex 2.707106781186547 21.154893218813452 3.5000000000000004
    vertex 2.4999999999999996 20.99597459621556 3.5000000000000004
  endloop
endfacet
facet normal 0.7933533402912354 0.6087614290087205 0.0
  outer loop
    vertex 2.7071067811865466 22.569106781186544 0.0
    vertex 2.8660254037844375 22.362 3.5000000000000004
    vertex 2.8660254037844375 22.362 0.0
  endloop
endfacet
facet normal 0.7933533402912354 0.6087614290087205 0.0
  outer loop
    vertex 2.8660254037844375 22.362 3.5000000000000004
    vertex 2.7071067811865466 22.569106781186544 0.0
    vertex 2.7071067811865466 22.569106781186544 3.5000000000000004
  endloop
endfacet
facet normal 0.9238795325112867 -0.3826834323650902 0.0
  outer loop
    vertex 2.9659258262890678 21.60318095489748 0.0
    vertex 2.866025403784438 21.362 3.5000000000000004
    vertex 2.866025403784438 21.362 0.0
  endloop
endfacet
facet normal 0.9238795325112867 -0.3826834323650902 0.0
  outer loop
    vertex 2.866025403784438 21.362 3.5000000000000004
    vertex 2.9659258262890678 21.60318095489748 0.0
    vertex 2.9659258262890678 21.60318095489748 3.5000000000000004
  endloop
endfacet
facet normal 0.9914448613738105 0.1305261922200521 0.0
  outer loop
    vertex 2.9659258262890673 22.12081904510252 0.0
    vertex 2.9999999999999996 21.862 3.5000000000000004
    vertex 2.9999999999999996 21.862 0.0
  endloop
endfacet
facet normal 0.9914448613738105 0.1305261922200521 0.0
  outer loop
    vertex 2.9999999999999996 21.862 3.5000000000000004
    vertex 2.9659258262890673 22.12081904510252 0.0
    vertex 2.9659258262890673 22.12081904510252 3.5000000000000004
  endloop
endfacet
facet normal -0.9238795325112878 -0.38268343236508756 -0.0
  outer loop
    vertex 22.03407417371093 21.60318095489748 3.5000000000000004
    vertex 22.133974596215563 21.362 0.0
    vertex 22.133974596215563 21.362 3.5000000000000004
  endloop
endfacet
facet normal -0.9238795325112878 -0.38268343236508756 -0.0
  outer loop
    vertex 22.133974596215563 21.362 0.0
    vertex 22.03407417371093 21.60318095489748 3.5000000000000004
    vertex 22.03407417371093 21.60318095489748 0.0
  endloop
endfacet
facet normal -0.9914448613738104 -0.13052619222005216 -0.0
  outer loop
    vertex 22.0 21.862 3.5000000000000004
    vertex 22.03407417371093 21.60318095489748 0.0
    vertex 22.03407417371093 21.60318095489748 3.5000000000000004
  endloop
endfacet
facet normal -0.9914448613738104 -0.13052619222005216 -0.0
  outer loop
    vertex 22.03407417371093 21.60318095489748 0.0
    vertex 22.0 21.862 3.5000000000000004
    vertex 22.0 21.862 0.0
  endloop
endfacet
facet normal -0.6087614290087128 -0.7933533402912413 -0.0
  outer loop
    vertex 22.5 20.99597459621556 3.5000000000000004
    vertex 22.29289321881345 21.15489321881345 0.0
    vertex 22.5 20.99597459621556 0.0
  endloop
endfacet
facet normal -0.6087614290087128 -0.7933533402912413 -0.0
  outer loop
    vertex 22.29289321881345 21.15489321881345 0.0
    vertex 22.5 20.99597459621556 3.5000000000000004
    vertex 22.29289321881345 21.15489321881345 3.5000000000000004
  endloop
endfacet
facet normal -0.7933533402912372 -0.6087614290087179 -0.0
  outer loop
    vertex 22.133974596215563 21.362 3.5000000000000004
    vertex 22.29289321881345 21.15489321881345 0.0
    vertex 22.29289321881345 21.15489321881345 3.5000000000000004
  endloop
endfacet
facet normal -0.7933533402912372 -0.6087614290087179 -0.0
  outer loop
    vertex 22.29289321881345 21.15489321881345 0.0
    vertex 22.133974596215563 21.362 3.5000000000000004
    vertex 22.133974596215563 21.362 0.0
  endloop
endfacet
facet normal -0.13052619222005216 -0.9914448613738104 -0.0
  outer loop
    vertex 23.0 20.862 3.5000000000000004
    vertex 22.74118095489748 20.89607417371093 0.0
    vertex 23.0 20.862 0.0
  endloop
endfacet
facet normal -0.13052619222005216 -0.9914448613738104 -0.0
  outer loop
    vertex 22.74118095489748 20.89607417371093 0.0
    vertex 23.0 20.862 3.5000000000000004
    vertex 22.74118095489748 20.89607417371093 3.5000000000000004
  endloop
endfacet
facet normal -0.3826834323650914 -0.9238795325112863 -0.0
  outer loop
    vertex 22.74118095489748 20.89607417371093 3.5000000000000004
    vertex 22.5 20.99597459621556 0.0
    vertex 22.74118095489748 20.89607417371093 0.0
  endloop
endfacet
facet normal -0.3826834323650914 -0.9238795325112863 -0.0
  outer loop
    vertex 22.5 20.99597459621556 0.0
    vertex 22.74118095489748 20.89607417371093 3.5000000000000004
    vertex 22.5 20.99597459621556 3.5000000000000004
  endloop
endfacet
facet normal -0.9238795325112868 0.38268343236508956 0.0
  outer loop
    vertex 1.133974596215561 22.362 3.5000000000000004
    vertex 1.0340741737109314 22.120819045102518 0.0
    vertex 1.0340741737109314 22.120819045102518 3.5000000000000004
  endloop
endfacet
facet normal -0.9238795325112868 0.38268343236508956 0.0
  outer loop
    vertex 1.0340741737109314 22.120819045102518 0.0
    vertex 1.133974596215561 22.362 3.5000000000000004
    vertex 1.133974596215561 22.362 0.0
  endloop
endfacet
facet normal -0.9914448613738106 0.13052619222005152 0.0
  outer loop
    vertex 1.0340741737109314 22.120819045102518 3.5000000000000004
    vertex 0.9999999999999998 21.862 0.0
    vertex 0.9999999999999998 21.862 3.5000000000000004
  endloop
endfacet
facet normal -0.9914448613738106 0.13052619222005152 0.0
  outer loop
    vertex 0.9999999999999998 21.862 0.0
    vertex 1.0340741737109314 22.120819045102518 3.5000000000000004
    vertex 1.0340741737109314 22.120819045102518 0.0
  endloop
endfacet
facet normal -0.9914448613738104 -0.13052619222005216 -0.0
  outer loop
    vertex 0.9999999999999998 21.862 3.5000000000000004
    vertex 1.0340741737109316 21.60318095489748 0.0
    vertex 1.0340741737109316 21.60318095489748 3.5000000000000004
  endloop
endfacet
facet normal -0.9914448613738104 -0.13052619222005216 -0.0
  outer loop
    vertex 1.0340741737109316 21.60318095489748 0.0
    vertex 0.9999999999999998 21.862 3.5000000000000004
    vertex 0.9999999999999998 21.862 0.0
  endloop
endfacet
facet normal -0.9238795325112867 -0.3826834323650902 -0.0
  outer loop
    vertex 1.0340741737109316 21.60318095489748 3.5000000000000004
    vertex 1.1339745962155612 21.362 0.0
    vertex 1.1339745962155612 21.362 3.5000000000000004
  endloop
endfacet
facet normal -0.9238795325112867 -0.3826834323650902 -0.0
  outer loop
    vertex 1.1339745962155612 21.362 0.0
    vertex 1.0340741737109316 21.60318095489748 3.5000000000000004
    vertex 1.0340741737109316 21.60318095489748 0.0
  endloop
endfacet
facet normal -0.9914448613738105 -0.13052619222005143 -0.0
  outer loop
    vertex 22.000000000000004 9.462 3.5000000000000004
    vertex 22.034074173710934 9.203180954897478 0.0
    vertex 22.034074173710934 9.203180954897478 3.5000000000000004
  endloop
endfacet
facet normal -0.9914448613738105 -0.13052619222005143 -0.0
  outer loop
    vertex 22.034074173710934 9.203180954897478 0.0
    vertex 22.000000000000004 9.462 3.5000000000000004
    vertex 22.000000000000004 9.462 0.0
  endloop
endfacet
facet normal 0.9914448613738106 0.13052619222005077 0.0
  outer loop
    vertex 23.96592582628907 22.12081904510252 0.0
    vertex 24.0 21.862 3.5000000000000004
    vertex 24.0 21.862 0.0
  endloop
endfacet
facet normal 0.9914448613738106 0.13052619222005077 0.0
  outer loop
    vertex 24.0 21.862 3.5000000000000004
    vertex 23.96592582628907 22.12081904510252 0.0
    vertex 23.96592582628907 22.12081904510252 3.5000000000000004
  endloop
endfacet
facet normal 0.7933533402912413 -0.6087614290087128 0.0
  outer loop
    vertex 23.86602540378444 21.362 0.0
    vertex 23.70710678118655 21.15489321881345 3.5000000000000004
    vertex 23.70710678118655 21.15489321881345 0.0
  endloop
endfacet
facet normal 0.7933533402912413 -0.6087614290087128 0.0
  outer loop
    vertex 23.70710678118655 21.15489321881345 3.5000000000000004
    vertex 23.86602540378444 21.362 0.0
    vertex 23.86602540378444 21.362 3.5000000000000004
  endloop
endfacet
facet normal 0.38268343236508756 -0.9238795325112878 0.0
  outer loop
    vertex 23.500000000000004 20.99597459621556 3.5000000000000004
    vertex 23.25881904510252 20.89607417371093 0.0
    vertex 23.500000000000004 20.99597459621556 0.0
  endloop
endfacet
facet normal 0.38268343236508756 -0.9238795325112878 0.0
  outer loop
    vertex 23.25881904510252 20.89607417371093 0.0
    vertex 23.500000000000004 20.99597459621556 3.5000000000000004
    vertex 23.25881904510252 20.89607417371093 3.5000000000000004
  endloop
endfacet
facet normal 0.13052619222005216 -0.9914448613738104 0.0
  outer loop
    vertex 23.25881904510252 20.89607417371093 3.5000000000000004
    vertex 23.0 20.862 0.0
    vertex 23.25881904510252 20.89607417371093 0.0
  endloop
endfacet
facet normal 0.13052619222005216 -0.9914448613738104 0.0
  outer loop
    vertex 23.0 20.862 0.0
    vertex 23.25881904510252 20.89607417371093 3.5000000000000004
    vertex 23.0 20.862 3.5000000000000004
  endloop
endfacet
facet normal 0.6087614290087179 -0.7933533402912372 0.0
  outer loop
    vertex 23.70710678118655 21.15489321881345 3.5000000000000004
    vertex 23.500000000000004 20.99597459621556 0.0
    vertex 23.70710678118655 21.15489321881345 0.0
  endloop
endfacet
facet normal 0.6087614290087179 -0.7933533402912372 0.0
  outer loop
    vertex 23.500000000000004 20.99597459621556 0.0
    vertex 23.70710678118655 21.15489321881345 3.5000000000000004
    vertex 23.500000000000004 20.99597459621556 3.5000000000000004
  endloop
endfacet
facet normal -0.6087614290087162 -0.7933533402912388 -0.0
  outer loop
    vertex 22.500000000000004 8.59597459621556 3.5000000000000004
    vertex 22.292893218813454 8.754893218813452 0.0
    vertex 22.500000000000004 8.59597459621556 0.0
  endloop
endfacet
facet normal -0.6087614290087162 -0.7933533402912388 -0.0
  outer loop
    vertex 22.292893218813454 8.754893218813452 0.0
    vertex 22.500000000000004 8.59597459621556 3.5000000000000004
    vertex 22.292893218813454 8.754893218813452 3.5000000000000004
  endloop
endfacet
facet normal 0.9914448613738104 -0.13052619222005216 0.0
  outer loop
    vertex 24.0 21.862 0.0
    vertex 23.96592582628907 21.60318095489748 3.5000000000000004
    vertex 23.96592582628907 21.60318095489748 0.0
  endloop
endfacet
facet normal 0.9914448613738104 -0.13052619222005216 0.0
  outer loop
    vertex 23.96592582628907 21.60318095489748 3.5000000000000004
    vertex 24.0 21.862 0.0
    vertex 24.0 21.862 3.5000000000000004
  endloop
endfacet
facet normal 0.9238795325112863 -0.3826834323650914 0.0
  outer loop
    vertex 23.96592582628907 21.60318095489748 0.0
    vertex 23.86602540378444 21.362 3.5000000000000004
    vertex 23.86602540378444 21.362 0.0
  endloop
endfacet
facet normal 0.9238795325112863 -0.3826834323650914 0.0
  outer loop
    vertex 23.86602540378444 21.362 3.5000000000000004
    vertex 23.96592582628907 21.60318095489748 0.0
    vertex 23.96592582628907 21.60318095489748 3.5000000000000004
  endloop
endfacet
facet normal 0.0 0.0 1.0
  outer loop
    vertex 22.03407417371093 21.60318095489748 3.5000000000000004
    vertex 22.03407417371093 22.120819045102518 3.5000000000000004
    vertex 22.0 21.862 3.5000000000000004
  endloop
endfacet
facet normal 0.0 0.0 1.0
  outer loop
    vertex 22.03407417371093 22.120819045102518 3.5000000000000004
    vertex 22.03407417371093 21.60318095489748 3.5000000000000004
    vertex 22.133974596215563 21.362 3.5000000000000004
  endloop
endfacet
facet normal 0.0 0.0 1.0
  outer loop
    vertex 22.03407417371093 22.120819045102518 3.5000000000000004
    vertex 22.133974596215563 21.362 3.5000000000000004
    vertex 22.133974596215563 22.362 3.5000000000000004
  endloop
endfacet
facet normal 0.0 0.0 1.0
  outer loop
    vertex 22.133974596215563 22.362 3.5000000000000004
    vertex 22.133974596215563 21.362 3.5000000000000004
    vertex 22.29289321881345 21.15489321881345 3.5000000000000004
  endloop
endfacet
facet normal 0.0 0.0 1.0
  outer loop
    vertex 22.133974596215563 22.362 3.5000000000000004
    vertex 22.29289321881345 21.15489321881345 3.5000000000000004
    vertex 22.29289321881345 22.569106781186544 3.5000000000000004
  endloop
endfacet
facet normal 0.0 0.0 1.0
  outer loop
    vertex 22.29289321881345 22.569106781186544 3.5000000000000004
    vertex 22.29289321881345 21.15489321881345 3.5000000000000004
    vertex 22.5 20.99597459621556 3.5000000000000004
  endloop
endfacet
facet normal 0.0 0.0 1.0
  outer loop
    vertex 22.29289321881345 22.569106781186544 3.5000000000000004
    vertex 22.5 20.99597459621556 3.5000000000000004
    vertex 22.5 22.72802540378444 3.5000000000000004
  endloop
endfacet
facet normal 0.0 0.0 1.0
  outer loop
    vertex 22.5 22.72802540378444 3.5000000000000004
    vertex 22.5 20.99597459621556 3.5000000000000004
    vertex 22.741180954897477 22.827925826289068 3.5000000000000004
  endloop
endfacet
facet normal 0.0 0.0 1.0
  outer loop
    vertex 22.741180954897477 22.827925826289068 3.5000000000000004
    vertex 22.5 20.99597459621556 3.5000000000000004
    vertex 22.74118095489748 20.89607417371093 3.5000000000000004
  endloop
endfacet
facet normal 0.0 0.0 1.0
  outer loop
    vertex 22.741180954897477 22.827925826289068 3.5000000000000004
    vertex 22.74118095489748 20.89607417371093 3.5000000000000004
    vertex 23.0 22.862 3.5000000000000004
  endloop
endfacet
facet normal 0.0 0.0 1.0
  outer loop
    vertex 23.0 22.862 3.5000000000000004
    vertex 22.74118095489748 20.89607417371093 3.5000000000000004
    vertex 23.0 20.862 3.5000000000000004
  endloop
endfacet
facet normal 0.0 0.0 1.0
  outer loop
    vertex 23.0 22.862 3.5000000000000004
    vertex 23.0 20.862 3.5000000000000004
    vertex 23.25881904510252 20.89607417371093 3.5000000000000004
  endloop
endfacet
facet normal 0.0 0.0 1.0
  outer loop
    vertex 23.0 22.862 3.5000000000000004
    vertex 23.25881904510252 20.89607417371093 3.5000000000000004
    vertex 23.25881904510252 22.827925826289068 3.5000000000000004
  endloop
endfacet
facet normal 0.0 0.0 1.0
  outer loop
    vertex 23.25881904510252 22.827925826289068 3.5000000000000004
    vertex 23.25881904510252 20.89607417371093 3.5000000000000004
    vertex 23.500000000000004 20.99597459621556 3.5000000000000004
  endloop
endfacet
facet normal 0.0 0.0 1.0
  outer loop
    vertex 23.25881904510252 22.827925826289068 3.5000000000000004
    vertex 23.500000000000004 20.99597459621556 3.5000000000000004
    vertex 23.5 22.72802540378444 3.5000000000000004
  endloop
endfacet
facet normal 0.0 0.0 1.0
  outer loop
    vertex 23.5 22.72802540378444 3.5000000000000004
    vertex 23.500000000000004 20.99597459621556 3.5000000000000004
    vertex 23.70710678118655 22.569106781186548 3.5000000000000004
  endloop
endfacet
facet normal 0.0 0.0 1.0
  outer loop
    vertex 23.70710678118655 22.569106781186548 3.5000000000000004
    vertex 23.500000000000004 20.99597459621556 3.5000000000000004
    vertex 23.70710678118655 21.15489321881345 3.5000000000000004
  endloop
endfacet
facet normal 0.0 0.0 1.0
  outer loop
    vertex 23.70710678118655 22.569106781186548 3.5000000000000004
    vertex 23.70710678118655 21.15489321881345 3.5000000000000004
    vertex 23.86602540378444 21.362 3.5000000000000004
  endloop
endfacet
facet normal 0.0 0.0 1.0
  outer loop
    vertex 23.70710678118655 22.569106781186548 3.5000000000000004
    vertex 23.86602540378444 21.362 3.5000000000000004
    vertex 23.86602540378444 22.362000000000002 3.5000000000000004
  endloop
endfacet
facet normal 0.0 0.0 1.0
  outer loop
    vertex 23.86602540378444 22.362000000000002 3.5000000000000004
    vertex 23.86602540378444 21.362 3.5000000000000004
    vertex 23.96592582628907 21.60318095489748 3.5000000000000004
  endloop
endfacet
facet normal 0.0 0.0 1.0
  outer loop
    vertex 23.86602540378444 22.362000000000002 3.5000000000000004
    vertex 23.96592582628907 21.60318095489748 3.5000000000000004
    vertex 23.96592582628907 22.12081904510252 3.5000000000000004
  endloop
endfacet
facet normal 0.0 0.0 1.0
  outer loop
    vertex 23.96592582628907 22.12081904510252 3.5000000000000004
    vertex 23.96592582628907 21.60318095489748 3.5000000000000004
    vertex 24.0 21.862 3.5000000000000004
  endloop
endfacet
facet normal -0.9914448613738104 0.13052619222005216 0.0
  outer loop
    vertex 22.034074173710934 9.72081904510252 3.5000000000000004
    vertex 22.000000000000004 9.462 0.0
    vertex 22.000000000000004 9.462 3.5000000000000004
  endloop
endfacet
facet normal -0.9914448613738104 0.13052619222005216 0.0
  outer loop
    vertex 22.000000000000004 9.462 0.0
    vertex 22.034074173710934 9.72081904510252 3.5000000000000004
    vertex 22.034074173710934 9.72081904510252 0.0
  endloop
endfacet
facet normal -0.3826834323650914 -0.9238795325112863 -0.0
  outer loop
    vertex 22.741180954897484 8.49607417371093 3.5000000000000004
    vertex 22.500000000000004 8.59597459621556 0.0
    vertex 22.741180954897484 8.49607417371093 0.0
  endloop
endfacet
facet normal -0.3826834323650914 -0.9238795325112863 -0.0
  outer loop
    vertex 22.500000000000004 8.59597459621556 0.0
    vertex 22.741180954897484 8.49607417371093 3.5000000000000004
    vertex 22.500000000000004 8.59597459621556 3.5000000000000004
  endloop
endfacet
facet normal -0.13052619222005216 -0.9914448613738104 -0.0
  outer loop
    vertex 23.000000000000004 8.462 3.5000000000000004
    vertex 22.741180954897484 8.49607417371093 0.0
    vertex 23.000000000000004 8.462 0.0
  endloop
endfacet
facet normal -0.13052619222005216 -0.9914448613738104 -0.0
  outer loop
    vertex 22.741180954897484 8.49607417371093 0.0
    vertex 23.000000000000004 8.462 3.5000000000000004
    vertex 22.741180954897484 8.49607417371093 3.5000000000000004
  endloop
endfacet
facet normal -0.3826834323650914 0.9238795325112863 0.0
  outer loop
    vertex 22.5 10.328025403784439 3.5000000000000004
    vertex 22.74118095489748 10.42792582628907 0.0
    vertex 22.5 10.328025403784439 0.0
  endloop
endfacet
facet normal -0.3826834323650914 0.9238795325112863 0.0
  outer loop
    vertex 22.74118095489748 10.42792582628907 0.0
    vertex 22.5 10.328025403784439 3.5000000000000004
    vertex 22.74118095489748 10.42792582628907 3.5000000000000004
  endloop
endfacet
facet normal 0.13052619222005216 0.9914448613738104 0.0
  outer loop
    vertex 23.000000000000004 10.462000000000002 3.5000000000000004
    vertex 23.258819045102523 10.42792582628907 0.0
    vertex 23.000000000000004 10.462000000000002 0.0
  endloop
endfacet
facet normal 0.13052619222005216 0.9914448613738104 0.0
  outer loop
    vertex 23.258819045102523 10.42792582628907 0.0
    vertex 23.000000000000004 10.462000000000002 3.5000000000000004
    vertex 23.258819045102523 10.42792582628907 3.5000000000000004
  endloop
endfacet
facet normal -0.6087614290087213 0.7933533402912347 0.0
  outer loop
    vertex 22.292893218813454 10.169106781186548 3.5000000000000004
    vertex 22.5 10.328025403784439 0.0
    vertex 22.292893218813454 10.169106781186548 0.0
  endloop
endfacet
facet normal -0.6087614290087213 0.7933533402912347 0.0
  outer loop
    vertex 22.5 10.328025403784439 0.0
    vertex 22.292893218813454 10.169106781186548 3.5000000000000004
    vertex 22.5 10.328025403784439 3.5000000000000004
  endloop
endfacet
facet normal 0.6087614290087195 0.793353340291236 0.0
  outer loop
    vertex 23.500000000000004 10.32802540378444 3.5000000000000004
    vertex 23.707106781186553 10.169106781186548 0.0
    vertex 23.500000000000004 10.32802540378444 0.0
  endloop
endfacet
facet normal 0.6087614290087195 0.793353340291236 0.0
  outer loop
    vertex 23.707106781186553 10.169106781186548 0.0
    vertex 23.500000000000004 10.32802540378444 3.5000000000000004
    vertex 23.707106781186553 10.169106781186548 3.5000000000000004
  endloop
endfacet
facet normal -0.13052619222005077 0.9914448613738106 0.0
  outer loop
    vertex 22.74118095489748 10.42792582628907 3.5000000000000004
    vertex 23.000000000000004 10.462000000000002 0.0
    vertex 22.74118095489748 10.42792582628907 0.0
  endloop
endfacet
facet normal -0.13052619222005077 0.9914448613738106 0.0
  outer loop
    vertex 23.000000000000004 10.462000000000002 0.0
    vertex 22.74118095489748 10.42792582628907 3.5000000000000004
    vertex 23.000000000000004 10.462000000000002 3.5000000000000004
  endloop
endfacet
facet normal 0.9238795325112863 0.3826834323650914 0.0
  outer loop
    vertex 23.86602540378444 9.962000000000002 0.0
    vertex 23.965925826289073 9.720819045102521 3.5000000000000004
    vertex 23.965925826289073 9.720819045102521 0.0
  endloop
endfacet
facet normal 0.9238795325112863 0.3826834323650914 0.0
  outer loop
    vertex 23.965925826289073 9.720819045102521 3.5000000000000004
    vertex 23.86602540378444 9.962000000000002 0.0
    vertex 23.86602540378444 9.962000000000002 3.5000000000000004
  endloop
endfacet
facet normal 0.3826834323650867 0.9238795325112881 0.0
  outer loop
    vertex 23.258819045102523 10.42792582628907 3.5000000000000004
    vertex 23.500000000000004 10.32802540378444 0.0
    vertex 23.258819045102523 10.42792582628907 0.0
  endloop
endfacet
facet normal 0.3826834323650867 0.9238795325112881 0.0
  outer loop
    vertex 23.500000000000004 10.32802540378444 0.0
    vertex 23.258819045102523 10.42792582628907 3.5000000000000004
    vertex 23.500000000000004 10.32802540378444 3.5000000000000004
  endloop
endfacet
facet normal 0.9914448613738105 -0.13052619222005143 0.0
  outer loop
    vertex 24.000000000000004 9.462 0.0
    vertex 23.965925826289073 9.203180954897478 3.5000000000000004
    vertex 23.965925826289073 9.203180954897478 0.0
  endloop
endfacet
facet normal 0.9914448613738105 -0.13052619222005143 0.0
  outer loop
    vertex 23.965925826289073 9.203180954897478 3.5000000000000004
    vertex 24.000000000000004 9.462 0.0
    vertex 24.000000000000004 9.462 3.5000000000000004
  endloop
endfacet
facet normal 0.7933533402912372 0.6087614290087179 0.0
  outer loop
    vertex 23.707106781186553 10.169106781186548 0.0
    vertex 23.86602540378444 9.962000000000002 3.5000000000000004
    vertex 23.86602540378444 9.962000000000002 0.0
  endloop
endfacet
facet normal 0.7933533402912372 0.6087614290087179 0.0
  outer loop
    vertex 23.86602540378444 9.962000000000002 3.5000000000000004
    vertex 23.707106781186553 10.169106781186548 0.0
    vertex 23.707106781186553 10.169106781186548 3.5000000000000004
  endloop
endfacet
facet normal 0.7933533402912372 -0.6087614290087179 0.0
  outer loop
    vertex 23.86602540378444 8.962 0.0
    vertex 23.707106781186553 8.754893218813452 3.5000000000000004
    vertex 23.707106781186553 8.754893218813452 0.0
  endloop
endfacet
facet normal 0.7933533402912372 -0.6087614290087179 0.0
  outer loop
    vertex 23.707106781186553 8.754893218813452 3.5000000000000004
    vertex 23.86602540378444 8.962 0.0
    vertex 23.86602540378444 8.962 3.5000000000000004
  endloop
endfacet
facet normal 0.9914448613738105 0.13052619222005143 0.0
  outer loop
    vertex 23.965925826289073 9.720819045102521 0.0
    vertex 24.000000000000004 9.462 3.5000000000000004
    vertex 24.000000000000004 9.462 0.0
  endloop
endfacet
facet normal 0.9914448613738105 0.13052619222005143 0.0
  outer loop
    vertex 24.000000000000004 9.462 3.5000000000000004
    vertex 23.965925826289073 9.720819045102521 0.0
    vertex 23.965925826289073 9.720819045102521 3.5000000000000004
  endloop
endfacet
facet normal 0.38268343236508756 -0.9238795325112878 0.0
  outer loop
    vertex 23.500000000000004 8.59597459621556 3.5000000000000004
    vertex 23.258819045102523 8.49607417371093 0.0
    vertex 23.500000000000004 8.59597459621556 0.0
  endloop
endfacet
facet normal 0.38268343236508756 -0.9238795325112878 0.0
  outer loop
    vertex 23.258819045102523 8.49607417371093 0.0
    vertex 23.500000000000004 8.59597459621556 3.5000000000000004
    vertex 23.258819045102523 8.49607417371093 3.5000000000000004
  endloop
endfacet
facet normal 0.9238795325112863 -0.3826834323650914 0.0
  outer loop
    vertex 23.965925826289073 9.203180954897478 0.0
    vertex 23.86602540378444 8.962 3.5000000000000004
    vertex 23.86602540378444 8.962 0.0
  endloop
endfacet
facet normal 0.9238795325112863 -0.3826834323650914 0.0
  outer loop
    vertex 23.86602540378444 8.962 3.5000000000000004
    vertex 23.965925826289073 9.203180954897478 0.0
    vertex 23.965925826289073 9.203180954897478 3.5000000000000004
  endloop
endfacet
facet normal 0.13052619222005216 -0.9914448613738104 0.0
  outer loop
    vertex 23.258819045102523 8.49607417371093 3.5000000000000004
    vertex 23.000000000000004 8.462 0.0
    vertex 23.258819045102523 8.49607417371093 0.0
  endloop
endfacet
facet normal 0.13052619222005216 -0.9914448613738104 0.0
  outer loop
    vertex 23.000000000000004 8.462 0.0
    vertex 23.258819045102523 8.49607417371093 3.5000000000000004
    vertex 23.000000000000004 8.462 3.5000000000000004
  endloop
endfacet
facet normal 0.6087614290087213 -0.7933533402912347 0.0
  outer loop
    vertex 23.707106781186553 8.754893218813452 3.5000000000000004
    vertex 23.500000000000004 8.59597459621556 0.0
    vertex 23.707106781186553 8.754893218813452 0.0
  endloop
endfacet
facet normal 0.6087614290087213 -0.7933533402912347 0.0
  outer loop
    vertex 23.500000000000004 8.59597459621556 0.0
    vertex 23.707106781186553 8.754893218813452 3.5000000000000004
    vertex 23.500000000000004 8.59597459621556 3.5000000000000004
  endloop
endfacet
facet normal -0.923879532511287 0.3826834323650894 0.0
  outer loop
    vertex 22.133974596215563 9.962000000000002 3.5000000000000004
    vertex 22.034074173710934 9.72081904510252 0.0
    vertex 22.034074173710934 9.72081904510252 3.5000000000000004
  endloop
endfacet
facet normal -0.923879532511287 0.3826834323650894 0.0
  outer loop
    vertex 22.034074173710934 9.72081904510252 0.0
    vertex 22.133974596215563 9.962000000000002 3.5000000000000004
    vertex 22.133974596215563 9.962000000000002 0.0
  endloop
endfacet
facet normal -0.7933533402912372 0.6087614290087179 0.0
  outer loop
    vertex 22.292893218813454 10.169106781186548 3.5000000000000004
    vertex 22.133974596215563 9.962000000000002 0.0
    vertex 22.133974596215563 9.962000000000002 3.5000000000000004
  endloop
endfacet
facet normal -0.7933533402912372 0.6087614290087179 0.0
  outer loop
    vertex 22.133974596215563 9.962000000000002 0.0
    vertex 22.292893218813454 10.169106781186548 3.5000000000000004
    vertex 22.292893218813454 10.169106781186548 0.0
  endloop
endfacet
facet normal -0.7933533402912372 -0.6087614290087179 -0.0
  outer loop
    vertex 22.133974596215563 8.962 3.5000000000000004
    vertex 22.292893218813454 8.754893218813452 0.0
    vertex 22.292893218813454 8.754893218813452 3.5000000000000004
  endloop
endfacet
facet normal -0.7933533402912372 -0.6087614290087179 -0.0
  outer loop
    vertex 22.292893218813454 8.754893218813452 0.0
    vertex 22.133974596215563 8.962 3.5000000000000004
    vertex 22.133974596215563 8.962 0.0
  endloop
endfacet
facet normal -0.9238795325112863 -0.3826834323650914 -0.0
  outer loop
    vertex 22.034074173710934 9.203180954897478 3.5000000000000004
    vertex 22.133974596215563 8.962 0.0
    vertex 22.133974596215563 8.962 3.5000000000000004
  endloop
endfacet
facet normal -0.9238795325112863 -0.3826834323650914 -0.0
  outer loop
    vertex 22.133974596215563 8.962 0.0
    vertex 22.034074173710934 9.203180954897478 3.5000000000000004
    vertex 22.034074173710934 9.203180954897478 0.0
  endloop
endfacet
facet normal 0.0 0.0 1.0
  outer loop
    vertex 22.034074173710934 9.203180954897478 3.5000000000000004
    vertex 22.034074173710934 9.72081904510252 3.5000000000000004
    vertex 22.000000000000004 9.462 3.5000000000000004
  endloop
endfacet
facet normal 0.0 0.0 1.0
  outer loop
    vertex 22.034074173710934 9.72081904510252 3.5000000000000004
    vertex 22.034074173710934 9.203180954897478 3.5000000000000004
    vertex 22.133974596215563 8.962 3.5000000000000004
  endloop
endfacet
facet normal 0.0 0.0 1.0
  outer loop
    vertex 22.034074173710934 9.72081904510252 3.5000000000000004
    vertex 22.133974596215563 8.962 3.5000000000000004
    vertex 22.133974596215563 9.962000000000002 3.5000000000000004
  endloop
endfacet
facet normal 0.0 0.0 1.0
  outer loop
    vertex 22.133974596215563 9.962000000000002 3.5000000000000004
    vertex 22.133974596215563 8.962 3.5000000000000004
    vertex 22.292893218813454 8.754893218813452 3.5000000000000004
  endloop
endfacet
facet normal 0.0 0.0 1.0
  outer loop
    vertex 22.133974596215563 9.962000000000002 3.5000000000000004
    vertex 22.292893218813454 8.754893218813452 3.5000000000000004
    vertex 22.292893218813454 10.169106781186548 3.5000000000000004
  endloop
endfacet
facet normal 0.0 0.0 1.0
  outer loop
    vertex 22.292893218813454 10.169106781186548 3.5000000000000004
    vertex 22.292893218813454 8.754893218813452 3.5000000000000004
    vertex 22.500000000000004 8.59597459621556 3.5000000000000004
  endloop
endfacet
facet normal 0.0 0.0 1.0
  outer loop
    vertex 22.292893218813454 10.169106781186548 3.5000000000000004
    vertex 22.500000000000004 8.59597459621556 3.5000000000000004
    vertex 22.5 10.328025403784439 3.5000000000000004
  endloop
endfacet
facet normal 0.0 0.0 1.0
  outer loop
    vertex 22.5 10.328025403784439 3.5000000000000004
    vertex 22.500000000000004 8.59597459621556 3.5000000000000004
    vertex 22.74118095489748 10.42792582628907 3.5000000000000004
  endloop
endfacet
facet normal 0.0 0.0 1.0
  outer loop
    vertex 22.74118095489748 10.42792582628907 3.5000000000000004
    vertex 22.500000000000004 8.59597459621556 3.5000000000000004
    vertex 22.741180954897484 8.49607417371093 3.5000000000000004
  endloop
endfacet
facet normal 0.0 0.0 1.0
  outer loop
    vertex 22.74118095489748 10.42792582628907 3.5000000000000004
    vertex 22.741180954897484 8.49607417371093 3.5000000000000004
    vertex 23.000000000000004 10.462000000000002 3.5000000000000004
  endloop
endfacet
facet normal 0.0 0.0 1.0
  outer loop
    vertex 23.000000000000004 10.462000000000002 3.5000000000000004
    vertex 22.741180954897484 8.49607417371093 3.5000000000000004
    vertex 23.000000000000004 8.462 3.5000000000000004
  endloop
endfacet
facet normal 0.0 0.0 1.0
  outer loop
    vertex 23.000000000000004 10.462000000000002 3.5000000000000004
    vertex 23.000000000000004 8.462 3.5000000000000004
    vertex 23.258819045102523 8.49607417371093 3.5000000000000004
  endloop
endfacet
facet normal 0.0 0.0 1.0
  outer loop
    vertex 23.000000000000004 10.462000000000002 3.5000000000000004
    vertex 23.258819045102523 8.49607417371093 3.5000000000000004
    vertex 23.258819045102523 10.42792582628907 3.5000000000000004
  endloop
endfacet
facet normal 0.0 0.0 1.0
  outer loop
    vertex 23.258819045102523 10.42792582628907 3.5000000000000004
    vertex 23.258819045102523 8.49607417371093 3.5000000000000004
    vertex 23.500000000000004 8.59597459621556 3.5000000000000004
  endloop
endfacet
facet normal 0.0 0.0 1.0
  outer loop
    vertex 23.258819045102523 10.42792582628907 3.5000000000000004
    vertex 23.500000000000004 8.59597459621556 3.5000000000000004
    vertex 23.500000000000004 10.32802540378444 3.5000000000000004
  endloop
endfacet
facet normal 0.0 0.0 1.0
  outer loop
    vertex 23.500000000000004 10.32802540378444 3.5000000000000004
    vertex 23.500000000000004 8.59597459621556 3.5000000000000004
    vertex 23.707106781186553 10.169106781186548 3.5000000000000004
  endloop
endfacet
facet normal 0.0 0.0 1.0
  outer loop
    vertex 23.707106781186553 10.169106781186548 3.5000000000000004
    vertex 23.500000000000004 8.59597459621556 3.5000000000000004
    vertex 23.707106781186553 8.754893218813452 3.5000000000000004
  endloop
endfacet
facet normal 0.0 0.0 1.0
  outer loop
    vertex 23.707106781186553 10.169106781186548 3.5000000000000004
    vertex 23.707106781186553 8.754893218813452 3.5000000000000004
    vertex 23.86602540378444 8.962 3.5000000000000004
  endloop
endfacet
facet normal 0.0 0.0 1.0
  outer loop
    vertex 23.707106781186553 10.169106781186548 3.5000000000000004
    vertex 23.86602540378444 8.962 3.5000000000000004
    vertex 23.86602540378444 9.962000000000002 3.5000000000000004
  endloop
endfacet
facet normal 0.0 0.0 1.0
  outer loop
    vertex 23.86602540378444 9.962000000000002 3.5000000000000004
    vertex 23.86602540378444 8.962 3.5000000000000004
    vertex 23.965925826289073 9.203180954897478 3.5000000000000004
  endloop
endfacet
facet normal 0.0 0.0 1.0
  outer loop
    vertex 23.86602540378444 9.962000000000002 3.5000000000000004
    vertex 23.965925826289073 9.203180954897478 3.5000000000000004
    vertex 23.965925826289073 9.720819045102521 3.5000000000000004
  endloop
endfacet
facet normal 0.0 0.0 1.0
  outer loop
    vertex 23.965925826289073 9.720819045102521 3.5000000000000004
    vertex 23.965925826289073 9.203180954897478 3.5000000000000004
    vertex 24.000000000000004 9.462 3.5000000000000004
  endloop
endfacet
facet normal 0.0 0.0 1.0
  outer loop
    vertex 14.500000000000002 21.862 2.499999999999999
    vertex 10.500000000000002 23.862 2.499999999999999
    vertex 10.500000000000002 21.862 2.499999999999999
  endloop
endfacet
facet normal 0.0 0.0 1.0
  outer loop
    vertex 10.500000000000002 23.862 2.499999999999999
    vertex 14.500000000000002 21.862 2.499999999999999
    vertex 14.500000000000002 23.862 2.499999999999999
  endloop
endfacet
facet normal -1.0 -0.0 -0.0
  outer loop
    vertex 10.500000000000002 23.862 2.499999999999999
    vertex 10.500000000000002 21.862 0.0
    vertex 10.500000000000002 21.862 2.499999999999999
  endloop
endfacet
facet normal -1.0 -0.0 -0.0
  outer loop
    vertex 10.500000000000002 21.862 0.0
    vertex 10.500000000000002 23.862 2.499999999999999
    vertex 10.500000000000002 23.862 0.0
  endloop
endfacet
facet normal 0.0 -1.0 0.0
  outer loop
    vertex 14.500000000000002 21.862 2.499999999999999
    vertex 10.500000000000002 21.862 0.0
    vertex 14.500000000000002 21.862 0.0
  endloop
endfacet
facet normal 0.0 -1.0 0.0
  outer loop
    vertex 10.500000000000002 21.862 0.0
    vertex 14.500000000000002 21.862 2.499999999999999
    vertex 10.500000000000002 21.862 2.499999999999999
  endloop
endfacet
facet normal 1.0 0.0 0.0
  outer loop
    vertex 14.500000000000002 23.862 0.0
    vertex 14.500000000000002 21.862 2.499999999999999
    vertex 14.500000000000002 21.862 0.0
  endloop
endfacet
facet normal 1.0 0.0 0.0
  outer loop
    vertex 14.500000000000002 21.862 2.499999999999999
    vertex 14.500000000000002 23.862 0.0
    vertex 14.500000000000002 23.862 2.499999999999999
  endloop
endfacet
facet normal 0.0 1.0 0.0
  outer loop
    vertex 0.0 24.862 0.0
    vertex 25.000000000000004 24.862 -0.9999999999999999
    vertex 0.0 24.862 -0.9999999999999999
  endloop
endfacet
facet normal 0.0 1.0 0.0
  outer loop
    vertex 25.000000000000004 24.862 -0.9999999999999999
    vertex 0.0 24.862 0.0
    vertex 25.000000000000004 24.862 0.0
  endloop
endfacet
facet normal 0.0 0.0 1.0
  outer loop
    vertex 22.000000000000004 9.462 0.0
    vertex 22.03407417371093 21.60318095489748 0.0
    vertex 22.0 21.862 0.0
  endloop
endfacet
facet normal 0.0 0.0 1.0
  outer loop
    vertex 22.03407417371093 21.60318095489748 0.0
    vertex 22.000000000000004 9.462 0.0
    vertex 22.034074173710934 9.72081904510252 0.0
  endloop
endfacet
facet normal 0.0 0.0 1.0
  outer loop
    vertex 22.03407417371093 21.60318095489748 0.0
    vertex 22.034074173710934 9.72081904510252 0.0
    vertex 22.133974596215563 21.362 0.0
  endloop
endfacet
facet normal 0.0 0.0 1.0
  outer loop
    vertex 22.133974596215563 21.362 0.0
    vertex 22.034074173710934 9.72081904510252 0.0
    vertex 22.133974596215563 9.962000000000002 0.0
  endloop
endfacet
facet normal 0.0 0.0 1.0
  outer loop
    vertex 22.133974596215563 21.362 0.0
    vertex 22.133974596215563 9.962000000000002 0.0
    vertex 22.29289321881345 21.15489321881345 0.0
  endloop
endfacet
facet normal 0.0 0.0 1.0
  outer loop
    vertex 22.29289321881345 21.15489321881345 0.0
    vertex 22.133974596215563 9.962000000000002 0.0
    vertex 22.292893218813454 10.169106781186548 0.0
  endloop
endfacet
facet normal 0.0 0.0 1.0
  outer loop
    vertex 22.29289321881345 21.15489321881345 0.0
    vertex 22.292893218813454 10.169106781186548 0.0
    vertex 22.5 20.99597459621556 0.0
  endloop
endfacet
facet normal 0.0 0.0 1.0
  outer loop
    vertex 22.5 20.99597459621556 0.0
    vertex 22.292893218813454 10.169106781186548 0.0
    vertex 22.5 10.328025403784439 0.0
  endloop
endfacet
facet normal 0.0 0.0 1.0
  outer loop
    vertex 22.5 20.99597459621556 0.0
    vertex 22.5 10.328025403784439 0.0
    vertex 22.74118095489748 10.42792582628907 0.0
  endloop
endfacet
facet normal 0.0 0.0 1.0
  outer loop
    vertex 22.5 20.99597459621556 0.0
    vertex 22.74118095489748 10.42792582628907 0.0
    vertex 22.74118095489748 20.89607417371093 0.0
  endloop
endfacet
facet normal 0.0 0.0 1.0
  outer loop
    vertex 22.74118095489748 20.89607417371093 0.0
    vertex 22.74118095489748 10.42792582628907 0.0
    vertex 23.000000000000004 10.462000000000002 0.0
  endloop
endfacet
facet normal 0.0 0.0 1.0
  outer loop
    vertex 22.74118095489748 20.89607417371093 0.0
    vertex 23.000000000000004 10.462000000000002 0.0
    vertex 23.0 20.862 0.0
  endloop
endfacet
facet normal 0.0 0.0 1.0
  outer loop
    vertex 23.0 20.862 0.0
    vertex 23.000000000000004 10.462000000000002 0.0
    vertex 23.25881904510252 20.89607417371093 0.0
  endloop
endfacet
facet normal 0.0 0.0 1.0
  outer loop
    vertex 23.25881904510252 20.89607417371093 0.0
    vertex 23.000000000000004 10.462000000000002 0.0
    vertex 23.258819045102523 10.42792582628907 0.0
  endloop
endfacet
facet normal 0.0 0.0 1.0
  outer loop
    vertex 23.25881904510252 20.89607417371093 0.0
    vertex 23.258819045102523 10.42792582628907 0.0
    vertex 23.500000000000004 20.99597459621556 0.0
  endloop
endfacet
facet normal 0.0 0.0 1.0
  outer loop
    vertex 23.500000000000004 20.99597459621556 0.0
    vertex 23.258819045102523 10.42792582628907 0.0
    vertex 23.500000000000004 10.32802540378444 0.0
  endloop
endfacet
facet normal 0.0 0.0 1.0
  outer loop
    vertex 23.500000000000004 20.99597459621556 0.0
    vertex 23.500000000000004 10.32802540378444 0.0
    vertex 23.707106781186553 10.169106781186548 0.0
  endloop
endfacet
facet normal 0.0 0.0 1.0
  outer loop
    vertex 23.500000000000004 20.99597459621556 0.0
    vertex 23.707106781186553 10.169106781186548 0.0
    vertex 23.70710678118655 21.15489321881345 0.0
  endloop
endfacet
facet normal 0.0 0.0 1.0
  outer loop
    vertex 23.70710678118655 21.15489321881345 0.0
    vertex 23.707106781186553 10.169106781186548 0.0
    vertex 23.86602540378444 21.362 0.0
  endloop
endfacet
facet normal 0.0 0.0 1.0
  outer loop
    vertex 23.86602540378444 21.362 0.0
    vertex 23.707106781186553 10.169106781186548 0.0
    vertex 23.86602540378444 9.962000000000002 0.0
  endloop
endfacet
facet normal 0.0 0.0 1.0
  outer loop
    vertex 23.86602540378444 21.362 0.0
    vertex 23.86602540378444 9.962000000000002 0.0
    vertex 23.96592582628907 21.60318095489748 0.0
  endloop
endfacet
facet normal 0.0 0.0 1.0
  outer loop
    vertex 23.96592582628907 21.60318095489748 0.0
    vertex 23.86602540378444 9.962000000000002 0.0
    vertex 23.965925826289073 9.720819045102521 0.0
  endloop
endfacet
facet normal 0.0 0.0 1.0
  outer loop
    vertex 23.96592582628907 21.60318095489748 0.0
    vertex 23.965925826289073 9.720819045102521 0.0
    vertex 24.0 21.862 0.0
  endloop
endfacet
facet normal 0.0 0.0 1.0
  outer loop
    vertex 24.0 21.862 0.0
    vertex 23.965925826289073 9.720819045102521 0.0
    vertex 24.000000000000004 9.462 0.0
  endloop
endfacet
facet normal 0.0 0.0 1.0
  outer loop
    vertex 0.0 0.0 0.0
    vertex 1.0000000000000004 9.462 0.0
    vertex 0.0 24.862 0.0
  endloop
endfacet
facet normal 0.0 0.0 1.0
  outer loop
    vertex 1.0000000000000004 9.462 0.0
    vertex 0.0 0.0 0.0
    vertex 1.0340741737109322 9.203180954897478 0.0
  endloop
endfacet
facet normal 0.0 0.0 1.0
  outer loop
    vertex 1.0340741737109322 9.203180954897478 0.0
    vertex 0.0 0.0 0.0
    vertex 1.1339745962155618 8.962 0.0
  endloop
endfacet
facet normal 0.0 0.0 1.0
  outer loop
    vertex 1.1339745962155618 8.962 0.0
    vertex 0.0 0.0 0.0
    vertex 1.2928932188134528 8.754893218813452 0.0
  endloop
endfacet
facet normal 0.0 0.0 1.0
  outer loop
    vertex 1.2928932188134528 8.754893218813452 0.0
    vertex 0.0 0.0 0.0
    vertex 1.5000000000000007 8.59597459621556 0.0
  endloop
endfacet
facet normal 0.0 0.0 1.0
  outer loop
    vertex 1.5000000000000007 8.59597459621556 0.0
    vertex 0.0 0.0 0.0
    vertex 1.7411809548974795 8.496074173710932 0.0
  endloop
endfacet
facet normal 0.0 0.0 1.0
  outer loop
    vertex 1.7411809548974795 8.496074173710932 0.0
    vertex 0.0 0.0 0.0
    vertex 25.000000000000004 0.0 0.0
  endloop
endfacet
facet normal 0.0 0.0 1.0
  outer loop
    vertex 0.0 24.862 0.0
    vertex 1.0000000000000004 9.462 0.0
    vertex 0.9999999999999998 21.862 0.0
  endloop
endfacet
facet normal 0.0 0.0 1.0
  outer loop
    vertex 1.7411809548974795 8.496074173710932 0.0
    vertex 25.000000000000004 0.0 0.0
    vertex 2.0 8.462 0.0
  endloop
endfacet
facet normal 0.0 0.0 1.0
  outer loop
    vertex 2.0 8.462 0.0
    vertex 25.000000000000004 0.0 0.0
    vertex 2.258819045102521 8.496074173710932 0.0
  endloop
endfacet
facet normal 0.0 0.0 1.0
  outer loop
    vertex 2.258819045102521 8.496074173710932 0.0
    vertex 25.000000000000004 0.0 0.0
    vertex 2.5000000000000004 8.595974596215562 0.0
  endloop
endfacet
facet normal 0.0 0.0 1.0
  outer loop
    vertex 2.5000000000000004 8.595974596215562 0.0
    vertex 25.000000000000004 0.0 0.0
    vertex 2.707106781186548 8.754893218813452 0.0
  endloop
endfacet
facet normal 0.0 0.0 1.0
  outer loop
    vertex 2.707106781186548 8.754893218813452 0.0
    vertex 25.000000000000004 0.0 0.0
    vertex 2.866025403784439 8.962 0.0
  endloop
endfacet
facet normal 0.0 0.0 1.0
  outer loop
    vertex 2.866025403784439 8.962 0.0
    vertex 25.000000000000004 0.0 0.0
    vertex 2.965925826289068 9.203180954897478 0.0
  endloop
endfacet
facet normal 0.0 0.0 1.0
  outer loop
    vertex 2.965925826289068 9.203180954897478 0.0
    vertex 25.000000000000004 0.0 0.0
    vertex 3.0 9.462 0.0
  endloop
endfacet
facet normal 0.0 0.0 1.0
  outer loop
    vertex 3.0 9.462 0.0
    vertex 25.000000000000004 0.0 0.0
    vertex 10.500000000000002 21.862 0.0
  endloop
endfacet
facet normal 0.0 0.0 1.0
  outer loop
    vertex 10.500000000000002 21.862 0.0
    vertex 25.000000000000004 0.0 0.0
    vertex 14.500000000000002 21.862 0.0
  endloop
endfacet
facet normal 0.0 0.0 1.0
  outer loop
    vertex 14.500000000000002 21.862 0.0
    vertex 25.000000000000004 0.0 0.0
    vertex 14.500000000000002 23.862 0.0
  endloop
endfacet
facet normal 0.0 0.0 1.0
  outer loop
    vertex 14.500000000000002 23.862 0.0
    vertex 25.000000000000004 0.0 0.0
    vertex 22.034074173710934 9.203180954897478 0.0
  endloop
endfacet
facet normal 0.0 0.0 1.0
  outer loop
    vertex 14.500000000000002 23.862 0.0
    vertex 22.034074173710934 9.203180954897478 0.0
    vertex 22.000000000000004 9.462 0.0
  endloop
endfacet
facet normal 0.0 0.0 1.0
  outer loop
    vertex 14.500000000000002 23.862 0.0
    vertex 22.000000000000004 9.462 0.0
    vertex 22.0 21.862 0.0
  endloop
endfacet
facet normal 0.0 0.0 1.0
  outer loop
    vertex 22.034074173710934 9.203180954897478 0.0
    vertex 25.000000000000004 0.0 0.0
    vertex 22.133974596215563 8.962 0.0
  endloop
endfacet
facet normal 0.0 0.0 1.0
  outer loop
    vertex 22.133974596215563 8.962 0.0
    vertex 25.000000000000004 0.0 0.0
    vertex 22.292893218813454 8.754893218813452 0.0
  endloop
endfacet
facet normal 0.0 0.0 1.0
  outer loop
    vertex 22.292893218813454 8.754893218813452 0.0
    vertex 25.000000000000004 0.0 0.0
    vertex 22.500000000000004 8.59597459621556 0.0
  endloop
endfacet
facet normal 0.0 0.0 1.0
  outer loop
    vertex 22.500000000000004 8.59597459621556 0.0
    vertex 25.000000000000004 0.0 0.0
    vertex 22.741180954897484 8.49607417371093 0.0
  endloop
endfacet
facet normal 0.0 0.0 1.0
  outer loop
    vertex 22.741180954897484 8.49607417371093 0.0
    vertex 25.000000000000004 0.0 0.0
    vertex 23.000000000000004 8.462 0.0
  endloop
endfacet
facet normal 0.0 0.0 1.0
  outer loop
    vertex 23.000000000000004 8.462 0.0
    vertex 25.000000000000004 0.0 0.0
    vertex 23.258819045102523 8.49607417371093 0.0
  endloop
endfacet
facet normal 0.0 0.0 1.0
  outer loop
    vertex 23.258819045102523 8.49607417371093 0.0
    vertex 25.000000000000004 0.0 0.0
    vertex 23.500000000000004 8.59597459621556 0.0
  endloop
endfacet
facet normal 0.0 0.0 1.0
  outer loop
    vertex 23.500000000000004 8.59597459621556 0.0
    vertex 25.000000000000004 0.0 0.0
    vertex 23.707106781186553 8.754893218813452 0.0
  endloop
endfacet
facet normal 0.0 0.0 1.0
  outer loop
    vertex 23.707106781186553 8.754893218813452 0.0
    vertex 25.000000000000004 0.0 0.0
    vertex 23.86602540378444 8.962 0.0
  endloop
endfacet
facet normal 0.0 0.0 1.0
  outer loop
    vertex 23.86602540378444 8.962 0.0
    vertex 25.000000000000004 0.0 0.0
    vertex 23.965925826289073 9.203180954897478 0.0
  endloop
endfacet
facet normal 0.0 0.0 1.0
  outer loop
    vertex 23.965925826289073 9.203180954897478 0.0
    vertex 25.000000000000004 0.0 0.0
    vertex 24.000000000000004 9.462 0.0
  endloop
endfacet
facet normal 0.0 0.0 1.0
  outer loop
    vertex 0.0 24.862 0.0
    vertex 10.500000000000002 23.862 0.0
    vertex 25.000000000000004 24.862 0.0
  endloop
endfacet
facet normal 0.0 0.0 1.0
  outer loop
    vertex 10.500000000000002 23.862 0.0
    vertex 0.0 24.862 0.0
    vertex 1.9999999999999991 22.862 0.0
  endloop
endfacet
facet normal 0.0 0.0 1.0
  outer loop
    vertex 1.9999999999999991 22.862 0.0
    vertex 0.0 24.862 0.0
    vertex 1.7411809548974782 22.827925826289068 0.0
  endloop
endfacet
facet normal 0.0 0.0 1.0
  outer loop
    vertex 1.7411809548974782 22.827925826289068 0.0
    vertex 0.0 24.862 0.0
    vertex 1.4999999999999991 22.72802540378444 0.0
  endloop
endfacet
facet normal 0.0 0.0 1.0
  outer loop
    vertex 1.4999999999999991 22.72802540378444 0.0
    vertex 0.0 24.862 0.0
    vertex 1.2928932188134517 22.569106781186544 0.0
  endloop
endfacet
facet normal 0.0 0.0 1.0
  outer loop
    vertex 1.2928932188134517 22.569106781186544 0.0
    vertex 0.0 24.862 0.0
    vertex 1.133974596215561 22.362 0.0
  endloop
endfacet
facet normal 0.0 0.0 1.0
  outer loop
    vertex 1.133974596215561 22.362 0.0
    vertex 0.0 24.862 0.0
    vertex 1.0340741737109314 22.120819045102518 0.0
  endloop
endfacet
facet normal 0.0 0.0 1.0
  outer loop
    vertex 1.0340741737109314 22.120819045102518 0.0
    vertex 0.0 24.862 0.0
    vertex 0.9999999999999998 21.862 0.0
  endloop
endfacet
facet normal 0.0 0.0 1.0
  outer loop
    vertex 10.500000000000002 23.862 0.0
    vertex 1.9999999999999991 22.862 0.0
    vertex 2.25881904510252 22.827925826289068 0.0
  endloop
endfacet
facet normal 0.0 0.0 1.0
  outer loop
    vertex 10.500000000000002 23.862 0.0
    vertex 2.25881904510252 22.827925826289068 0.0
    vertex 2.4999999999999987 22.72802540378444 0.0
  endloop
endfacet
facet normal 0.0 0.0 1.0
  outer loop
    vertex 10.500000000000002 23.862 0.0
    vertex 2.4999999999999987 22.72802540378444 0.0
    vertex 2.7071067811865466 22.569106781186544 0.0
  endloop
endfacet
facet normal 0.0 0.0 1.0
  outer loop
    vertex 10.500000000000002 23.862 0.0
    vertex 2.7071067811865466 22.569106781186544 0.0
    vertex 2.8660254037844375 22.362 0.0
  endloop
endfacet
facet normal 0.0 0.0 1.0
  outer loop
    vertex 10.500000000000002 23.862 0.0
    vertex 2.8660254037844375 22.362 0.0
    vertex 2.9659258262890673 22.12081904510252 0.0
  endloop
endfacet
facet normal 0.0 0.0 1.0
  outer loop
    vertex 10.500000000000002 23.862 0.0
    vertex 2.9659258262890673 22.12081904510252 0.0
    vertex 2.9999999999999996 21.862 0.0
  endloop
endfacet
facet normal 0.0 0.0 1.0
  outer loop
    vertex 10.500000000000002 23.862 0.0
    vertex 2.9999999999999996 21.862 0.0
    vertex 3.0 9.462 0.0
  endloop
endfacet
facet normal 0.0 0.0 1.0
  outer loop
    vertex 10.500000000000002 23.862 0.0
    vertex 3.0 9.462 0.0
    vertex 10.500000000000002 21.862 0.0
  endloop
endfacet
facet normal 0.0 0.0 1.0
  outer loop
    vertex 25.000000000000004 24.862 0.0
    vertex 10.500000000000002 23.862 0.0
    vertex 14.500000000000002 23.862 0.0
  endloop
endfacet
facet normal 0.0 0.0 1.0
  outer loop
    vertex 25.000000000000004 24.862 0.0
    vertex 14.500000000000002 23.862 0.0
    vertex 22.29289321881345 22.569106781186544 0.0
  endloop
endfacet
facet normal 0.0 0.0 1.0
  outer loop
    vertex 22.29289321881345 22.569106781186544 0.0
    vertex 14.500000000000002 23.862 0.0
    vertex 22.133974596215563 22.362 0.0
  endloop
endfacet
facet normal 0.0 0.0 1.0
  outer loop
    vertex 22.133974596215563 22.362 0.0
    vertex 14.500000000000002 23.862 0.0
    vertex 22.03407417371093 22.120819045102518 0.0
  endloop
endfacet
facet normal 0.0 0.0 1.0
  outer loop
    vertex 22.03407417371093 22.120819045102518 0.0
    vertex 14.500000000000002 23.862 0.0
    vertex 22.0 21.862 0.0
  endloop
endfacet
facet normal 0.0 0.0 1.0
  outer loop
    vertex 25.000000000000004 24.862 0.0
    vertex 22.29289321881345 22.569106781186544 0.0
    vertex 22.5 22.72802540378444 0.0
  endloop
endfacet
facet normal 0.0 0.0 1.0
  outer loop
    vertex 25.000000000000004 24.862 0.0
    vertex 22.5 22.72802540378444 0.0
    vertex 22.741180954897477 22.827925826289068 0.0
  endloop
endfacet
facet normal 0.0 0.0 1.0
  outer loop
    vertex 25.000000000000004 24.862 0.0
    vertex 22.741180954897477 22.827925826289068 0.0
    vertex 23.0 22.862 0.0
  endloop
endfacet
facet normal 0.0 0.0 1.0
  outer loop
    vertex 25.000000000000004 24.862 0.0
    vertex 23.0 22.862 0.0
    vertex 23.25881904510252 22.827925826289068 0.0
  endloop
endfacet
facet normal 0.0 0.0 1.0
  outer loop
    vertex 25.000000000000004 24.862 0.0
    vertex 23.25881904510252 22.827925826289068 0.0
    vertex 23.5 22.72802540378444 0.0
  endloop
endfacet
facet normal 0.0 0.0 1.0
  outer loop
    vertex 25.000000000000004 24.862 0.0
    vertex 23.5 22.72802540378444 0.0
    vertex 23.70710678118655 22.569106781186548 0.0
  endloop
endfacet
facet normal 0.0 0.0 1.0
  outer loop
    vertex 25.000000000000004 24.862 0.0
    vertex 23.70710678118655 22.569106781186548 0.0
    vertex 23.86602540378444 22.362000000000002 0.0
  endloop
endfacet
facet normal 0.0 0.0 1.0
  outer loop
    vertex 25.000000000000004 24.862 0.0
    vertex 23.86602540378444 22.362000000000002 0.0
    vertex 23.96592582628907 22.12081904510252 0.0
  endloop
endfacet
facet normal 0.0 0.0 1.0
  outer loop
    vertex 25.000000000000004 24.862 0.0
    vertex 23.96592582628907 22.12081904510252 0.0
    vertex 24.0 21.862 0.0
  endloop
endfacet
facet normal 0.0 0.0 1.0
  outer loop
    vertex 25.000000000000004 24.862 0.0
    vertex 24.0 21.862 0.0
    vertex 24.000000000000004 9.462 0.0
  endloop
endfacet
facet normal 0.0 0.0 1.0
  outer loop
    vertex 25.000000000000004 24.862 0.0
    vertex 24.000000000000004 9.462 0.0
    vertex 25.000000000000004 0.0 0.0
  endloop
endfacet
facet normal 0.0 0.0 1.0
  outer loop
    vertex 1.0000000000000004 9.462 0.0
    vertex 1.0340741737109316 21.60318095489748 0.0
    vertex 0.9999999999999998 21.862 0.0
  endloop
endfacet
facet normal 0.0 0.0 1.0
  outer loop
    vertex 1.0340741737109316 21.60318095489748 0.0
    vertex 1.0000000000000004 9.462 0.0
    vertex 1.034074173710932 9.72081904510252 0.0
  endloop
endfacet
facet normal 0.0 0.0 1.0
  outer loop
    vertex 1.0340741737109316 21.60318095489748 0.0
    vertex 1.034074173710932 9.72081904510252 0.0
    vertex 1.1339745962155612 21.362 0.0
  endloop
endfacet
facet normal 0.0 0.0 1.0
  outer loop
    vertex 1.1339745962155612 21.362 0.0
    vertex 1.034074173710932 9.72081904510252 0.0
    vertex 1.1339745962155616 9.962 0.0
  endloop
endfacet
facet normal 0.0 0.0 1.0
  outer loop
    vertex 1.1339745962155612 21.362 0.0
    vertex 1.1339745962155616 9.962 0.0
    vertex 1.292893218813452 21.154893218813452 0.0
  endloop
endfacet
facet normal 0.0 0.0 1.0
  outer loop
    vertex 1.292893218813452 21.154893218813452 0.0
    vertex 1.1339745962155616 9.962 0.0
    vertex 1.2928932188134523 10.169106781186546 0.0
  endloop
endfacet
facet normal 0.0 0.0 1.0
  outer loop
    vertex 1.292893218813452 21.154893218813452 0.0
    vertex 1.2928932188134523 10.169106781186546 0.0
    vertex 1.5 20.99597459621556 0.0
  endloop
endfacet
facet normal 0.0 0.0 1.0
  outer loop
    vertex 1.5 20.99597459621556 0.0
    vertex 1.2928932188134523 10.169106781186546 0.0
    vertex 1.5 10.328025403784437 0.0
  endloop
endfacet
facet normal 0.0 0.0 1.0
  outer loop
    vertex 1.5 20.99597459621556 0.0
    vertex 1.5 10.328025403784437 0.0
    vertex 1.7411809548974788 10.427925826289068 0.0
  endloop
endfacet
facet normal 0.0 0.0 1.0
  outer loop
    vertex 1.5 20.99597459621556 0.0
    vertex 1.7411809548974788 10.427925826289068 0.0
    vertex 1.7411809548974788 20.89607417371093 0.0
  endloop
endfacet
facet normal 0.0 0.0 1.0
  outer loop
    vertex 1.7411809548974788 20.89607417371093 0.0
    vertex 1.7411809548974788 10.427925826289068 0.0
    vertex 1.9999999999999998 10.462 0.0
  endloop
endfacet
facet normal 0.0 0.0 1.0
  outer loop
    vertex 1.7411809548974788 20.89607417371093 0.0
    vertex 1.9999999999999998 10.462 0.0
    vertex 1.9999999999999996 20.862 0.0
  endloop
endfacet
facet normal 0.0 0.0 1.0
  outer loop
    vertex 1.9999999999999996 20.862 0.0
    vertex 1.9999999999999998 10.462 0.0
    vertex 2.2588190451025203 20.89607417371093 0.0
  endloop
endfacet
facet normal 0.0 0.0 1.0
  outer loop
    vertex 2.2588190451025203 20.89607417371093 0.0
    vertex 1.9999999999999998 10.462 0.0
    vertex 2.2588190451025203 10.427925826289068 0.0
  endloop
endfacet
facet normal 0.0 0.0 1.0
  outer loop
    vertex 2.2588190451025203 20.89607417371093 0.0
    vertex 2.2588190451025203 10.427925826289068 0.0
    vertex 2.499999999999999 10.328025403784439 0.0
  endloop
endfacet
facet normal 0.0 0.0 1.0
  outer loop
    vertex 2.2588190451025203 20.89607417371093 0.0
    vertex 2.499999999999999 10.328025403784439 0.0
    vertex 2.4999999999999996 20.99597459621556 0.0
  endloop
endfacet
facet normal 0.0 0.0 1.0
  outer loop
    vertex 2.4999999999999996 20.99597459621556 0.0
    vertex 2.499999999999999 10.328025403784439 0.0
    vertex 2.7071067811865475 10.169106781186548 0.0
  endloop
endfacet
facet normal 0.0 0.0 1.0
  outer loop
    vertex 2.4999999999999996 20.99597459621556 0.0
    vertex 2.7071067811865475 10.169106781186548 0.0
    vertex 2.707106781186547 21.154893218813452 0.0
  endloop
endfacet
facet normal 0.0 0.0 1.0
  outer loop
    vertex 2.707106781186547 21.154893218813452 0.0
    vertex 2.7071067811865475 10.169106781186548 0.0
    vertex 2.866025403784438 21.362 0.0
  endloop
endfacet
facet normal 0.0 0.0 1.0
  outer loop
    vertex 2.866025403784438 21.362 0.0
    vertex 2.7071067811865475 10.169106781186548 0.0
    vertex 2.8660254037844384 9.962000000000002 0.0
  endloop
endfacet
facet normal 0.0 0.0 1.0
  outer loop
    vertex 2.866025403784438 21.362 0.0
    vertex 2.8660254037844384 9.962000000000002 0.0
    vertex 2.9659258262890678 21.60318095489748 0.0
  endloop
endfacet
facet normal 0.0 0.0 1.0
  outer loop
    vertex 2.9659258262890678 21.60318095489748 0.0
    vertex 2.8660254037844384 9.962000000000002 0.0
    vertex 2.965925826289068 9.720819045102521 0.0
  endloop
endfacet
facet normal 0.0 0.0 1.0
  outer loop
    vertex 2.9659258262890678 21.60318095489748 0.0
    vertex 2.965925826289068 9.720819045102521 0.0
    vertex 2.9999999999999996 21.862 0.0
  endloop
endfacet
facet normal 0.0 0.0 1.0
  outer loop
    vertex 2.9999999999999996 21.862 0.0
    vertex 2.965925826289068 9.720819045102521 0.0
    vertex 3.0 9.462 0.0
  endloop
endfacet
endsolid battery-camera-holder
