solid camera_mount
facet normal 1.0 0.0 0.0
  outer loop
    vertex -10.479299238962627 4.228760117898209 -4.511946372076636e-14
    vertex -10.479299238962627 2.728760117898206 27.499999999999954
    vertex -10.479299238962627 2.728760117898206 -4.511946372076636e-14
  endloop
endfacet
facet normal 1.0 0.0 0.0
  outer loop
    vertex -10.479299238962627 2.728760117898206 27.499999999999954
    vertex -10.479299238962627 4.228760117898209 -4.511946372076636e-14
    vertex -10.479299238962627 4.228760117898209 27.499999999999954
  endloop
endfacet
facet normal -0.0 -1.0 -0.0
  outer loop
    vertex -12.629299238962622 -22.771239882101792 2.999999999999955
    vertex -18.329299238962623 -22.771239882101792 -4.511946372076636e-14
    vertex -12.629299238962622 -22.771239882101792 -4.511946372076636e-14
  endloop
endfacet
facet normal -0.0 -1.0 -0.0
  outer loop
    vertex -18.329299238962623 -22.771239882101792 -4.511946372076636e-14
    vertex -12.629299238962622 -22.771239882101792 2.999999999999955
    vertex -18.329299238962623 -22.771239882101792 2.999999999999955
  endloop
endfacet
facet normal -1.0 0.0 0.0
  outer loop
    vertex -15.479299238962628 4.228760117898209 27.499999999999954
    vertex -15.479299238962628 0.028760117898205494 2.999999999999955
    vertex -15.479299238962628 0.028760117898205494 27.499999999999954
  endloop
endfacet
facet normal -1.0 0.0 0.0
  outer loop
    vertex -15.479299238962628 0.028760117898205494 2.999999999999955
    vertex -15.479299238962628 -5.771239882101789 -4.511946372076636e-14
    vertex -15.479299238962628 -5.771239882101789 2.999999999999955
  endloop
endfacet
facet normal -1.0 0.0 0.0
  outer loop
    vertex -15.479299238962628 -5.771239882101789 -4.511946372076636e-14
    vertex -15.479299238962628 0.028760117898205494 2.999999999999955
    vertex -15.479299238962628 4.228760117898209 -4.511946372076636e-14
  endloop
endfacet
facet normal -1.0 0.0 0.0
  outer loop
    vertex -15.479299238962628 4.228760117898209 -4.511946372076636e-14
    vertex -15.479299238962628 0.028760117898205494 2.999999999999955
    vertex -15.479299238962628 4.228760117898209 27.499999999999954
  endloop
endfacet
facet normal -1.0 0.0 0.0
  outer loop
    vertex 13.020700341927629 2.728760117898206 27.499999999999954
    vertex 13.020700341927629 1.5287601178982084 -4.511946372076636e-14
    vertex 13.020700341927629 1.5287601178982084 27.499999999999954
  endloop
endfacet
facet normal -1.0 0.0 0.0
  outer loop
    vertex 13.020700341927629 1.5287601178982084 -4.511946372076636e-14
    vertex 13.020700341927629 2.728760117898206 27.499999999999954
    vertex 13.020700341927629 2.728760117898206 -4.511946372076636e-14
  endloop
endfacet
facet normal -0.0 -1.0 -0.0
  outer loop
    vertex 18.370700761037366 -22.77123988210179 2.999999999999955
    vertex 12.670700761037365 -22.77123988210179 -4.511946372076636e-14
    vertex 18.370700761037366 -22.77123988210179 -4.511946372076636e-14
  endloop
endfacet
facet normal -0.0 -1.0 -0.0
  outer loop
    vertex 12.670700761037365 -22.77123988210179 -4.511946372076636e-14
    vertex 18.370700761037366 -22.77123988210179 2.999999999999955
    vertex 12.670700761037365 -22.77123988210179 2.999999999999955
  endloop
endfacet
facet normal 0.0 1.0 0.0
  outer loop
    vertex -15.479299238962628 4.228760117898209 27.499999999999954
    vertex -10.479299238962627 4.228760117898209 -4.511946372076636e-14
    vertex -15.479299238962628 4.228760117898209 -4.511946372076636e-14
  endloop
endfacet
facet normal 0.0 1.0 0.0
  outer loop
    vertex -10.479299238962627 4.228760117898209 -4.511946372076636e-14
    vertex -15.479299238962628 4.228760117898209 27.499999999999954
    vertex -10.479299238962627 4.228760117898209 27.499999999999954
  endloop
endfacet
facet normal 0.0 -1.0 0.0
  outer loop
    vertex 13.020700341927629 2.728760117898206 27.499999999999954
    vertex 10.52070076103737 2.728760117898206 -4.511946372076636e-14
    vertex 13.020700341927629 2.728760117898206 -4.511946372076636e-14
  endloop
endfacet
facet normal 0.0 -1.0 0.0
  outer loop
    vertex 10.52070076103737 2.728760117898206 -4.511946372076636e-14
    vertex 13.020700341927629 2.728760117898206 27.499999999999954
    vertex 10.52070076103737 2.728760117898206 27.499999999999954
  endloop
endfacet
facet normal 0.0 1.0 0.0
  outer loop
    vertex 15.520700761037372 -5.771239882101789 2.999999999999955
    vertex 22.02070076103737 -5.771239882101789 -4.511946372076636e-14
    vertex 15.520700761037372 -5.771239882101789 -4.511946372076636e-14
  endloop
endfacet
facet normal 0.0 1.0 0.0
  outer loop
    vertex 22.02070076103737 -5.771239882101789 -4.511946372076636e-14
    vertex 15.520700761037372 -5.771239882101789 2.999999999999955
    vertex 22.02070076103737 -5.771239882101789 2.999999999999955
  endloop
endfacet
facet normal -1.0 0.0 0.0
  outer loop
    vertex 10.52070076103737 4.228760117898209 27.499999999999954
    vertex 10.52070076103737 2.728760117898206 -4.511946372076636e-14
    vertex 10.52070076103737 2.728760117898206 27.499999999999954
  endloop
endfacet
facet normal -1.0 0.0 0.0
  outer loop
    vertex 10.52070076103737 2.728760117898206 -4.511946372076636e-14
    vertex 10.52070076103737 4.228760117898209 27.499999999999954
    vertex 10.52070076103737 4.228760117898209 -4.511946372076636e-14
  endloop
endfacet
facet normal 1.0 0.0 0.0
  outer loop
    vertex 15.520700761037372 4.228760117898209 -4.511946372076636e-14
    vertex 15.520700761037372 -5.771239882101789 2.999999999999955
    vertex 15.520700761037372 -5.771239882101789 -4.511946372076636e-14
  endloop
endfacet
facet normal 1.0 0.0 0.0
  outer loop
    vertex 15.520700761037372 -5.771239882101789 2.999999999999955
    vertex 15.520700761037372 4.228760117898209 -4.511946372076636e-14
    vertex 15.520700761037372 0.028760117898205494 2.999999999999955
  endloop
endfacet
facet normal 1.0 0.0 0.0
  outer loop
    vertex 15.520700761037372 0.028760117898205494 2.999999999999955
    vertex 15.520700761037372 4.228760117898209 -4.511946372076636e-14
    vertex 15.520700761037372 0.028760117898205494 27.499999999999954
  endloop
endfacet
facet normal 1.0 0.0 0.0
  outer loop
    vertex 15.520700761037372 0.028760117898205494 27.499999999999954
    vertex 15.520700761037372 4.228760117898209 -4.511946372076636e-14
    vertex 15.520700761037372 4.228760117898209 27.499999999999954
  endloop
endfacet
facet normal 0.0 1.0 0.0
  outer loop
    vertex 10.52070076103737 4.228760117898209 27.499999999999954
    vertex 15.520700761037372 4.228760117898209 -4.511946372076636e-14
    vertex 10.52070076103737 4.228760117898209 -4.511946372076636e-14
  endloop
endfacet
facet normal 0.0 1.0 0.0
  outer loop
    vertex 15.520700761037372 4.228760117898209 -4.511946372076636e-14
    vertex 10.52070076103737 4.228760117898209 27.499999999999954
    vertex 15.520700761037372 4.228760117898209 27.499999999999954
  endloop
endfacet
facet normal 1.0 0.0 0.0
  outer loop
    vertex -13.18688165807236 2.728760117898206 -4.511946372076636e-14
    vertex -13.18688165807236 1.5287601178982084 27.499999999999954
    vertex -13.18688165807236 1.5287601178982084 -4.511946372076636e-14
  endloop
endfacet
facet normal 1.0 0.0 0.0
  outer loop
    vertex -13.18688165807236 1.5287601178982084 27.499999999999954
    vertex -13.18688165807236 2.728760117898206 -4.511946372076636e-14
    vertex -13.18688165807236 2.728760117898206 27.499999999999954
  endloop
endfacet
facet normal 0.0 -1.0 0.0
  outer loop
    vertex -10.479299238962627 2.728760117898206 27.499999999999954
    vertex -13.18688165807236 2.728760117898206 -4.511946372076636e-14
    vertex -10.479299238962627 2.728760117898206 -4.511946372076636e-14
  endloop
endfacet
facet normal 0.0 -1.0 0.0
  outer loop
    vertex -13.18688165807236 2.728760117898206 -4.511946372076636e-14
    vertex -10.479299238962627 2.728760117898206 27.499999999999954
    vertex -13.18688165807236 2.728760117898206 27.499999999999954
  endloop
endfacet
facet normal 0.0 -1.0 0.0
  outer loop
    vertex 15.520700761037372 0.028760117898205494 2.999999999999955
    vertex 9.120700761037371 0.028760117898205494 4.499999999999955
    vertex -15.479299238962628 0.028760117898205494 2.999999999999955
  endloop
endfacet
facet normal 0.0 -1.0 0.0
  outer loop
    vertex 9.120700761037371 0.028760117898205494 4.499999999999955
    vertex 15.520700761037372 0.028760117898205494 2.999999999999955
    vertex 15.520700761037372 0.028760117898205494 27.499999999999954
  endloop
endfacet
facet normal 0.0 -1.0 0.0
  outer loop
    vertex 9.120700761037371 0.028760117898205494 4.499999999999955
    vertex 15.520700761037372 0.028760117898205494 27.499999999999954
    vertex 9.120700761037371 0.028760117898205494 27.499999999999954
  endloop
endfacet
facet normal 0.0 -1.0 0.0
  outer loop
    vertex -15.479299238962628 0.028760117898205494 2.999999999999955
    vertex -9.079299238962617 0.028760117898205494 4.499999999999955
    vertex -15.479299238962628 0.028760117898205494 27.499999999999954
  endloop
endfacet
facet normal 0.0 -1.0 0.0
  outer loop
    vertex -9.079299238962617 0.028760117898205494 4.499999999999955
    vertex -15.479299238962628 0.028760117898205494 2.999999999999955
    vertex 9.120700761037371 0.028760117898205494 4.499999999999955
  endloop
endfacet
facet normal 0.0 -1.0 0.0
  outer loop
    vertex -15.479299238962628 0.028760117898205494 27.499999999999954
    vertex -9.079299238962617 0.028760117898205494 4.499999999999955
    vertex -9.079299238962617 0.028760117898205494 27.499999999999954
  endloop
endfacet
facet normal 0.0 0.0 1.0
  outer loop
    vertex 15.520700761037372 0.028760117898205494 27.499999999999954
    vertex 9.120700761037371 1.5287601178982084 27.499999999999954
    vertex 9.120700761037371 0.028760117898205494 27.499999999999954
  endloop
endfacet
facet normal 0.0 0.0 1.0
  outer loop
    vertex 9.120700761037371 1.5287601178982084 27.499999999999954
    vertex 15.520700761037372 0.028760117898205494 27.499999999999954
    vertex 13.020700341927629 1.5287601178982084 27.499999999999954
  endloop
endfacet
facet normal 0.0 0.0 1.0
  outer loop
    vertex 13.020700341927629 1.5287601178982084 27.499999999999954
    vertex 15.520700761037372 0.028760117898205494 27.499999999999954
    vertex 13.020700341927629 2.728760117898206 27.499999999999954
  endloop
endfacet
facet normal 0.0 0.0 1.0
  outer loop
    vertex 13.020700341927629 2.728760117898206 27.499999999999954
    vertex 10.52070076103737 4.228760117898209 27.499999999999954
    vertex 10.52070076103737 2.728760117898206 27.499999999999954
  endloop
endfacet
facet normal 0.0 0.0 1.0
  outer loop
    vertex 10.52070076103737 4.228760117898209 27.499999999999954
    vertex 13.020700341927629 2.728760117898206 27.499999999999954
    vertex 15.520700761037372 4.228760117898209 27.499999999999954
  endloop
endfacet
facet normal 0.0 0.0 1.0
  outer loop
    vertex 15.520700761037372 4.228760117898209 27.499999999999954
    vertex 13.020700341927629 2.728760117898206 27.499999999999954
    vertex 15.520700761037372 0.028760117898205494 27.499999999999954
  endloop
endfacet
facet normal 0.0 0.0 1.0
  outer loop
    vertex -15.479299238962628 0.028760117898205494 27.499999999999954
    vertex -13.18688165807236 1.5287601178982084 27.499999999999954
    vertex -15.479299238962628 4.228760117898209 27.499999999999954
  endloop
endfacet
facet normal 0.0 0.0 1.0
  outer loop
    vertex -13.18688165807236 1.5287601178982084 27.499999999999954
    vertex -15.479299238962628 0.028760117898205494 27.499999999999954
    vertex -9.079299238962617 0.028760117898205494 27.499999999999954
  endloop
endfacet
facet normal 0.0 0.0 1.0
  outer loop
    vertex -13.18688165807236 1.5287601178982084 27.499999999999954
    vertex -9.079299238962617 0.028760117898205494 27.499999999999954
    vertex -9.079299238962617 1.5287601178982084 27.499999999999954
  endloop
endfacet
facet normal 0.0 0.0 1.0
  outer loop
    vertex -15.479299238962628 4.228760117898209 27.499999999999954
    vertex -13.18688165807236 2.728760117898206 27.499999999999954
    vertex -10.479299238962627 4.228760117898209 27.499999999999954
  endloop
endfacet
facet normal 0.0 0.0 1.0
  outer loop
    vertex -13.18688165807236 2.728760117898206 27.499999999999954
    vertex -15.479299238962628 4.228760117898209 27.499999999999954
    vertex -13.18688165807236 1.5287601178982084 27.499999999999954
  endloop
endfacet
facet normal 0.0 0.0 1.0
  outer loop
    vertex -10.479299238962627 4.228760117898209 27.499999999999954
    vertex -13.18688165807236 2.728760117898206 27.499999999999954
    vertex -10.479299238962627 2.728760117898206 27.499999999999954
  endloop
endfacet
facet normal -1.0 -4.699944137579821e-16 -3.065180959291193e-17
  outer loop
    vertex 9.120700761037371 1.5287601178982084 27.499999999999954
    vertex 9.120700761037371 0.028760117898205494 4.499999999999955
    vertex 9.120700761037371 0.028760117898205494 27.499999999999954
  endloop
endfacet
facet normal -1.0 -4.699944137579821e-16 -3.065180959291193e-17
  outer loop
    vertex 9.120700761037371 0.028760117898205494 4.499999999999955
    vertex 9.120700761037371 1.5287601178982084 27.499999999999954
    vertex 9.120700761037371 1.5287601178982084 4.499999999999955
  endloop
endfacet
facet normal 1.0 0.0 0.0
  outer loop
    vertex -9.079299238962617 1.5287601178982084 4.499999999999955
    vertex -9.079299238962617 0.028760117898205494 27.499999999999954
    vertex -9.079299238962617 0.028760117898205494 4.499999999999955
  endloop
endfacet
facet normal 1.0 0.0 0.0
  outer loop
    vertex -9.079299238962617 0.028760117898205494 27.499999999999954
    vertex -9.079299238962617 1.5287601178982084 4.499999999999955
    vertex -9.079299238962617 1.5287601178982084 27.499999999999954
  endloop
endfacet
facet normal 0.0 1.0 0.0
  outer loop
    vertex -13.18688165807236 1.5287601178982084 -4.511946372076636e-14
    vertex -9.079299238962617 1.5287601178982084 4.499999999999955
    vertex 13.020700341927629 1.5287601178982084 -4.511946372076636e-14
  endloop
endfacet
facet normal 0.0 1.0 0.0
  outer loop
    vertex -9.079299238962617 1.5287601178982084 4.499999999999955
    vertex -13.18688165807236 1.5287601178982084 -4.511946372076636e-14
    vertex -13.18688165807236 1.5287601178982084 27.499999999999954
  endloop
endfacet
facet normal 0.0 1.0 0.0
  outer loop
    vertex -9.079299238962617 1.5287601178982084 4.499999999999955
    vertex -13.18688165807236 1.5287601178982084 27.499999999999954
    vertex -9.079299238962617 1.5287601178982084 27.499999999999954
  endloop
endfacet
facet normal 0.0 1.0 0.0
  outer loop
    vertex 13.020700341927629 1.5287601178982084 -4.511946372076636e-14
    vertex 9.120700761037371 1.5287601178982084 4.499999999999955
    vertex 13.020700341927629 1.5287601178982084 27.499999999999954
  endloop
endfacet
facet normal 0.0 1.0 0.0
  outer loop
    vertex 9.120700761037371 1.5287601178982084 4.499999999999955
    vertex 13.020700341927629 1.5287601178982084 -4.511946372076636e-14
    vertex -9.079299238962617 1.5287601178982084 4.499999999999955
  endloop
endfacet
facet normal 0.0 1.0 0.0
  outer loop
    vertex 13.020700341927629 1.5287601178982084 27.499999999999954
    vertex 9.120700761037371 1.5287601178982084 4.499999999999955
    vertex 9.120700761037371 1.5287601178982084 27.499999999999954
  endloop
endfacet
facet normal 0.0 0.0 1.0
  outer loop
    vertex 9.120700761037371 0.028760117898205494 4.499999999999955
    vertex -9.079299238962617 1.5287601178982084 4.499999999999955
    vertex -9.079299238962617 0.028760117898205494 4.499999999999955
  endloop
endfacet
facet normal 0.0 0.0 1.0
  outer loop
    vertex -9.079299238962617 1.5287601178982084 4.499999999999955
    vertex 9.120700761037371 0.028760117898205494 4.499999999999955
    vertex 9.120700761037371 1.5287601178982084 4.499999999999955
  endloop
endfacet
facet normal 0.0 1.0 0.0
  outer loop
    vertex -2.583090613091583 -19.44775555395722 2.9999999999999964
    vertex 2.41690938690843 -19.44775555395722 -4.511946372076636e-14
    vertex -2.583090613091583 -19.44775555395722 -4.511946372076636e-14
  endloop
endfacet
facet normal 0.0 1.0 0.0
  outer loop
    vertex 2.41690938690843 -19.44775555395722 -4.511946372076636e-14
    vertex -2.583090613091583 -19.44775555395722 2.9999999999999964
    vertex 2.41690938690843 -19.44775555395722 2.9999999999999964
  endloop
endfacet
facet normal 1.409983241273949e-16 -1.0 -2.3499720687898827e-16
  outer loop
    vertex 2.41690938690843 -6.4477555539572196 2.9999999999999964
    vertex -2.583090613091583 -6.4477555539572196 -4.511946372076636e-14
    vertex 2.41690938690843 -6.4477555539572196 -4.511946372076636e-14
  endloop
endfacet
facet normal 1.409983241273949e-16 -1.0 -2.3499720687898827e-16
  outer loop
    vertex -2.583090613091583 -6.4477555539572196 -4.511946372076636e-14
    vertex 2.41690938690843 -6.4477555539572196 2.9999999999999964
    vertex -2.583090613091583 -6.4477555539572196 2.9999999999999964
  endloop
endfacet
facet normal 0.0 1.0 0.0
  outer loop
    vertex -18.329299238962623 -31.771239882101792 2.999999999999955
    vertex -12.629299238962622 -31.771239882101792 -4.511946372076636e-14
    vertex -18.329299238962623 -31.771239882101792 -4.511946372076636e-14
  endloop
endfacet
facet normal 0.0 1.0 0.0
  outer loop
    vertex -12.629299238962622 -31.771239882101792 -4.511946372076636e-14
    vertex -18.329299238962623 -31.771239882101792 2.999999999999955
    vertex -12.629299238962622 -31.771239882101792 2.999999999999955
  endloop
endfacet
facet normal 0.0 1.0 0.0
  outer loop
    vertex 12.670700761037365 -31.771239882101792 2.999999999999955
    vertex 18.370700761037366 -31.771239882101792 -4.511946372076636e-14
    vertex 12.670700761037365 -31.771239882101792 -4.511946372076636e-14
  endloop
endfacet
facet normal 0.0 1.0 0.0
  outer loop
    vertex 18.370700761037366 -31.771239882101792 -4.511946372076636e-14
    vertex 12.670700761037365 -31.771239882101792 2.999999999999955
    vertex 18.370700761037366 -31.771239882101792 2.999999999999955
  endloop
endfacet
facet normal 0.0 1.0 0.0
  outer loop
    vertex -21.97929923896263 -34.77123988210179 2.999999999999955
    vertex 22.02070076103737 -34.77123988210179 -4.511946372076636e-14
    vertex -21.97929923896263 -34.77123988210179 -4.511946372076636e-14
  endloop
endfacet
facet normal 0.0 1.0 0.0
  outer loop
    vertex 22.02070076103737 -34.77123988210179 -4.511946372076636e-14
    vertex -21.97929923896263 -34.77123988210179 2.999999999999955
    vertex 22.02070076103737 -34.77123988210179 2.999999999999955
  endloop
endfacet
facet normal 0.0 1.0 0.0
  outer loop
    vertex -21.97929923896263 -5.771239882101789 2.999999999999955
    vertex -15.479299238962628 -5.771239882101789 -4.511946372076636e-14
    vertex -21.97929923896263 -5.771239882101789 -4.511946372076636e-14
  endloop
endfacet
facet normal 0.0 1.0 0.0
  outer loop
    vertex -15.479299238962628 -5.771239882101789 -4.511946372076636e-14
    vertex -21.97929923896263 -5.771239882101789 2.999999999999955
    vertex -15.479299238962628 -5.771239882101789 2.999999999999955
  endloop
endfacet
facet normal 1.0 0.0 0.0
  outer loop
    vertex -21.97929923896263 -5.771239882101789 -4.511946372076636e-14
    vertex -21.97929923896263 -34.77123988210179 2.999999999999955
    vertex -21.97929923896263 -34.77123988210179 -4.511946372076636e-14
  endloop
endfacet
facet normal 1.0 0.0 0.0
  outer loop
    vertex -21.97929923896263 -34.77123988210179 2.999999999999955
    vertex -21.97929923896263 -5.771239882101789 -4.511946372076636e-14
    vertex -21.97929923896263 -5.771239882101789 2.999999999999955
  endloop
endfacet
facet normal 0.0 0.0 1.0
  outer loop
    vertex -21.97929923896263 -34.77123988210179 2.999999999999955
    vertex -18.329299238962623 -31.771239882101792 2.999999999999955
    vertex -21.97929923896263 -5.771239882101789 2.999999999999955
  endloop
endfacet
facet normal 0.0 0.0 1.0
  outer loop
    vertex -18.329299238962623 -31.771239882101792 2.999999999999955
    vertex -21.97929923896263 -34.77123988210179 2.999999999999955
    vertex 22.02070076103737 -34.77123988210179 2.999999999999955
  endloop
endfacet
facet normal 0.0 0.0 1.0
  outer loop
    vertex -18.329299238962623 -31.771239882101792 2.999999999999955
    vertex 22.02070076103737 -34.77123988210179 2.999999999999955
    vertex -12.629299238962622 -31.771239882101792 2.999999999999955
  endloop
endfacet
facet normal 0.0 0.0 1.0
  outer loop
    vertex -12.629299238962622 -31.771239882101792 2.999999999999955
    vertex 22.02070076103737 -34.77123988210179 2.999999999999955
    vertex 12.670700761037365 -31.771239882101792 2.999999999999955
  endloop
endfacet
facet normal 0.0 0.0 1.0
  outer loop
    vertex -12.629299238962622 -31.771239882101792 2.999999999999955
    vertex 12.670700761037365 -31.771239882101792 2.999999999999955
    vertex -12.629299238962622 -22.771239882101792 2.999999999999955
  endloop
endfacet
facet normal 0.0 0.0 1.0
  outer loop
    vertex -12.629299238962622 -22.771239882101792 2.999999999999955
    vertex 12.670700761037365 -31.771239882101792 2.999999999999955
    vertex -2.583090613091583 -19.44775555395722 2.9999999999999964
  endloop
endfacet
facet normal 0.0 0.0 1.0
  outer loop
    vertex -2.583090613091583 -19.44775555395722 2.9999999999999964
    vertex 12.670700761037365 -31.771239882101792 2.999999999999955
    vertex 2.41690938690843 -19.44775555395722 2.9999999999999964
  endloop
endfacet
facet normal 0.0 0.0 1.0
  outer loop
    vertex 2.41690938690843 -19.44775555395722 2.9999999999999964
    vertex 12.670700761037365 -31.771239882101792 2.999999999999955
    vertex 2.41690938690843 -6.4477555539572196 2.9999999999999964
  endloop
endfacet
facet normal 0.0 0.0 1.0
  outer loop
    vertex 12.670700761037365 -31.771239882101792 2.999999999999955
    vertex 22.02070076103737 -34.77123988210179 2.999999999999955
    vertex 18.370700761037366 -31.771239882101792 2.999999999999955
  endloop
endfacet
facet normal 0.0 0.0 1.0
  outer loop
    vertex 18.370700761037366 -31.771239882101792 2.999999999999955
    vertex 22.02070076103737 -34.77123988210179 2.999999999999955
    vertex 18.370700761037366 -22.77123988210179 2.999999999999955
  endloop
endfacet
facet normal 0.0 0.0 1.0
  outer loop
    vertex 18.370700761037366 -22.77123988210179 2.999999999999955
    vertex 15.520700761037372 -5.771239882101789 2.999999999999955
    vertex 12.670700761037365 -22.77123988210179 2.999999999999955
  endloop
endfacet
facet normal 0.0 0.0 1.0
  outer loop
    vertex 15.520700761037372 -5.771239882101789 2.999999999999955
    vertex 18.370700761037366 -22.77123988210179 2.999999999999955
    vertex 22.02070076103737 -5.771239882101789 2.999999999999955
  endloop
endfacet
facet normal 0.0 0.0 1.0
  outer loop
    vertex 22.02070076103737 -5.771239882101789 2.999999999999955
    vertex 18.370700761037366 -22.77123988210179 2.999999999999955
    vertex 22.02070076103737 -34.77123988210179 2.999999999999955
  endloop
endfacet
facet normal 0.0 0.0 1.0
  outer loop
    vertex -21.97929923896263 -5.771239882101789 2.999999999999955
    vertex -18.329299238962623 -22.771239882101792 2.999999999999955
    vertex -15.479299238962628 -5.771239882101789 2.999999999999955
  endloop
endfacet
facet normal 0.0 0.0 1.0
  outer loop
    vertex -18.329299238962623 -22.771239882101792 2.999999999999955
    vertex -21.97929923896263 -5.771239882101789 2.999999999999955
    vertex -18.329299238962623 -31.771239882101792 2.999999999999955
  endloop
endfacet
facet normal 0.0 0.0 1.0
  outer loop
    vertex -15.479299238962628 -5.771239882101789 2.999999999999955
    vertex -18.329299238962623 -22.771239882101792 2.999999999999955
    vertex -12.629299238962622 -22.771239882101792 2.999999999999955
  endloop
endfacet
facet normal 0.0 0.0 1.0
  outer loop
    vertex -15.479299238962628 -5.771239882101789 2.999999999999955
    vertex -12.629299238962622 -22.771239882101792 2.999999999999955
    vertex -15.479299238962628 0.028760117898205494 2.999999999999955
  endloop
endfacet
facet normal 0.0 0.0 1.0
  outer loop
    vertex -15.479299238962628 0.028760117898205494 2.999999999999955
    vertex -12.629299238962622 -22.771239882101792 2.999999999999955
    vertex -2.583090613091583 -6.4477555539572196 2.9999999999999964
  endloop
endfacet
facet normal 0.0 0.0 1.0
  outer loop
    vertex -15.479299238962628 0.028760117898205494 2.999999999999955
    vertex -2.583090613091583 -6.4477555539572196 2.9999999999999964
    vertex 15.520700761037372 0.028760117898205494 2.999999999999955
  endloop
endfacet
facet normal 0.0 0.0 1.0
  outer loop
    vertex -2.583090613091583 -6.4477555539572196 2.9999999999999964
    vertex -12.629299238962622 -22.771239882101792 2.999999999999955
    vertex -2.583090613091583 -19.44775555395722 2.9999999999999964
  endloop
endfacet
facet normal 0.0 0.0 1.0
  outer loop
    vertex 15.520700761037372 0.028760117898205494 2.999999999999955
    vertex -2.583090613091583 -6.4477555539572196 2.9999999999999964
    vertex 2.41690938690843 -6.4477555539572196 2.9999999999999964
  endloop
endfacet
facet normal 0.0 0.0 1.0
  outer loop
    vertex 15.520700761037372 0.028760117898205494 2.999999999999955
    vertex 2.41690938690843 -6.4477555539572196 2.9999999999999964
    vertex 12.670700761037365 -22.77123988210179 2.999999999999955
  endloop
endfacet
facet normal 0.0 0.0 1.0
  outer loop
    vertex 12.670700761037365 -22.77123988210179 2.999999999999955
    vertex 2.41690938690843 -6.4477555539572196 2.9999999999999964
    vertex 12.670700761037365 -31.771239882101792 2.999999999999955
  endloop
endfacet
facet normal 0.0 0.0 1.0
  outer loop
    vertex 15.520700761037372 0.028760117898205494 2.999999999999955
    vertex 12.670700761037365 -22.77123988210179 2.999999999999955
    vertex 15.520700761037372 -5.771239882101789 2.999999999999955
  endloop
endfacet
facet normal 0.0 0.0 1.0
  outer loop
    vertex -21.97929923896263 -34.77123988210179 -4.511946372076636e-14
    vertex -18.329299238962623 -31.771239882101792 -4.511946372076636e-14
    vertex -21.97929923896263 -5.771239882101789 -4.511946372076636e-14
  endloop
endfacet
facet normal 0.0 0.0 1.0
  outer loop
    vertex -18.329299238962623 -31.771239882101792 -4.511946372076636e-14
    vertex -21.97929923896263 -34.77123988210179 -4.511946372076636e-14
    vertex 22.02070076103737 -34.77123988210179 -4.511946372076636e-14
  endloop
endfacet
facet normal 0.0 0.0 1.0
  outer loop
    vertex -18.329299238962623 -31.771239882101792 -4.511946372076636e-14
    vertex 22.02070076103737 -34.77123988210179 -4.511946372076636e-14
    vertex -12.629299238962622 -31.771239882101792 -4.511946372076636e-14
  endloop
endfacet
facet normal 0.0 0.0 1.0
  outer loop
    vertex -12.629299238962622 -31.771239882101792 -4.511946372076636e-14
    vertex 22.02070076103737 -34.77123988210179 -4.511946372076636e-14
    vertex 12.670700761037365 -31.771239882101792 -4.511946372076636e-14
  endloop
endfacet
facet normal 0.0 0.0 1.0
  outer loop
    vertex -12.629299238962622 -31.771239882101792 -4.511946372076636e-14
    vertex 12.670700761037365 -31.771239882101792 -4.511946372076636e-14
    vertex -12.629299238962622 -22.771239882101792 -4.511946372076636e-14
  endloop
endfacet
facet normal 0.0 0.0 1.0
  outer loop
    vertex -12.629299238962622 -22.771239882101792 -4.511946372076636e-14
    vertex 12.670700761037365 -31.771239882101792 -4.511946372076636e-14
    vertex -2.583090613091583 -19.44775555395722 -4.511946372076636e-14
  endloop
endfacet
facet normal 0.0 0.0 1.0
  outer loop
    vertex -2.583090613091583 -19.44775555395722 -4.511946372076636e-14
    vertex 12.670700761037365 -31.771239882101792 -4.511946372076636e-14
    vertex 2.41690938690843 -19.44775555395722 -4.511946372076636e-14
  endloop
endfacet
facet normal 0.0 0.0 1.0
  outer loop
    vertex 2.41690938690843 -19.44775555395722 -4.511946372076636e-14
    vertex 12.670700761037365 -31.771239882101792 -4.511946372076636e-14
    vertex 2.41690938690843 -6.4477555539572196 -4.511946372076636e-14
  endloop
endfacet
facet normal 0.0 0.0 1.0
  outer loop
    vertex 12.670700761037365 -31.771239882101792 -4.511946372076636e-14
    vertex 22.02070076103737 -34.77123988210179 -4.511946372076636e-14
    vertex 18.370700761037366 -31.771239882101792 -4.511946372076636e-14
  endloop
endfacet
facet normal 0.0 0.0 1.0
  outer loop
    vertex 18.370700761037366 -31.771239882101792 -4.511946372076636e-14
    vertex 22.02070076103737 -34.77123988210179 -4.511946372076636e-14
    vertex 18.370700761037366 -22.77123988210179 -4.511946372076636e-14
  endloop
endfacet
facet normal 0.0 0.0 1.0
  outer loop
    vertex -21.97929923896263 -5.771239882101789 -4.511946372076636e-14
    vertex -18.329299238962623 -22.771239882101792 -4.511946372076636e-14
    vertex -15.479299238962628 -5.771239882101789 -4.511946372076636e-14
  endloop
endfacet
facet normal 0.0 0.0 1.0
  outer loop
    vertex -18.329299238962623 -22.771239882101792 -4.511946372076636e-14
    vertex -21.97929923896263 -5.771239882101789 -4.511946372076636e-14
    vertex -18.329299238962623 -31.771239882101792 -4.511946372076636e-14
  endloop
endfacet
facet normal 0.0 0.0 1.0
  outer loop
    vertex -15.479299238962628 -5.771239882101789 -4.511946372076636e-14
    vertex -18.329299238962623 -22.771239882101792 -4.511946372076636e-14
    vertex -12.629299238962622 -22.771239882101792 -4.511946372076636e-14
  endloop
endfacet
facet normal 0.0 0.0 1.0
  outer loop
    vertex -15.479299238962628 -5.771239882101789 -4.511946372076636e-14
    vertex -12.629299238962622 -22.771239882101792 -4.511946372076636e-14
    vertex -15.479299238962628 4.228760117898209 -4.511946372076636e-14
  endloop
endfacet
facet normal 0.0 0.0 1.0
  outer loop
    vertex -15.479299238962628 4.228760117898209 -4.511946372076636e-14
    vertex -12.629299238962622 -22.771239882101792 -4.511946372076636e-14
    vertex -13.18688165807236 1.5287601178982084 -4.511946372076636e-14
  endloop
endfacet
facet normal 0.0 0.0 1.0
  outer loop
    vertex -13.18688165807236 1.5287601178982084 -4.511946372076636e-14
    vertex -12.629299238962622 -22.771239882101792 -4.511946372076636e-14
    vertex -2.583090613091583 -6.4477555539572196 -4.511946372076636e-14
  endloop
endfacet
facet normal 0.0 0.0 1.0
  outer loop
    vertex -13.18688165807236 1.5287601178982084 -4.511946372076636e-14
    vertex -2.583090613091583 -6.4477555539572196 -4.511946372076636e-14
    vertex 13.020700341927629 1.5287601178982084 -4.511946372076636e-14
  endloop
endfacet
facet normal 0.0 0.0 1.0
  outer loop
    vertex -2.583090613091583 -6.4477555539572196 -4.511946372076636e-14
    vertex -12.629299238962622 -22.771239882101792 -4.511946372076636e-14
    vertex -2.583090613091583 -19.44775555395722 -4.511946372076636e-14
  endloop
endfacet
facet normal 0.0 0.0 1.0
  outer loop
    vertex 13.020700341927629 1.5287601178982084 -4.511946372076636e-14
    vertex -2.583090613091583 -6.4477555539572196 -4.511946372076636e-14
    vertex 2.41690938690843 -6.4477555539572196 -4.511946372076636e-14
  endloop
endfacet
facet normal 0.0 0.0 1.0
  outer loop
    vertex 13.020700341927629 1.5287601178982084 -4.511946372076636e-14
    vertex 2.41690938690843 -6.4477555539572196 -4.511946372076636e-14
    vertex 12.670700761037365 -22.77123988210179 -4.511946372076636e-14
  endloop
endfacet
facet normal 0.0 0.0 1.0
  outer loop
    vertex 12.670700761037365 -22.77123988210179 -4.511946372076636e-14
    vertex 2.41690938690843 -6.4477555539572196 -4.511946372076636e-14
    vertex 12.670700761037365 -31.771239882101792 -4.511946372076636e-14
  endloop
endfacet
facet normal 0.0 0.0 1.0
  outer loop
    vertex 13.020700341927629 1.5287601178982084 -4.511946372076636e-14
    vertex 12.670700761037365 -22.77123988210179 -4.511946372076636e-14
    vertex 18.370700761037366 -22.77123988210179 -4.511946372076636e-14
  endloop
endfacet
facet normal 0.0 0.0 1.0
  outer loop
    vertex 13.020700341927629 1.5287601178982084 -4.511946372076636e-14
    vertex 18.370700761037366 -22.77123988210179 -4.511946372076636e-14
    vertex 13.020700341927629 2.728760117898206 -4.511946372076636e-14
  endloop
endfacet
facet normal 0.0 0.0 1.0
  outer loop
    vertex 13.020700341927629 2.728760117898206 -4.511946372076636e-14
    vertex 18.370700761037366 -22.77123988210179 -4.511946372076636e-14
    vertex 15.520700761037372 -5.771239882101789 -4.511946372076636e-14
  endloop
endfacet
facet normal 0.0 0.0 1.0
  outer loop
    vertex 15.520700761037372 -5.771239882101789 -4.511946372076636e-14
    vertex 18.370700761037366 -22.77123988210179 -4.511946372076636e-14
    vertex 22.02070076103737 -5.771239882101789 -4.511946372076636e-14
  endloop
endfacet
facet normal 0.0 0.0 1.0
  outer loop
    vertex 22.02070076103737 -5.771239882101789 -4.511946372076636e-14
    vertex 18.370700761037366 -22.77123988210179 -4.511946372076636e-14
    vertex 22.02070076103737 -34.77123988210179 -4.511946372076636e-14
  endloop
endfacet
facet normal 0.0 0.0 1.0
  outer loop
    vertex 13.020700341927629 2.728760117898206 -4.511946372076636e-14
    vertex 10.52070076103737 4.228760117898209 -4.511946372076636e-14
    vertex 10.52070076103737 2.728760117898206 -4.511946372076636e-14
  endloop
endfacet
facet normal 0.0 0.0 1.0
  outer loop
    vertex 10.52070076103737 4.228760117898209 -4.511946372076636e-14
    vertex 13.020700341927629 2.728760117898206 -4.511946372076636e-14
    vertex 15.520700761037372 4.228760117898209 -4.511946372076636e-14
  endloop
endfacet
facet normal 0.0 0.0 1.0
  outer loop
    vertex 15.520700761037372 4.228760117898209 -4.511946372076636e-14
    vertex 13.020700341927629 2.728760117898206 -4.511946372076636e-14
    vertex 15.520700761037372 -5.771239882101789 -4.511946372076636e-14
  endloop
endfacet
facet normal 0.0 0.0 1.0
  outer loop
    vertex -15.479299238962628 4.228760117898209 -4.511946372076636e-14
    vertex -13.18688165807236 2.728760117898206 -4.511946372076636e-14
    vertex -10.479299238962627 4.228760117898209 -4.511946372076636e-14
  endloop
endfacet
facet normal 0.0 0.0 1.0
  outer loop
    vertex -13.18688165807236 2.728760117898206 -4.511946372076636e-14
    vertex -15.479299238962628 4.228760117898209 -4.511946372076636e-14
    vertex -13.18688165807236 1.5287601178982084 -4.511946372076636e-14
  endloop
endfacet
facet normal 0.0 0.0 1.0
  outer loop
    vertex -10.479299238962627 4.228760117898209 -4.511946372076636e-14
    vertex -13.18688165807236 2.728760117898206 -4.511946372076636e-14
    vertex -10.479299238962627 2.728760117898206 -4.511946372076636e-14
  endloop
endfacet
facet normal -1.0 0.0 0.0
  outer loop
    vertex 22.02070076103737 -5.771239882101789 2.999999999999955
    vertex 22.02070076103737 -34.77123988210179 -4.511946372076636e-14
    vertex 22.02070076103737 -34.77123988210179 2.999999999999955
  endloop
endfacet
facet normal -1.0 0.0 0.0
  outer loop
    vertex 22.02070076103737 -34.77123988210179 -4.511946372076636e-14
    vertex 22.02070076103737 -5.771239882101789 2.999999999999955
    vertex 22.02070076103737 -5.771239882101789 -4.511946372076636e-14
  endloop
endfacet
facet normal 1.0 0.0 0.0
  outer loop
    vertex -18.329299238962623 -22.771239882101792 -4.511946372076636e-14
    vertex -18.329299238962623 -31.771239882101792 2.999999999999955
    vertex -18.329299238962623 -31.771239882101792 -4.511946372076636e-14
  endloop
endfacet
facet normal 1.0 0.0 0.0
  outer loop
    vertex -18.329299238962623 -31.771239882101792 2.999999999999955
    vertex -18.329299238962623 -22.771239882101792 -4.511946372076636e-14
    vertex -18.329299238962623 -22.771239882101792 2.999999999999955
  endloop
endfacet
facet normal -1.0 0.0 0.0
  outer loop
    vertex -12.629299238962622 -22.771239882101792 2.999999999999955
    vertex -12.629299238962622 -31.771239882101792 -4.511946372076636e-14
    vertex -12.629299238962622 -31.771239882101792 2.999999999999955
  endloop
endfacet
facet normal -1.0 0.0 0.0
  outer loop
    vertex -12.629299238962622 -31.771239882101792 -4.511946372076636e-14
    vertex -12.629299238962622 -22.771239882101792 2.999999999999955
    vertex -12.629299238962622 -22.771239882101792 -4.511946372076636e-14
  endloop
endfacet
facet normal 1.0 0.0 0.0
  outer loop
    vertex 12.670700761037365 -22.77123988210179 -4.511946372076636e-14
    vertex 12.670700761037365 -31.771239882101792 2.999999999999955
    vertex 12.670700761037365 -31.771239882101792 -4.511946372076636e-14
  endloop
endfacet
facet normal 1.0 0.0 0.0
  outer loop
    vertex 12.670700761037365 -31.771239882101792 2.999999999999955
    vertex 12.670700761037365 -22.77123988210179 -4.511946372076636e-14
    vertex 12.670700761037365 -22.77123988210179 2.999999999999955
  endloop
endfacet
facet normal -1.0 0.0 0.0
  outer loop
    vertex 18.370700761037366 -22.77123988210179 2.999999999999955
    vertex 18.370700761037366 -31.771239882101792 -4.511946372076636e-14
    vertex 18.370700761037366 -31.771239882101792 2.999999999999955
  endloop
endfacet
facet normal -1.0 0.0 0.0
  outer loop
    vertex 18.370700761037366 -31.771239882101792 -4.511946372076636e-14
    vertex 18.370700761037366 -22.77123988210179 2.999999999999955
    vertex 18.370700761037366 -22.77123988210179 -4.511946372076636e-14
  endloop
endfacet
facet normal 1.0 0.0 0.0
  outer loop
    vertex -2.583090613091583 -6.4477555539572196 -4.511946372076636e-14
    vertex -2.583090613091583 -19.44775555395722 2.9999999999999964
    vertex -2.583090613091583 -19.44775555395722 -4.511946372076636e-14
  endloop
endfacet
facet normal 1.0 0.0 0.0
  outer loop
    vertex -2.583090613091583 -19.44775555395722 2.9999999999999964
    vertex -2.583090613091583 -6.4477555539572196 -4.511946372076636e-14
    vertex -2.583090613091583 -6.4477555539572196 2.9999999999999964
  endloop
endfacet
facet normal -1.0 0.0 0.0
  outer loop
    vertex 2.41690938690843 -6.4477555539572196 2.9999999999999964
    vertex 2.41690938690843 -19.44775555395722 -4.511946372076636e-14
    vertex 2.41690938690843 -19.44775555395722 2.9999999999999964
  endloop
endfacet
facet normal -1.0 0.0 0.0
  outer loop
    vertex 2.41690938690843 -19.44775555395722 -4.511946372076636e-14
    vertex 2.41690938690843 -6.4477555539572196 2.9999999999999964
    vertex 2.41690938690843 -6.4477555539572196 -4.511946372076636e-14
  endloop
endfacet
endsolid camera_mount
