solid camera_mount_small.stl
  facet normal 1 0 0
    outer loop
      vertex -10.5 18.5 0
      vertex -10.5 17 27.5
      vertex -10.5 17 0
    endloop
  endfacet
  facet normal 1 0 0
    outer loop
      vertex -10.5 17 27.5
      vertex -10.5 18.5 0
      vertex -10.5 18.5 27.5
    endloop
  endfacet
  facet normal -1 0 0
    outer loop
      vertex 13 17 27.5
      vertex 13 15.8 0
      vertex 13 15.8 27.5
    endloop
  endfacet
  facet normal -1 0 0
    outer loop
      vertex 13 15.8 0
      vertex 13 17 27.5
      vertex 13 17 0
    endloop
  endfacet
  facet normal 0 1 0
    outer loop
      vertex -15.5 18.5 27.5
      vertex -10.5 18.5 0
      vertex -15.5 18.5 0
    endloop
  endfacet
  facet normal 0 1 0
    outer loop
      vertex -10.5 18.5 0
      vertex -15.5 18.5 27.5
      vertex -10.5 18.5 27.5
    endloop
  endfacet
  facet normal 0 -1 0
    outer loop
      vertex 13 17 27.5
      vertex 10.5 17 0
      vertex 13 17 0
    endloop
  endfacet
  facet normal -1 0 0
    outer loop
      vertex 10.5 18.5 27.5
      vertex 10.5 17 0
      vertex 10.5 17 27.5
    endloop
  endfacet
  facet normal 0 -1 0
    outer loop
      vertex 10.5 17 0
      vertex 13 17 27.5
      vertex 10.5 17 27.5
    endloop
  endfacet
  facet normal -1 0 0
    outer loop
      vertex 10.5 17 0
      vertex 10.5 18.5 27.5
      vertex 10.5 18.5 0
    endloop
  endfacet
  facet normal 1 0 0
    outer loop
      vertex -13.2076 17 0
      vertex -13.2076 15.8 27.5
      vertex -13.2076 15.8 0
    endloop
  endfacet
  facet normal 1 0 0
    outer loop
      vertex -13.2076 15.8 27.5
      vertex -13.2076 17 0
      vertex -13.2076 17 27.5
    endloop
  endfacet
  facet normal 0 -1 0
    outer loop
      vertex -10.5 17 27.5
      vertex -13.2076 17 0
      vertex -10.5 17 0
    endloop
  endfacet
  facet normal 0 -1 0
    outer loop
      vertex -13.2076 17 0
      vertex -10.5 17 27.5
      vertex -13.2076 17 27.5
    endloop
  endfacet
  facet normal 0 -1 0
    outer loop
      vertex 15.5 14.3 3
      vertex 9.1 14.3 4.5
      vertex -15.5 14.3 3
    endloop
  endfacet
  facet normal 0 -1 0
    outer loop
      vertex 9.1 14.3 4.5
      vertex 15.5 14.3 3
      vertex 15.5 14.3 27.5
    endloop
  endfacet
  facet normal 0 -1 0
    outer loop
      vertex 9.1 14.3 4.5
      vertex 15.5 14.3 27.5
      vertex 9.1 14.3 27.5
    endloop
  endfacet
  facet normal 0 -1 0
    outer loop
      vertex -15.5 14.3 3
      vertex -9.1 14.3 4.5
      vertex -15.5 14.3 27.5
    endloop
  endfacet
  facet normal 0 -1 0
    outer loop
      vertex -9.1 14.3 4.5
      vertex -15.5 14.3 3
      vertex 9.1 14.3 4.5
    endloop
  endfacet
  facet normal 0 -1 0
    outer loop
      vertex -15.5 14.3 27.5
      vertex -9.1 14.3 4.5
      vertex -9.1 14.3 27.5
    endloop
  endfacet
  facet normal -1 0 0
    outer loop
      vertex 9.1 15.8 27.5
      vertex 9.1 14.3 4.5
      vertex 9.1 14.3 27.5
    endloop
  endfacet
  facet normal -1 0 0
    outer loop
      vertex 9.1 14.3 4.5
      vertex 9.1 15.8 27.5
      vertex 9.1 15.8 4.5
    endloop
  endfacet
  facet normal 1 0 0
    outer loop
      vertex -9.1 15.8 4.5
      vertex -9.1 14.3 27.5
      vertex -9.1 14.3 4.5
    endloop
  endfacet
  facet normal 1 0 0
    outer loop
      vertex -9.1 14.3 27.5
      vertex -9.1 15.8 4.5
      vertex -9.1 15.8 27.5
    endloop
  endfacet
  facet normal 0 1 0
    outer loop
      vertex -13.2076 15.8 0
      vertex -9.1 15.8 4.5
      vertex 13 15.8 0
    endloop
  endfacet
  facet normal 0 1 0
    outer loop
      vertex -9.1 15.8 4.5
      vertex -13.2076 15.8 0
      vertex -13.2076 15.8 27.5
    endloop
  endfacet
  facet normal 0 1 0
    outer loop
      vertex 13 15.8 0
      vertex 9.1 15.8 4.5
      vertex 13 15.8 27.5
    endloop
  endfacet
  facet normal 0 1 0
    outer loop
      vertex -9.1 15.8 4.5
      vertex -13.2076 15.8 27.5
      vertex -9.1 15.8 27.5
    endloop
  endfacet
  facet normal 0 1 0
    outer loop
      vertex 9.1 15.8 4.5
      vertex 13 15.8 0
      vertex -9.1 15.8 4.5
    endloop
  endfacet
  facet normal 0 1 0
    outer loop
      vertex 13 15.8 27.5
      vertex 9.1 15.8 4.5
      vertex 9.1 15.8 27.5
    endloop
  endfacet
  facet normal 0 0 1
    outer loop
      vertex -9.1 15.8 4.5
      vertex 9.1 14.3 4.5
      vertex 9.1 15.8 4.5
    endloop
  endfacet
  facet normal 0 1 0
    outer loop
      vertex 15.5 18.5 27.5
      vertex 15.5 18.5 0
      vertex 10.5 18.5 0
    endloop
  endfacet
  facet normal 0 0 1
    outer loop
      vertex 9.1 14.3 4.5
      vertex -9.1 15.8 4.5
      vertex -9.1 14.3 4.5
    endloop
  endfacet
  facet normal 0 1 0
    outer loop
      vertex 10.5 18.5 0
      vertex 10.5 18.5 27.5
      vertex 15.5 18.5 27.5
    endloop
  endfacet
  facet normal 0 0 1
    outer loop
      vertex -15.5 14.3 27.5
      vertex -13.2076 15.8 27.5
      vertex -15.5 18.5 27.5
    endloop
  endfacet
  facet normal 0 0 1
    outer loop
      vertex -13.2076 15.8 27.5
      vertex -15.5 14.3 27.5
      vertex -9.1 14.3 27.5
    endloop
  endfacet
  facet normal 0 0 1
    outer loop
      vertex -13.2076 15.8 27.5
      vertex -9.1 14.3 27.5
      vertex -9.1 15.8 27.5
    endloop
  endfacet
  facet normal 0 0 1
    outer loop
      vertex -10.5 18.5 27.5
      vertex -13.2076 17 27.5
      vertex -10.5 17 27.5
    endloop
  endfacet
  facet normal 0 0 1
    outer loop
      vertex -15.5 18.5 27.5
      vertex -13.2076 17 27.5
      vertex -10.5 18.5 27.5
    endloop
  endfacet
  facet normal 0 0 1
    outer loop
      vertex -13.2076 17 27.5
      vertex -15.5 18.5 27.5
      vertex -13.2076 15.8 27.5
    endloop
  endfacet
  facet normal 0 0 1
    outer loop
      vertex 15.5 14.3 27.5
      vertex 9.1 15.8 27.5
      vertex 9.1 14.3 27.5
    endloop
  endfacet
  facet normal 0 0 1
    outer loop
      vertex 9.1 15.8 27.5
      vertex 15.5 14.3 27.5
      vertex 13 15.8 27.5
    endloop
  endfacet
  facet normal 0 0 1
    outer loop
      vertex 13 15.8 27.5
      vertex 15.5 14.3 27.5
      vertex 13 17 27.5
    endloop
  endfacet
  facet normal 0 0 1
    outer loop
      vertex 13 17 27.5
      vertex 10.5 18.5 27.5
      vertex 10.5 17 27.5
    endloop
  endfacet
  facet normal 0 0 1
    outer loop
      vertex 10.5 18.5 27.5
      vertex 13 17 27.5
      vertex 15.5 18.5 27.5
    endloop
  endfacet
  facet normal 0 0 1
    outer loop
      vertex 15.5 18.5 27.5
      vertex 13 17 27.5
      vertex 15.5 14.3 27.5
    endloop
  endfacet
  facet normal 1 0 0
    outer loop
      vertex 22 -18.5 3
      vertex 22 -2.5 0
      vertex 22 -2.5 3
    endloop
  endfacet
  facet normal 1 0 0
    outer loop
      vertex 22 -2.5 0
      vertex 22 -18.5 3
      vertex 22 -18.5 0
    endloop
  endfacet
  facet normal 0 1 0
    outer loop
      vertex 15.5 -2.5 3
      vertex 22 -2.5 0
      vertex 15.5 -2.5 0
    endloop
  endfacet
  facet normal 0 1 0
    outer loop
      vertex 22 -2.5 0
      vertex 15.5 -2.5 3
      vertex 22 -2.5 3
    endloop
  endfacet
  facet normal -1 0 0
    outer loop
      vertex -22 -2.5 3
      vertex -22 -18.5 0
      vertex -22 -18.5 3
    endloop
  endfacet
  facet normal -1 0 0
    outer loop
      vertex -22 -18.5 0
      vertex -22 -2.5 3
      vertex -22 -2.5 0
    endloop
  endfacet
  facet normal 0 1 0
    outer loop
      vertex -22 -2.5 3
      vertex -15.5 -2.5 0
      vertex -22 -2.5 0
    endloop
  endfacet
  facet normal 0 1 0
    outer loop
      vertex -15.5 -2.5 0
      vertex -22 -2.5 3
      vertex -15.5 -2.5 3
    endloop
  endfacet
  facet normal -1 0 0
    outer loop
      vertex -15.5 14.3 3
      vertex -15.5 -2.5 0
      vertex -15.5 -2.5 3
    endloop
  endfacet
  facet normal -1 0 0
    outer loop
      vertex -15.5 -2.5 0
      vertex -15.5 14.3 3
      vertex -15.5 18.5 0
    endloop
  endfacet
  facet normal -1 0 0
    outer loop
      vertex -15.5 18.5 27.5
      vertex -15.5 14.3 3
      vertex -15.5 14.3 27.5
    endloop
  endfacet
  facet normal -1 0 0
    outer loop
      vertex -15.5 18.5 0
      vertex -15.5 14.3 3
      vertex -15.5 18.5 27.5
    endloop
  endfacet
  facet normal -1 0 0
    outer loop
      vertex 2.39621 7.82348 3
      vertex 2.39621 -5.17652 0
      vertex 2.39621 -5.17652 3
    endloop
  endfacet
  facet normal -1 0 0
    outer loop
      vertex 2.39621 -5.17652 0
      vertex 2.39621 7.82348 3
      vertex 2.39621 7.82348 0
    endloop
  endfacet
  facet normal 0 -1 0
    outer loop
      vertex 2.39621 7.82348 3
      vertex -2.60379 7.82348 0
      vertex 2.39621 7.82348 0
    endloop
  endfacet
  facet normal 0 -1 0
    outer loop
      vertex -2.60379 7.82348 0
      vertex 2.39621 7.82348 3
      vertex -2.60379 7.82348 3
    endloop
  endfacet
  facet normal 0 0 -1
    outer loop
      vertex -15.5 18.5 0
      vertex -13.2076 17 0
      vertex -15.5 -2.5 0
    endloop
  endfacet
  facet normal 0 0 -1
    outer loop
      vertex -13.2076 17 0
      vertex -15.5 18.5 0
      vertex -10.5 18.5 0
    endloop
  endfacet
  facet normal 0 0 -1
    outer loop
      vertex -13.2076 17 0
      vertex -10.5 18.5 0
      vertex -10.5 17 0
    endloop
  endfacet
  facet normal 0 0 -1
    outer loop
      vertex 15.5 18.5 0
      vertex 10.5 17 0
      vertex 10.5 18.5 0
    endloop
  endfacet
  facet normal 0 0 -1
    outer loop
      vertex 10.5 17 0
      vertex 15.5 18.5 0
      vertex 13 17 0
    endloop
  endfacet
  facet normal 0 0 -1
    outer loop
      vertex 13 17 0
      vertex 15.5 18.5 0
      vertex 13 15.8 0
    endloop
  endfacet
  facet normal 0 0 -1
    outer loop
      vertex -22 -2.5 0
      vertex -18.35 -9.5 0
      vertex -22 -18.5 0
    endloop
  endfacet
  facet normal 0 0 -1
    outer loop
      vertex -18.35 -9.5 0
      vertex -22 -2.5 0
      vertex -15.5 -2.5 0
    endloop
  endfacet
  facet normal 0 0 -1
    outer loop
      vertex -18.35 -9.5 0
      vertex -15.5 -2.5 0
      vertex -12.65 -9.5 0
    endloop
  endfacet
  facet normal 0 0 -1
    outer loop
      vertex -12.65 -9.5 0
      vertex -15.5 -2.5 0
      vertex -13.2076 15.8 0
    endloop
  endfacet
  facet normal 0 0 -1
    outer loop
      vertex -13.2076 15.8 0
      vertex -15.5 -2.5 0
      vertex -13.2076 17 0
    endloop
  endfacet
  facet normal 0 0 -1
    outer loop
      vertex -12.65 -9.5 0
      vertex -13.2076 15.8 0
      vertex -2.60379 7.82348 0
    endloop
  endfacet
  facet normal 0 0 -1
    outer loop
      vertex -2.60379 7.82348 0
      vertex -13.2076 15.8 0
      vertex 13 15.8 0
    endloop
  endfacet
  facet normal 0 0 -1
    outer loop
      vertex -12.65 -9.5 0
      vertex -2.60379 7.82348 0
      vertex -12.65 -14.5 0
    endloop
  endfacet
  facet normal 0 0 -1
    outer loop
      vertex -2.60379 7.82348 0
      vertex 13 15.8 0
      vertex 2.39621 7.82348 0
    endloop
  endfacet
  facet normal 0 0 -1
    outer loop
      vertex 2.39621 7.82348 0
      vertex 13 15.8 0
      vertex 2.39621 -5.17652 0
    endloop
  endfacet
  facet normal 0 0 -1
    outer loop
      vertex 2.39621 -5.17652 0
      vertex 13 15.8 0
      vertex 12.65 -9.5 0
    endloop
  endfacet
  facet normal 0 0 -1
    outer loop
      vertex 12.65 -9.5 0
      vertex 13 15.8 0
      vertex 15.5 -2.5 0
    endloop
  endfacet
  facet normal 0 0 -1
    outer loop
      vertex 12.65 -9.5 0
      vertex 15.5 -2.5 0
      vertex 18.35 -9.5 0
    endloop
  endfacet
  facet normal 0 0 -1
    outer loop
      vertex 15.5 -2.5 0
      vertex 13 15.8 0
      vertex 15.5 18.5 0
    endloop
  endfacet
  facet normal 0 0 -1
    outer loop
      vertex 18.35 -9.5 0
      vertex 15.5 -2.5 0
      vertex 22 -2.5 0
    endloop
  endfacet
  facet normal 0 0 -1
    outer loop
      vertex 18.35 -9.5 0
      vertex 22 -2.5 0
      vertex 18.35 -14.5 0
    endloop
  endfacet
  facet normal 0 0 -1
    outer loop
      vertex -22 -18.5 0
      vertex -18.35 -14.5 0
      vertex 22 -18.5 0
    endloop
  endfacet
  facet normal 0 0 -1
    outer loop
      vertex -18.35 -14.5 0
      vertex -22 -18.5 0
      vertex -18.35 -9.5 0
    endloop
  endfacet
  facet normal 0 0 -1
    outer loop
      vertex 22 -18.5 0
      vertex -18.35 -14.5 0
      vertex -12.65 -14.5 0
    endloop
  endfacet
  facet normal 0 0 -1
    outer loop
      vertex 22 -18.5 0
      vertex -12.65 -14.5 0
      vertex 12.65 -14.5 0
    endloop
  endfacet
  facet normal 0 0 -1
    outer loop
      vertex 12.65 -14.5 0
      vertex -12.65 -14.5 0
      vertex -2.60379 -5.17652 0
    endloop
  endfacet
  facet normal 0 0 -1
    outer loop
      vertex -2.60379 -5.17652 0
      vertex -12.65 -14.5 0
      vertex -2.60379 7.82348 0
    endloop
  endfacet
  facet normal 0 0 -1
    outer loop
      vertex 12.65 -14.5 0
      vertex -2.60379 -5.17652 0
      vertex 2.39621 -5.17652 0
    endloop
  endfacet
  facet normal 0 0 -1
    outer loop
      vertex 12.65 -14.5 0
      vertex 2.39621 -5.17652 0
      vertex 12.65 -9.5 0
    endloop
  endfacet
  facet normal 0 0 -1
    outer loop
      vertex 22 -18.5 0
      vertex 12.65 -14.5 0
      vertex 18.35 -14.5 0
    endloop
  endfacet
  facet normal 1 0 0
    outer loop
      vertex 15.5 -2.5 3
      vertex 15.5 18.5 0
      vertex 15.5 14.3 3
    endloop
  endfacet
  facet normal 1 0 0
    outer loop
      vertex -2.60379 7.82348 0
      vertex -2.60379 -5.17652 3
      vertex -2.60379 -5.17652 0
    endloop
  endfacet
  facet normal 1 0 0
    outer loop
      vertex -2.60379 -5.17652 3
      vertex -2.60379 7.82348 0
      vertex -2.60379 7.82348 3
    endloop
  endfacet
  facet normal 0 -1 0
    outer loop
      vertex 22 -18.5 3
      vertex -22 -18.5 0
      vertex 22 -18.5 0
    endloop
  endfacet
  facet normal 0 -1 0
    outer loop
      vertex -22 -18.5 0
      vertex 22 -18.5 3
      vertex -22 -18.5 3
    endloop
  endfacet
  facet normal 0 0 1
    outer loop
      vertex -22 -18.5 3
      vertex -18.35 -14.5 3
      vertex -22 -2.5 3
    endloop
  endfacet
  facet normal 0 0 1
    outer loop
      vertex -18.35 -14.5 3
      vertex -22 -18.5 3
      vertex 22 -18.5 3
    endloop
  endfacet
  facet normal 1 0 0
    outer loop
      vertex 15.5 14.3 3
      vertex 15.5 18.5 0
      vertex 15.5 14.3 27.5
    endloop
  endfacet
  facet normal 1 0 0
    outer loop
      vertex 15.5 14.3 27.5
      vertex 15.5 18.5 0
      vertex 15.5 18.5 27.5
    endloop
  endfacet
  facet normal 0 0 -1
    outer loop
      vertex 22 -18.5 0
      vertex 18.35 -14.5 0
      vertex 22 -2.5 0
    endloop
  endfacet
  facet normal 1 0 0
    outer loop
      vertex 15.5 18.5 0
      vertex 15.5 -2.5 3
      vertex 15.5 -2.5 0
    endloop
  endfacet
  facet normal 0 0 1
    outer loop
      vertex -18.35 -14.5 3
      vertex 22 -18.5 3
      vertex -12.65 -14.5 3
    endloop
  endfacet
  facet normal 0 0 1
    outer loop
      vertex -12.65 -14.5 3
      vertex 22 -18.5 3
      vertex -12.65 -9.5 3
    endloop
  endfacet
  facet normal 0 0 1
    outer loop
      vertex -12.65 -9.5 3
      vertex 22 -18.5 3
      vertex 12.65 -14.5 3
    endloop
  endfacet
  facet normal 0 0 1
    outer loop
      vertex -12.65 -9.5 3
      vertex 12.65 -14.5 3
      vertex -2.60379 -5.17652 3
    endloop
  endfacet
  facet normal 0 0 1
    outer loop
      vertex 12.65 -14.5 3
      vertex 22 -18.5 3
      vertex 18.35 -14.5 3
    endloop
  endfacet
  facet normal 0 0 1
    outer loop
      vertex -22 -2.5 3
      vertex -18.35 -9.5 3
      vertex -15.5 -2.5 3
    endloop
  endfacet
  facet normal 0 0 1
    outer loop
      vertex -18.35 -9.5 3
      vertex -22 -2.5 3
      vertex -18.35 -14.5 3
    endloop
  endfacet
  facet normal 0 0 1
    outer loop
      vertex -15.5 -2.5 3
      vertex -18.35 -9.5 3
      vertex -12.65 -9.5 3
    endloop
  endfacet
  facet normal 0 0 1
    outer loop
      vertex -15.5 -2.5 3
      vertex -12.65 -9.5 3
      vertex -15.5 14.3 3
    endloop
  endfacet
  facet normal 0 0 1
    outer loop
      vertex -2.60379 -5.17652 3
      vertex 12.65 -14.5 3
      vertex 2.39621 -5.17652 3
    endloop
  endfacet
  facet normal 0 0 1
    outer loop
      vertex 2.39621 -5.17652 3
      vertex 12.65 -14.5 3
      vertex 2.39621 7.82348 3
    endloop
  endfacet
  facet normal 0 0 1
    outer loop
      vertex -15.5 14.3 3
      vertex -12.65 -9.5 3
      vertex -2.60379 7.82348 3
    endloop
  endfacet
  facet normal 0 0 1
    outer loop
      vertex 18.35 -14.5 3
      vertex 22 -18.5 3
      vertex 18.35 -9.5 3
    endloop
  endfacet
  facet normal 0 0 1
    outer loop
      vertex 18.35 -9.5 3
      vertex 15.5 -2.5 3
      vertex 12.65 -9.5 3
    endloop
  endfacet
  facet normal 0 0 1
    outer loop
      vertex 15.5 -2.5 3
      vertex 18.35 -9.5 3
      vertex 22 -2.5 3
    endloop
  endfacet
  facet normal 0 0 1
    outer loop
      vertex 22 -2.5 3
      vertex 18.35 -9.5 3
      vertex 22 -18.5 3
    endloop
  endfacet
  facet normal 0 0 1
    outer loop
      vertex -15.5 14.3 3
      vertex -2.60379 7.82348 3
      vertex 15.5 14.3 3
    endloop
  endfacet
  facet normal 0 0 1
    outer loop
      vertex 15.5 14.3 3
      vertex -2.60379 7.82348 3
      vertex 2.39621 7.82348 3
    endloop
  endfacet
  facet normal 0 0 1
    outer loop
      vertex -2.60379 7.82348 3
      vertex -12.65 -9.5 3
      vertex -2.60379 -5.17652 3
    endloop
  endfacet
  facet normal 0 0 1
    outer loop
      vertex 15.5 14.3 3
      vertex 2.39621 7.82348 3
      vertex 12.65 -9.5 3
    endloop
  endfacet
  facet normal 0 1 0
    outer loop
      vertex -2.60379 -5.17652 3
      vertex 2.39621 -5.17652 0
      vertex -2.60379 -5.17652 0
    endloop
  endfacet
  facet normal -1 0 0
    outer loop
      vertex 18.35 -9.5 3
      vertex 18.35 -14.5 0
      vertex 18.35 -14.5 3
    endloop
  endfacet
  facet normal 0 -1 0
    outer loop
      vertex -18.35 -9.5 0
      vertex -12.65 -9.5 3
      vertex -18.35 -9.5 3
    endloop
  endfacet
  facet normal -1 0 0
    outer loop
      vertex 18.35 -14.5 0
      vertex 18.35 -9.5 3
      vertex 18.35 -9.5 0
    endloop
  endfacet
  facet normal -1 0 0
    outer loop
      vertex -12.65 -9.5 3
      vertex -12.65 -14.5 0
      vertex -12.65 -14.5 3
    endloop
  endfacet
  facet normal 0 0 1
    outer loop
      vertex 12.65 -9.5 3
      vertex 2.39621 7.82348 3
      vertex 12.65 -14.5 3
    endloop
  endfacet
  facet normal 0 0 1
    outer loop
      vertex 15.5 14.3 3
      vertex 12.65 -9.5 3
      vertex 15.5 -2.5 3
    endloop
  endfacet
  facet normal -1 0 0
    outer loop
      vertex -12.65 -14.5 0
      vertex -12.65 -9.5 3
      vertex -12.65 -9.5 0
    endloop
  endfacet
  facet normal 0 1 0
    outer loop
      vertex 2.39621 -5.17652 0
      vertex -2.60379 -5.17652 3
      vertex 2.39621 -5.17652 3
    endloop
  endfacet
  facet normal 0 -1 0
    outer loop
      vertex 18.35 -9.5 3
      vertex 12.65 -9.5 0
      vertex 18.35 -9.5 0
    endloop
  endfacet
  facet normal 0 -1 0
    outer loop
      vertex 12.65 -9.5 0
      vertex 18.35 -9.5 3
      vertex 12.65 -9.5 3
    endloop
  endfacet
  facet normal 0 -1 0
    outer loop
      vertex -12.65 -9.5 3
      vertex -18.35 -9.5 0
      vertex -12.65 -9.5 0
    endloop
  endfacet
  facet normal 1 0 0
    outer loop
      vertex 12.65 -9.5 0
      vertex 12.65 -14.5 3
      vertex 12.65 -14.5 0
    endloop
  endfacet
  facet normal 1 0 0
    outer loop
      vertex 12.65 -14.5 3
      vertex 12.65 -9.5 0
      vertex 12.65 -9.5 3
    endloop
  endfacet
  facet normal 0 1 0
    outer loop
      vertex 12.65 -14.5 3
      vertex 18.35 -14.5 0
      vertex 12.65 -14.5 0
    endloop
  endfacet
  facet normal 0 1 0
    outer loop
      vertex 18.35 -14.5 0
      vertex 12.65 -14.5 3
      vertex 18.35 -14.5 3
    endloop
  endfacet
  facet normal 0 1 0
    outer loop
      vertex -18.35 -14.5 3
      vertex -12.65 -14.5 0
      vertex -18.35 -14.5 0
    endloop
  endfacet
  facet normal 0 1 0
    outer loop
      vertex -12.65 -14.5 0
      vertex -18.35 -14.5 3
      vertex -12.65 -14.5 3
    endloop
  endfacet
  facet normal 1 0 0
    outer loop
      vertex -18.35 -9.5 0
      vertex -18.35 -14.5 3
      vertex -18.35 -14.5 0
    endloop
  endfacet
  facet normal 1 0 0
    outer loop
      vertex -18.35 -14.5 3
      vertex -18.35 -9.5 0
      vertex -18.35 -9.5 3
    endloop
  endfacet
endsolid camera_mount_small.stl
