solid camera_mount
facet normal 1.0 0.0 0.0
  outer loop
    vertex 50.12243437998568 4.2018951801403235 0.0
    vertex 50.12243437998568 2.7018951801403204 27.5
    vertex 50.12243437998568 2.7018951801403204 0.0
  endloop
endfacet
facet normal 1.0 0.0 0.0
  outer loop
    vertex 50.12243437998568 2.7018951801403204 27.5
    vertex 50.12243437998568 4.2018951801403235 0.0
    vertex 50.12243437998568 4.2018951801403235 27.5
  endloop
endfacet
facet normal -1.0 0.0 0.0
  outer loop
    vertex 73.62243396087594 2.7018951801403204 27.5
    vertex 73.62243396087594 1.5018951801403226 0.0
    vertex 73.62243396087594 1.5018951801403226 27.5
  endloop
endfacet
facet normal -1.0 0.0 0.0
  outer loop
    vertex 73.62243396087594 1.5018951801403226 0.0
    vertex 73.62243396087594 2.7018951801403204 27.5
    vertex 73.62243396087594 2.7018951801403204 0.0
  endloop
endfacet
facet normal 0.0 1.0 0.0
  outer loop
    vertex 45.12243437998567 4.2018951801403235 27.5
    vertex 50.12243437998568 4.2018951801403235 0.0
    vertex 45.12243437998567 4.2018951801403235 0.0
  endloop
endfacet
facet normal 0.0 1.0 0.0
  outer loop
    vertex 50.12243437998568 4.2018951801403235 0.0
    vertex 45.12243437998567 4.2018951801403235 27.5
    vertex 50.12243437998568 4.2018951801403235 27.5
  endloop
endfacet
facet normal 0.0 -1.0 0.0
  outer loop
    vertex 73.62243396087594 2.7018951801403204 27.5
    vertex 71.12243437998568 2.7018951801403204 0.0
    vertex 73.62243396087594 2.7018951801403204 0.0
  endloop
endfacet
facet normal 0.0 -1.0 0.0
  outer loop
    vertex 71.12243437998568 2.7018951801403204 0.0
    vertex 73.62243396087594 2.7018951801403204 27.5
    vertex 71.12243437998568 2.7018951801403204 27.5
  endloop
endfacet
facet normal -1.0 0.0 0.0
  outer loop
    vertex 71.12243437998568 4.2018951801403235 27.5
    vertex 71.12243437998568 2.7018951801403204 0.0
    vertex 71.12243437998568 2.7018951801403204 27.5
  endloop
endfacet
facet normal -1.0 0.0 0.0
  outer loop
    vertex 71.12243437998568 2.7018951801403204 0.0
    vertex 71.12243437998568 4.2018951801403235 27.5
    vertex 71.12243437998568 4.2018951801403235 0.0
  endloop
endfacet
facet normal 1.0 0.0 0.0
  outer loop
    vertex 47.41485196087594 2.7018951801403204 0.0
    vertex 47.41485196087594 1.5018951801403226 27.5
    vertex 47.41485196087594 1.5018951801403226 0.0
  endloop
endfacet
facet normal 1.0 0.0 0.0
  outer loop
    vertex 47.41485196087594 1.5018951801403226 27.5
    vertex 47.41485196087594 2.7018951801403204 0.0
    vertex 47.41485196087594 2.7018951801403204 27.5
  endloop
endfacet
facet normal 0.0 -1.0 0.0
  outer loop
    vertex 50.12243437998568 2.7018951801403204 27.5
    vertex 47.41485196087594 2.7018951801403204 0.0
    vertex 50.12243437998568 2.7018951801403204 0.0
  endloop
endfacet
facet normal 0.0 -1.0 0.0
  outer loop
    vertex 47.41485196087594 2.7018951801403204 0.0
    vertex 50.12243437998568 2.7018951801403204 27.5
    vertex 47.41485196087594 2.7018951801403204 27.5
  endloop
endfacet
facet normal 0.0 -1.0 0.0
  outer loop
    vertex 76.12243437998566 0.0018951801403198408 3.0
    vertex 69.72243437998567 0.0018951801403198408 4.5
    vertex 45.12243437998567 0.0018951801403198408 3.0
  endloop
endfacet
facet normal 0.0 -1.0 0.0
  outer loop
    vertex 69.72243437998567 0.0018951801403198408 4.5
    vertex 76.12243437998566 0.0018951801403198408 3.0
    vertex 76.12243437998566 0.0018951801403198408 27.5
  endloop
endfacet
facet normal 0.0 -1.0 0.0
  outer loop
    vertex 69.72243437998567 0.0018951801403198408 4.5
    vertex 76.12243437998566 0.0018951801403198408 27.5
    vertex 69.72243437998567 0.0018951801403198408 27.5
  endloop
endfacet
facet normal 0.0 -1.0 0.0
  outer loop
    vertex 45.12243437998567 0.0018951801403198408 3.0
    vertex 51.52243437998569 0.0018951801403198408 4.5
    vertex 45.12243437998567 0.0018951801403198408 27.5
  endloop
endfacet
facet normal 0.0 -1.0 0.0
  outer loop
    vertex 51.52243437998569 0.0018951801403198408 4.5
    vertex 45.12243437998567 0.0018951801403198408 3.0
    vertex 69.72243437998567 0.0018951801403198408 4.5
  endloop
endfacet
facet normal 0.0 -1.0 0.0
  outer loop
    vertex 45.12243437998567 0.0018951801403198408 27.5
    vertex 51.52243437998569 0.0018951801403198408 4.5
    vertex 51.52243437998569 0.0018951801403198408 27.5
  endloop
endfacet
facet normal -1.0 -4.699944137579821e-16 -3.065180959291193e-17
  outer loop
    vertex 69.72243437998567 1.5018951801403226 27.5
    vertex 69.72243437998567 0.0018951801403198408 4.5
    vertex 69.72243437998567 0.0018951801403198408 27.5
  endloop
endfacet
facet normal -1.0 -4.699944137579821e-16 -3.065180959291193e-17
  outer loop
    vertex 69.72243437998567 0.0018951801403198408 4.5
    vertex 69.72243437998567 1.5018951801403226 27.5
    vertex 69.72243437998567 1.5018951801403226 4.5
  endloop
endfacet
facet normal 1.0 0.0 0.0
  outer loop
    vertex 51.52243437998569 1.5018951801403226 4.5
    vertex 51.52243437998569 0.0018951801403198408 27.5
    vertex 51.52243437998569 0.0018951801403198408 4.5
  endloop
endfacet
facet normal 1.0 0.0 0.0
  outer loop
    vertex 51.52243437998569 0.0018951801403198408 27.5
    vertex 51.52243437998569 1.5018951801403226 4.5
    vertex 51.52243437998569 1.5018951801403226 27.5
  endloop
endfacet
facet normal 0.0 1.0 0.0
  outer loop
    vertex 47.41485196087594 1.5018951801403226 0.0
    vertex 51.52243437998569 1.5018951801403226 4.5
    vertex 73.62243396087594 1.5018951801403226 0.0
  endloop
endfacet
facet normal 0.0 1.0 0.0
  outer loop
    vertex 51.52243437998569 1.5018951801403226 4.5
    vertex 47.41485196087594 1.5018951801403226 0.0
    vertex 47.41485196087594 1.5018951801403226 27.5
  endloop
endfacet
facet normal 0.0 1.0 0.0
  outer loop
    vertex 51.52243437998569 1.5018951801403226 4.5
    vertex 47.41485196087594 1.5018951801403226 27.5
    vertex 51.52243437998569 1.5018951801403226 27.5
  endloop
endfacet
facet normal 0.0 1.0 0.0
  outer loop
    vertex 73.62243396087594 1.5018951801403226 0.0
    vertex 69.72243437998567 1.5018951801403226 4.5
    vertex 73.62243396087594 1.5018951801403226 27.5
  endloop
endfacet
facet normal 0.0 1.0 0.0
  outer loop
    vertex 69.72243437998567 1.5018951801403226 4.5
    vertex 73.62243396087594 1.5018951801403226 0.0
    vertex 51.52243437998569 1.5018951801403226 4.5
  endloop
endfacet
facet normal 0.0 1.0 0.0
  outer loop
    vertex 73.62243396087594 1.5018951801403226 27.5
    vertex 69.72243437998567 1.5018951801403226 4.5
    vertex 69.72243437998567 1.5018951801403226 27.5
  endloop
endfacet
facet normal 0.0 0.0 1.0
  outer loop
    vertex 69.72243437998567 0.0018951801403198408 4.5
    vertex 51.52243437998569 1.5018951801403226 4.5
    vertex 51.52243437998569 0.0018951801403198408 4.5
  endloop
endfacet
facet normal 0.0 0.0 1.0
  outer loop
    vertex 51.52243437998569 1.5018951801403226 4.5
    vertex 69.72243437998567 0.0018951801403198408 4.5
    vertex 69.72243437998567 1.5018951801403226 4.5
  endloop
endfacet
facet normal 0.0 -1.0 0.0
  outer loop
    vertex 76.12243437998566 4.2018951801403235 27.5
    vertex 71.12243437998568 4.2018951801403235 0.0
    vertex 76.12243437998566 4.2018951801403235 0.0
  endloop
endfacet
facet normal 0.0 -1.0 0.0
  outer loop
    vertex 71.12243437998568 4.2018951801403235 0.0
    vertex 76.12243437998566 4.2018951801403235 27.5
    vertex 71.12243437998568 4.2018951801403235 27.5
  endloop
endfacet
facet normal 0.0 0.0 1.0
  outer loop
    vertex 45.12243437998567 0.0018951801403198408 27.5
    vertex 47.41485196087594 1.5018951801403226 27.5
    vertex 45.12243437998567 4.2018951801403235 27.5
  endloop
endfacet
facet normal 0.0 0.0 1.0
  outer loop
    vertex 47.41485196087594 1.5018951801403226 27.5
    vertex 45.12243437998567 0.0018951801403198408 27.5
    vertex 51.52243437998569 0.0018951801403198408 27.5
  endloop
endfacet
facet normal 0.0 0.0 1.0
  outer loop
    vertex 47.41485196087594 1.5018951801403226 27.5
    vertex 51.52243437998569 0.0018951801403198408 27.5
    vertex 51.52243437998569 1.5018951801403226 27.5
  endloop
endfacet
facet normal 0.0 0.0 1.0
  outer loop
    vertex 45.12243437998567 4.2018951801403235 27.5
    vertex 47.41485196087594 2.7018951801403204 27.5
    vertex 50.12243437998568 4.2018951801403235 27.5
  endloop
endfacet
facet normal 0.0 0.0 1.0
  outer loop
    vertex 47.41485196087594 2.7018951801403204 27.5
    vertex 45.12243437998567 4.2018951801403235 27.5
    vertex 47.41485196087594 1.5018951801403226 27.5
  endloop
endfacet
facet normal 0.0 0.0 1.0
  outer loop
    vertex 50.12243437998568 4.2018951801403235 27.5
    vertex 47.41485196087594 2.7018951801403204 27.5
    vertex 50.12243437998568 2.7018951801403204 27.5
  endloop
endfacet
facet normal 0.0 0.0 1.0
  outer loop
    vertex 76.12243437998566 0.0018951801403198408 27.5
    vertex 69.72243437998567 1.5018951801403226 27.5
    vertex 69.72243437998567 0.0018951801403198408 27.5
  endloop
endfacet
facet normal 0.0 0.0 1.0
  outer loop
    vertex 69.72243437998567 1.5018951801403226 27.5
    vertex 76.12243437998566 0.0018951801403198408 27.5
    vertex 73.62243396087594 1.5018951801403226 27.5
  endloop
endfacet
facet normal 0.0 0.0 1.0
  outer loop
    vertex 73.62243396087594 1.5018951801403226 27.5
    vertex 76.12243437998566 0.0018951801403198408 27.5
    vertex 73.62243396087594 2.7018951801403204 27.5
  endloop
endfacet
facet normal 0.0 0.0 1.0
  outer loop
    vertex 73.62243396087594 2.7018951801403204 27.5
    vertex 71.12243437998568 4.2018951801403235 27.5
    vertex 71.12243437998568 2.7018951801403204 27.5
  endloop
endfacet
facet normal 0.0 0.0 1.0
  outer loop
    vertex 71.12243437998568 4.2018951801403235 27.5
    vertex 73.62243396087594 2.7018951801403204 27.5
    vertex 76.12243437998566 4.2018951801403235 27.5
  endloop
endfacet
facet normal 0.0 0.0 1.0
  outer loop
    vertex 76.12243437998566 4.2018951801403235 27.5
    vertex 73.62243396087594 2.7018951801403204 27.5
    vertex 76.12243437998566 0.0018951801403198408 27.5
  endloop
endfacet
facet normal 1.0 0.0 0.0
  outer loop
    vertex 82.62243437998568 -16.798104819859677 0.0
    vertex 82.62243437998568 -32.798104819859674 3.0
    vertex 82.62243437998568 -32.798104819859674 0.0
  endloop
endfacet
facet normal 1.0 0.0 0.0
  outer loop
    vertex 82.62243437998568 -32.798104819859674 3.0
    vertex 82.62243437998568 -16.798104819859677 0.0
    vertex 82.62243437998568 -16.798104819859677 3.0
  endloop
endfacet
facet normal 0.0 1.0 0.0
  outer loop
    vertex 76.12243437998566 -16.798104819859677 3.0
    vertex 82.62243437998568 -16.798104819859677 0.0
    vertex 76.12243437998566 -16.798104819859677 0.0
  endloop
endfacet
facet normal 0.0 1.0 0.0
  outer loop
    vertex 82.62243437998568 -16.798104819859677 0.0
    vertex 76.12243437998566 -16.798104819859677 3.0
    vertex 82.62243437998568 -16.798104819859677 3.0
  endloop
endfacet
facet normal -1.0 0.0 0.0
  outer loop
    vertex 38.62243437998567 -16.798104819859677 3.0
    vertex 38.62243437998567 -32.798104819859674 0.0
    vertex 38.62243437998567 -32.798104819859674 3.0
  endloop
endfacet
facet normal -1.0 0.0 0.0
  outer loop
    vertex 38.62243437998567 -32.798104819859674 0.0
    vertex 38.62243437998567 -16.798104819859677 3.0
    vertex 38.62243437998567 -16.798104819859677 0.0
  endloop
endfacet
facet normal 0.0 1.0 0.0
  outer loop
    vertex 38.62243437998567 -16.798104819859677 3.0
    vertex 45.12243437998567 -16.798104819859677 0.0
    vertex 38.62243437998567 -16.798104819859677 0.0
  endloop
endfacet
facet normal 0.0 1.0 0.0
  outer loop
    vertex 45.12243437998567 -16.798104819859677 0.0
    vertex 38.62243437998567 -16.798104819859677 3.0
    vertex 45.12243437998567 -16.798104819859677 3.0
  endloop
endfacet
facet normal -1.0 0.0 0.0
  outer loop
    vertex 45.12243437998567 4.2018951801403235 27.5
    vertex 45.12243437998567 0.0018951801403198408 3.0
    vertex 45.12243437998567 0.0018951801403198408 27.5
  endloop
endfacet
facet normal -1.0 0.0 0.0
  outer loop
    vertex 45.12243437998567 0.0018951801403198408 3.0
    vertex 45.12243437998567 -16.798104819859677 0.0
    vertex 45.12243437998567 -16.798104819859677 3.0
  endloop
endfacet
facet normal -1.0 0.0 0.0
  outer loop
    vertex 45.12243437998567 -16.798104819859677 0.0
    vertex 45.12243437998567 0.0018951801403198408 3.0
    vertex 45.12243437998567 4.2018951801403235 0.0
  endloop
endfacet
facet normal -1.0 0.0 0.0
  outer loop
    vertex 45.12243437998567 4.2018951801403235 0.0
    vertex 45.12243437998567 0.0018951801403198408 3.0
    vertex 45.12243437998567 4.2018951801403235 27.5
  endloop
endfacet
facet normal -1.0 0.0 0.0
  outer loop
    vertex 63.01864300585674 -6.474620491715105 3.0000000000000413
    vertex 63.01864300585674 -19.474620491715104 0.0
    vertex 63.01864300585674 -19.474620491715104 3.0000000000000413
  endloop
endfacet
facet normal -1.0 0.0 0.0
  outer loop
    vertex 63.01864300585674 -19.474620491715104 0.0
    vertex 63.01864300585674 -6.474620491715105 3.0000000000000413
    vertex 63.01864300585674 -6.474620491715105 0.0
  endloop
endfacet
facet normal 0.0 -1.0 0.0
  outer loop
    vertex 63.01864300585674 -6.474620491715105 3.0000000000000413
    vertex 58.018643005856724 -6.474620491715105 0.0
    vertex 63.01864300585674 -6.474620491715105 0.0
  endloop
endfacet
facet normal 0.0 -1.0 0.0
  outer loop
    vertex 58.018643005856724 -6.474620491715105 0.0
    vertex 63.01864300585674 -6.474620491715105 3.0000000000000413
    vertex 58.018643005856724 -6.474620491715105 3.0000000000000413
  endloop
endfacet
facet normal 0.0 0.0 -1.0
  outer loop
    vertex 45.12243437998567 4.2018951801403235 0.0
    vertex 47.41485196087594 2.7018951801403204 0.0
    vertex 45.12243437998567 -16.798104819859677 0.0
  endloop
endfacet
facet normal 0.0 0.0 -1.0
  outer loop
    vertex 47.41485196087594 2.7018951801403204 0.0
    vertex 45.12243437998567 4.2018951801403235 0.0
    vertex 50.12243437998568 4.2018951801403235 0.0
  endloop
endfacet
facet normal 0.0 0.0 -1.0
  outer loop
    vertex 47.41485196087594 2.7018951801403204 0.0
    vertex 50.12243437998568 4.2018951801403235 0.0
    vertex 50.12243437998568 2.7018951801403204 0.0
  endloop
endfacet
facet normal 0.0 0.0 -1.0
  outer loop
    vertex 76.12243437998566 4.2018951801403235 0.0
    vertex 71.12243437998568 2.7018951801403204 0.0
    vertex 71.12243437998568 4.2018951801403235 0.0
  endloop
endfacet
facet normal 0.0 0.0 -1.0
  outer loop
    vertex 71.12243437998568 2.7018951801403204 0.0
    vertex 76.12243437998566 4.2018951801403235 0.0
    vertex 73.62243396087594 2.7018951801403204 0.0
  endloop
endfacet
facet normal 0.0 0.0 -1.0
  outer loop
    vertex 73.62243396087594 2.7018951801403204 0.0
    vertex 76.12243437998566 4.2018951801403235 0.0
    vertex 73.62243396087594 1.5018951801403226 0.0
  endloop
endfacet
facet normal 0.0 0.0 -1.0
  outer loop
    vertex 38.62243437998567 -16.798104819859677 0.0
    vertex 42.272434379985675 -22.798104819859677 0.0
    vertex 38.62243437998567 -32.798104819859674 0.0
  endloop
endfacet
facet normal 0.0 0.0 -1.0
  outer loop
    vertex 42.272434379985675 -22.798104819859677 0.0
    vertex 38.62243437998567 -16.798104819859677 0.0
    vertex 45.12243437998567 -16.798104819859677 0.0
  endloop
endfacet
facet normal 0.0 0.0 -1.0
  outer loop
    vertex 42.272434379985675 -22.798104819859677 0.0
    vertex 45.12243437998567 -16.798104819859677 0.0
    vertex 47.97243437998568 -22.798104819859677 0.0
  endloop
endfacet
facet normal 0.0 0.0 -1.0
  outer loop
    vertex 47.97243437998568 -22.798104819859677 0.0
    vertex 45.12243437998567 -16.798104819859677 0.0
    vertex 47.41485196087594 1.5018951801403226 0.0
  endloop
endfacet
facet normal 0.0 0.0 -1.0
  outer loop
    vertex 47.41485196087594 1.5018951801403226 0.0
    vertex 45.12243437998567 -16.798104819859677 0.0
    vertex 47.41485196087594 2.7018951801403204 0.0
  endloop
endfacet
facet normal 0.0 0.0 -1.0
  outer loop
    vertex 47.97243437998568 -22.798104819859677 0.0
    vertex 47.41485196087594 1.5018951801403226 0.0
    vertex 58.018643005856724 -6.474620491715105 0.0
  endloop
endfacet
facet normal 0.0 0.0 -1.0
  outer loop
    vertex 58.018643005856724 -6.474620491715105 0.0
    vertex 47.41485196087594 1.5018951801403226 0.0
    vertex 73.62243396087594 1.5018951801403226 0.0
  endloop
endfacet
facet normal 0.0 0.0 -1.0
  outer loop
    vertex 47.97243437998568 -22.798104819859677 0.0
    vertex 58.018643005856724 -6.474620491715105 0.0
    vertex 47.97243437998568 -29.798104819859677 0.0
  endloop
endfacet
facet normal 0.0 0.0 -1.0
  outer loop
    vertex 58.018643005856724 -6.474620491715105 0.0
    vertex 73.62243396087594 1.5018951801403226 0.0
    vertex 63.01864300585674 -6.474620491715105 0.0
  endloop
endfacet
facet normal 0.0 0.0 -1.0
  outer loop
    vertex 63.01864300585674 -6.474620491715105 0.0
    vertex 73.62243396087594 1.5018951801403226 0.0
    vertex 63.01864300585674 -19.474620491715104 0.0
  endloop
endfacet
facet normal 0.0 0.0 -1.0
  outer loop
    vertex 63.01864300585674 -19.474620491715104 0.0
    vertex 73.62243396087594 1.5018951801403226 0.0
    vertex 73.27243437998565 -22.798104819859674 0.0
  endloop
endfacet
facet normal 0.0 0.0 -1.0
  outer loop
    vertex 73.27243437998565 -22.798104819859674 0.0
    vertex 73.62243396087594 1.5018951801403226 0.0
    vertex 76.12243437998566 -16.798104819859677 0.0
  endloop
endfacet
facet normal 0.0 0.0 -1.0
  outer loop
    vertex 73.27243437998565 -22.798104819859674 0.0
    vertex 76.12243437998566 -16.798104819859677 0.0
    vertex 78.97243437998567 -22.798104819859674 0.0
  endloop
endfacet
facet normal 0.0 0.0 -1.0
  outer loop
    vertex 76.12243437998566 -16.798104819859677 0.0
    vertex 73.62243396087594 1.5018951801403226 0.0
    vertex 76.12243437998566 4.2018951801403235 0.0
  endloop
endfacet
facet normal 0.0 0.0 -1.0
  outer loop
    vertex 78.97243437998567 -22.798104819859674 0.0
    vertex 76.12243437998566 -16.798104819859677 0.0
    vertex 82.62243437998568 -16.798104819859677 0.0
  endloop
endfacet
facet normal 0.0 0.0 -1.0
  outer loop
    vertex 78.97243437998567 -22.798104819859674 0.0
    vertex 82.62243437998568 -16.798104819859677 0.0
    vertex 78.97243437998567 -29.798104819859677 0.0
  endloop
endfacet
facet normal 0.0 0.0 -1.0
  outer loop
    vertex 38.62243437998567 -32.798104819859674 0.0
    vertex 42.272434379985675 -29.798104819859677 0.0
    vertex 82.62243437998568 -32.798104819859674 0.0
  endloop
endfacet
facet normal 0.0 0.0 -1.0
  outer loop
    vertex 42.272434379985675 -29.798104819859677 0.0
    vertex 38.62243437998567 -32.798104819859674 0.0
    vertex 42.272434379985675 -22.798104819859677 0.0
  endloop
endfacet
facet normal 0.0 0.0 -1.0
  outer loop
    vertex 82.62243437998568 -32.798104819859674 0.0
    vertex 42.272434379985675 -29.798104819859677 0.0
    vertex 47.97243437998568 -29.798104819859677 0.0
  endloop
endfacet
facet normal 0.0 0.0 -1.0
  outer loop
    vertex 82.62243437998568 -32.798104819859674 0.0
    vertex 47.97243437998568 -29.798104819859677 0.0
    vertex 73.27243437998565 -29.798104819859677 0.0
  endloop
endfacet
facet normal 0.0 0.0 -1.0
  outer loop
    vertex 73.27243437998565 -29.798104819859677 0.0
    vertex 47.97243437998568 -29.798104819859677 0.0
    vertex 58.018643005856724 -19.474620491715104 0.0
  endloop
endfacet
facet normal 0.0 0.0 -1.0
  outer loop
    vertex 58.018643005856724 -19.474620491715104 0.0
    vertex 47.97243437998568 -29.798104819859677 0.0
    vertex 58.018643005856724 -6.474620491715105 0.0
  endloop
endfacet
facet normal 0.0 0.0 -1.0
  outer loop
    vertex 73.27243437998565 -29.798104819859677 0.0
    vertex 58.018643005856724 -19.474620491715104 0.0
    vertex 63.01864300585674 -19.474620491715104 0.0
  endloop
endfacet
facet normal 0.0 0.0 -1.0
  outer loop
    vertex 73.27243437998565 -29.798104819859677 0.0
    vertex 63.01864300585674 -19.474620491715104 0.0
    vertex 73.27243437998565 -22.798104819859674 0.0
  endloop
endfacet
facet normal 0.0 0.0 -1.0
  outer loop
    vertex 82.62243437998568 -32.798104819859674 0.0
    vertex 73.27243437998565 -29.798104819859677 0.0
    vertex 78.97243437998567 -29.798104819859677 0.0
  endloop
endfacet
facet normal 0.0 0.0 -1.0
  outer loop
    vertex 82.62243437998568 -32.798104819859674 0.0
    vertex 78.97243437998567 -29.798104819859677 0.0
    vertex 82.62243437998568 -16.798104819859677 0.0
  endloop
endfacet
facet normal 1.0 0.0 0.0
  outer loop
    vertex 76.12243437998566 4.2018951801403235 0.0
    vertex 76.12243437998566 -16.798104819859677 3.0
    vertex 76.12243437998566 -16.798104819859677 0.0
  endloop
endfacet
facet normal 1.0 0.0 0.0
  outer loop
    vertex 76.12243437998566 -16.798104819859677 3.0
    vertex 76.12243437998566 4.2018951801403235 0.0
    vertex 76.12243437998566 0.0018951801403198408 3.0
  endloop
endfacet
facet normal 1.0 0.0 0.0
  outer loop
    vertex 76.12243437998566 0.0018951801403198408 3.0
    vertex 76.12243437998566 4.2018951801403235 0.0
    vertex 76.12243437998566 0.0018951801403198408 27.5
  endloop
endfacet
facet normal 1.0 0.0 0.0
  outer loop
    vertex 76.12243437998566 0.0018951801403198408 27.5
    vertex 76.12243437998566 4.2018951801403235 0.0
    vertex 76.12243437998566 4.2018951801403235 27.5
  endloop
endfacet
facet normal 1.0 0.0 0.0
  outer loop
    vertex 58.018643005856724 -6.474620491715105 0.0
    vertex 58.018643005856724 -19.474620491715104 3.0000000000000413
    vertex 58.018643005856724 -19.474620491715104 0.0
  endloop
endfacet
facet normal 1.0 0.0 0.0
  outer loop
    vertex 58.018643005856724 -19.474620491715104 3.0000000000000413
    vertex 58.018643005856724 -6.474620491715105 0.0
    vertex 58.018643005856724 -6.474620491715105 3.0000000000000413
  endloop
endfacet
facet normal 0.0 -1.0 0.0
  outer loop
    vertex 82.62243437998568 -32.798104819859674 3.0
    vertex 38.62243437998567 -32.798104819859674 0.0
    vertex 82.62243437998568 -32.798104819859674 0.0
  endloop
endfacet
facet normal 0.0 -1.0 0.0
  outer loop
    vertex 38.62243437998567 -32.798104819859674 0.0
    vertex 82.62243437998568 -32.798104819859674 3.0
    vertex 38.62243437998567 -32.798104819859674 3.0
  endloop
endfacet
facet normal 0.0 0.0 1.0
  outer loop
    vertex 38.62243437998567 -32.798104819859674 3.0
    vertex 42.272434379985675 -29.798104819859677 3.0
    vertex 38.62243437998567 -16.798104819859677 3.0
  endloop
endfacet
facet normal 0.0 0.0 1.0
  outer loop
    vertex 42.272434379985675 -29.798104819859677 3.0
    vertex 38.62243437998567 -32.798104819859674 3.0
    vertex 82.62243437998568 -32.798104819859674 3.0
  endloop
endfacet
facet normal 0.0 0.0 1.0
  outer loop
    vertex 42.272434379985675 -29.798104819859677 3.0
    vertex 82.62243437998568 -32.798104819859674 3.0
    vertex 47.97243437998568 -29.798104819859677 3.0
  endloop
endfacet
facet normal 0.0 0.0 1.0
  outer loop
    vertex 47.97243437998568 -29.798104819859677 3.0
    vertex 82.62243437998568 -32.798104819859674 3.0
    vertex 47.97243437998568 -22.798104819859677 3.0
  endloop
endfacet
facet normal 0.0 0.0 1.0
  outer loop
    vertex 47.97243437998568 -22.798104819859677 3.0
    vertex 82.62243437998568 -32.798104819859674 3.0
    vertex 73.27243437998565 -29.798104819859677 3.0
  endloop
endfacet
facet normal 0.0 0.0 1.0
  outer loop
    vertex 47.97243437998568 -22.798104819859677 3.0
    vertex 73.27243437998565 -29.798104819859677 3.0
    vertex 58.018643005856724 -19.474620491715104 3.0000000000000413
  endloop
endfacet
facet normal 0.0 0.0 1.0
  outer loop
    vertex 58.018643005856724 -19.474620491715104 3.0000000000000413
    vertex 73.27243437998565 -29.798104819859677 3.0
    vertex 63.01864300585674 -19.474620491715104 3.0000000000000413
  endloop
endfacet
facet normal 0.0 0.0 1.0
  outer loop
    vertex 63.01864300585674 -19.474620491715104 3.0000000000000413
    vertex 73.27243437998565 -29.798104819859677 3.0
    vertex 63.01864300585674 -6.474620491715105 3.0000000000000413
  endloop
endfacet
facet normal 0.0 0.0 1.0
  outer loop
    vertex 73.27243437998565 -29.798104819859677 3.0
    vertex 82.62243437998568 -32.798104819859674 3.0
    vertex 78.97243437998567 -29.798104819859677 3.0
  endloop
endfacet
facet normal 0.0 0.0 1.0
  outer loop
    vertex 78.97243437998567 -29.798104819859677 3.0
    vertex 82.62243437998568 -32.798104819859674 3.0
    vertex 78.97243437998567 -22.798104819859674 3.0
  endloop
endfacet
facet normal 0.0 0.0 1.0
  outer loop
    vertex 78.97243437998567 -22.798104819859674 3.0
    vertex 76.12243437998566 -16.798104819859677 3.0
    vertex 73.27243437998565 -22.798104819859674 3.0
  endloop
endfacet
facet normal 0.0 0.0 1.0
  outer loop
    vertex 76.12243437998566 -16.798104819859677 3.0
    vertex 78.97243437998567 -22.798104819859674 3.0
    vertex 82.62243437998568 -16.798104819859677 3.0
  endloop
endfacet
facet normal 0.0 0.0 1.0
  outer loop
    vertex 82.62243437998568 -16.798104819859677 3.0
    vertex 78.97243437998567 -22.798104819859674 3.0
    vertex 82.62243437998568 -32.798104819859674 3.0
  endloop
endfacet
facet normal 0.0 0.0 1.0
  outer loop
    vertex 38.62243437998567 -16.798104819859677 3.0
    vertex 42.272434379985675 -22.798104819859677 3.0
    vertex 45.12243437998567 -16.798104819859677 3.0
  endloop
endfacet
facet normal 0.0 0.0 1.0
  outer loop
    vertex 42.272434379985675 -22.798104819859677 3.0
    vertex 38.62243437998567 -16.798104819859677 3.0
    vertex 42.272434379985675 -29.798104819859677 3.0
  endloop
endfacet
facet normal 0.0 0.0 1.0
  outer loop
    vertex 45.12243437998567 -16.798104819859677 3.0
    vertex 42.272434379985675 -22.798104819859677 3.0
    vertex 47.97243437998568 -22.798104819859677 3.0
  endloop
endfacet
facet normal 0.0 0.0 1.0
  outer loop
    vertex 45.12243437998567 -16.798104819859677 3.0
    vertex 47.97243437998568 -22.798104819859677 3.0
    vertex 45.12243437998567 0.0018951801403198408 3.0
  endloop
endfacet
facet normal 0.0 0.0 1.0
  outer loop
    vertex 45.12243437998567 0.0018951801403198408 3.0
    vertex 47.97243437998568 -22.798104819859677 3.0
    vertex 58.018643005856724 -6.474620491715105 3.0000000000000413
  endloop
endfacet
facet normal 0.0 0.0 1.0
  outer loop
    vertex 45.12243437998567 0.0018951801403198408 3.0
    vertex 58.018643005856724 -6.474620491715105 3.0000000000000413
    vertex 76.12243437998566 0.0018951801403198408 3.0
  endloop
endfacet
facet normal 0.0 0.0 1.0
  outer loop
    vertex 58.018643005856724 -6.474620491715105 3.0000000000000413
    vertex 47.97243437998568 -22.798104819859677 3.0
    vertex 58.018643005856724 -19.474620491715104 3.0000000000000413
  endloop
endfacet
facet normal 0.0 0.0 1.0
  outer loop
    vertex 76.12243437998566 0.0018951801403198408 3.0
    vertex 58.018643005856724 -6.474620491715105 3.0000000000000413
    vertex 63.01864300585674 -6.474620491715105 3.0000000000000413
  endloop
endfacet
facet normal 0.0 0.0 1.0
  outer loop
    vertex 76.12243437998566 0.0018951801403198408 3.0
    vertex 63.01864300585674 -6.474620491715105 3.0000000000000413
    vertex 73.27243437998565 -22.798104819859674 3.0
  endloop
endfacet
facet normal 0.0 0.0 1.0
  outer loop
    vertex 73.27243437998565 -22.798104819859674 3.0
    vertex 63.01864300585674 -6.474620491715105 3.0000000000000413
    vertex 73.27243437998565 -29.798104819859677 3.0
  endloop
endfacet
facet normal 0.0 0.0 1.0
  outer loop
    vertex 76.12243437998566 0.0018951801403198408 3.0
    vertex 73.27243437998565 -22.798104819859674 3.0
    vertex 76.12243437998566 -16.798104819859677 3.0
  endloop
endfacet
facet normal 0.0 1.0 0.0
  outer loop
    vertex 58.018643005856724 -19.474620491715104 3.0000000000000413
    vertex 63.01864300585674 -19.474620491715104 0.0
    vertex 58.018643005856724 -19.474620491715104 0.0
  endloop
endfacet
facet normal 0.0 1.0 0.0
  outer loop
    vertex 63.01864300585674 -19.474620491715104 0.0
    vertex 58.018643005856724 -19.474620491715104 3.0000000000000413
    vertex 63.01864300585674 -19.474620491715104 3.0000000000000413
  endloop
endfacet
facet normal -1.0 0.0 0.0
  outer loop
    vertex 47.97243437998568 -22.798104819859677 3.0
    vertex 47.97243437998568 -29.798104819859677 0.0
    vertex 47.97243437998568 -29.798104819859677 3.0
  endloop
endfacet
facet normal -1.0 0.0 0.0
  outer loop
    vertex 47.97243437998568 -29.798104819859677 0.0
    vertex 47.97243437998568 -22.798104819859677 3.0
    vertex 47.97243437998568 -22.798104819859677 0.0
  endloop
endfacet
facet normal 0.0 -1.0 0.0
  outer loop
    vertex 47.97243437998568 -22.798104819859677 3.0
    vertex 42.272434379985675 -22.798104819859677 0.0
    vertex 47.97243437998568 -22.798104819859677 0.0
  endloop
endfacet
facet normal 0.0 -1.0 0.0
  outer loop
    vertex 42.272434379985675 -22.798104819859677 0.0
    vertex 47.97243437998568 -22.798104819859677 3.0
    vertex 42.272434379985675 -22.798104819859677 3.0
  endloop
endfacet
facet normal -1.0 0.0 0.0
  outer loop
    vertex 78.97243437998567 -22.798104819859674 3.0
    vertex 78.97243437998567 -29.798104819859677 0.0
    vertex 78.97243437998567 -29.798104819859677 3.0
  endloop
endfacet
facet normal -1.0 0.0 0.0
  outer loop
    vertex 78.97243437998567 -29.798104819859677 0.0
    vertex 78.97243437998567 -22.798104819859674 3.0
    vertex 78.97243437998567 -22.798104819859674 0.0
  endloop
endfacet
facet normal 0.0 -1.0 0.0
  outer loop
    vertex 78.97243437998567 -22.798104819859674 3.0
    vertex 73.27243437998565 -22.798104819859674 0.0
    vertex 78.97243437998567 -22.798104819859674 0.0
  endloop
endfacet
facet normal 0.0 -1.0 0.0
  outer loop
    vertex 73.27243437998565 -22.798104819859674 0.0
    vertex 78.97243437998567 -22.798104819859674 3.0
    vertex 73.27243437998565 -22.798104819859674 3.0
  endloop
endfacet
facet normal 1.0 0.0 0.0
  outer loop
    vertex 73.27243437998565 -22.798104819859674 0.0
    vertex 73.27243437998565 -29.798104819859677 3.0
    vertex 73.27243437998565 -29.798104819859677 0.0
  endloop
endfacet
facet normal 1.0 0.0 0.0
  outer loop
    vertex 73.27243437998565 -29.798104819859677 3.0
    vertex 73.27243437998565 -22.798104819859674 0.0
    vertex 73.27243437998565 -22.798104819859674 3.0
  endloop
endfacet
facet normal 0.0 1.0 0.0
  outer loop
    vertex 73.27243437998565 -29.798104819859677 3.0
    vertex 78.97243437998567 -29.798104819859677 0.0
    vertex 73.27243437998565 -29.798104819859677 0.0
  endloop
endfacet
facet normal 0.0 1.0 0.0
  outer loop
    vertex 78.97243437998567 -29.798104819859677 0.0
    vertex 73.27243437998565 -29.798104819859677 3.0
    vertex 78.97243437998567 -29.798104819859677 3.0
  endloop
endfacet
facet normal 1.0 0.0 0.0
  outer loop
    vertex 42.272434379985675 -22.798104819859677 0.0
    vertex 42.272434379985675 -29.798104819859677 3.0
    vertex 42.272434379985675 -29.798104819859677 0.0
  endloop
endfacet
facet normal 1.0 0.0 0.0
  outer loop
    vertex 42.272434379985675 -29.798104819859677 3.0
    vertex 42.272434379985675 -22.798104819859677 0.0
    vertex 42.272434379985675 -22.798104819859677 3.0
  endloop
endfacet
facet normal 0.0 1.0 0.0
  outer loop
    vertex 42.272434379985675 -29.798104819859677 3.0
    vertex 47.97243437998568 -29.798104819859677 0.0
    vertex 42.272434379985675 -29.798104819859677 0.0
  endloop
endfacet
facet normal 0.0 1.0 0.0
  outer loop
    vertex 47.97243437998568 -29.798104819859677 0.0
    vertex 42.272434379985675 -29.798104819859677 3.0
    vertex 47.97243437998568 -29.798104819859677 3.0
  endloop
endfacet
endsolid camera_mount
